<?xml version="1.0" encoding="UTF-8"?>
<!-- Creator: CorelDRAW 2021 (64 Bit) -->
<svg xmlns="http://www.w3.org/2000/svg" xmlns:xlink="http://www.w3.org/1999/xlink" xmlns:xodm="http://www.corel.com/coreldraw/odm/2003" xml:space="preserve" width="238.937mm" height="59.2626mm" version="1.1" style="shape-rendering:geometricPrecision; text-rendering:geometricPrecision; image-rendering:optimizeQuality; fill-rule:evenodd; clip-rule:evenodd" viewBox="0 0 21871.76 5424.77">
 <defs>
  <style type="text/css">
   <![CDATA[
    .fil9 {fill:#FEFEFE}
    .fil12 {fill:#FFCC29}
    .fil10 {fill:#07613F}
    .fil14 {fill:#FFCC29;fill-rule:nonzero}
    .fil13 {fill:#00A859;fill-rule:nonzero}
    .fil1 {fill:#001F4E;fill-rule:nonzero}
    .fil0 {fill:#12A89D;fill-rule:nonzero}
    .fil2 {fill:#B3B3B3;fill-rule:nonzero}
    .fil11 {fill:url(#id0)}
    .fil8 {fill:url(#id1)}
    .fil4 {fill:url(#id2)}
    .fil5 {fill:url(#id3)}
    .fil7 {fill:url(#id4)}
    .fil3 {fill:url(#id5)}
    .fil6 {fill:url(#id6)}
   ]]>
  </style>
  <linearGradient id="id0" gradientUnits="userSpaceOnUse" x1="2711.27" y1="1236.93" x2="3361.09" y2="1475.18">
   <stop offset="0" style="stop-opacity:1; stop-color:#00A658"></stop>
   <stop offset="0.309804" style="stop-opacity:1; stop-color:#03844C"></stop>
   <stop offset="1" style="stop-opacity:1; stop-color:#07613F"></stop>
  </linearGradient>
  <linearGradient id="id1" gradientUnits="userSpaceOnUse" x1="2457.76" y1="1181.84" x2="2356.84" y2="1697.13">
   <stop offset="0" style="stop-opacity:1; stop-color:#3E4095"></stop>
   <stop offset="0.309804" style="stop-opacity:1; stop-color:#1F3486"></stop>
   <stop offset="1" style="stop-opacity:1; stop-color:#002776"></stop>
  </linearGradient>
  <linearGradient id="id2" gradientUnits="userSpaceOnUse" xlink:href="#id0" x1="1564.57" y1="1536.88" x2="1507.81" y2="1490.35">
  </linearGradient>
  <linearGradient id="id3" gradientUnits="userSpaceOnUse" xlink:href="#id0" x1="2579.43" y1="1904.39" x2="2453.51" y2="1712.11">
  </linearGradient>
  <linearGradient id="id4" gradientUnits="userSpaceOnUse" x1="1969.5" y1="1221.43" x2="2567.44" y2="1524.78">
   <stop offset="0" style="stop-opacity:1; stop-color:#FFF212"></stop>
   <stop offset="0.309804" style="stop-opacity:1; stop-color:#FFDF1D"></stop>
   <stop offset="1" style="stop-opacity:1; stop-color:#FFCC29"></stop>
  </linearGradient>
  <linearGradient id="id5" gradientUnits="userSpaceOnUse" xlink:href="#id0" x1="915.4" y1="920.52" x2="1598.61" y2="1416.53">
  </linearGradient>
  <linearGradient id="id6" gradientUnits="userSpaceOnUse" xlink:href="#id0" x1="1829.08" y1="1129.2" x2="2644.66" y2="1477.96">
  </linearGradient>
 </defs>
 <g id="Camada_x0020_1">
  <metadata id="CorelCorpID_0Corel-Layer"></metadata>
  <path class="fil0" d="M15301.2 2095.04c-218.12,0 -386.99,10.55 -513.63,31.66 -73.88,10.55 -109.06,38.69 -123.13,112.57l-383.46 1987.66c-21.11,105.54 3.52,137.2 87.95,147.75 123.13,14.08 320.14,28.15 541.77,28.15 369.39,0 619.16,-52.77 780.99,-158.31 186.45,-119.61 306.07,-323.66 306.07,-629.73 0,-235.7 -130.17,-362.35 -337.73,-408.08l0 -7.03c256.82,-102.03 386.98,-320.14 386.98,-636.76 0,-369.39 -369.38,-467.9 -745.8,-467.9zm-415.12 1294.62l235.7 0c295.51,0 411.61,49.25 411.61,270.88 0,130.17 -56.29,242.75 -144.24,302.55 -73.88,52.77 -200.53,84.43 -397.54,84.43 -63.32,0 -147.75,-3.52 -189.97,-10.55 -35.18,-7.04 -38.69,-21.11 -31.66,-52.77l116.1 -594.54zm408.08 -935.78c211.08,0 295.51,38.69 295.51,200.52 0,253.29 -151.28,394.02 -429.19,394.02l-211.08 0 105.53 -538.25c7.04,-35.18 21.11,-49.26 49.26,-52.77 45.73,-3.52 112.57,-3.52 189.97,-3.52zm1349.23 288.47c3.52,-52.77 -17.59,-63.33 -77.4,-63.33l-126.65 0c-59.8,0 -84.43,14.07 -94.98,66.84l-302.55 1569.02c-14.07,70.36 3.52,87.95 80.92,87.95l221.63 0c77.4,0 102.02,-17.59 116.09,-87.95l168.87 -875.98c35.18,-182.93 73.87,-253.29 140.71,-316.61 56.3,-52.77 147.76,-91.47 302.55,-91.47l84.43 0c59.8,0 84.43,-14.07 91.46,-59.8l38.7 -207.56c14.07,-70.37 -7.04,-84.43 -80.92,-84.43l-87.95 0c-214.59,0 -355.31,56.29 -474.93,228.67l-7.04 0 7.04 -165.34zm1387.93 1108.17c-35.18,179.41 -119.61,249.77 -309.58,249.77l-80.92 0c-119.61,0 -179.41,-31.65 -179.41,-102.02 0,-49.25 14.07,-116.09 35.18,-179.41 42.22,-130.17 116.1,-175.9 277.92,-175.9l98.5 0c70.37,0 137.21,3.52 197.01,7.04l-38.69 200.52zm-3.52 404.57l3.52 84.43c3.52,45.73 21.11,63.33 73.88,63.33l168.86 0c49.25,0 73.88,-17.59 84.43,-66.84l218.11 -1111.68c14.08,-77.4 21.11,-140.72 21.11,-197.01 0,-126.65 -38.69,-207.56 -116.09,-267.36 -102.02,-80.92 -232.19,-112.58 -450.3,-112.58 -200.52,0 -429.19,38.7 -580.47,84.43 -63.33,17.59 -84.43,42.22 -73.88,105.54l21.11 165.34c7.04,49.25 31.66,66.84 77.4,56.29 144.24,-38.7 316.62,-66.84 425.68,-66.84 172.38,0 263.85,21.11 263.85,126.64 0,42.22 -10.55,98.5 -21.11,151.28l-10.55 49.25c-59.8,-3.52 -126.64,-10.55 -189.97,-10.55l-119.61 0c-372.91,0 -605.09,102.03 -693.04,386.99 -42.22,140.71 -73.88,291.99 -73.88,404.56 0,200.53 151.28,334.21 408.08,334.21l112.58 0c225.15,0 365.87,-66.84 443.26,-179.41l7.04 0zm1679.91 147.75c63.33,0 84.43,-24.62 94.99,-84.43l35.18 -179.41c14.08,-66.84 0,-87.95 -63.33,-87.95l-710.63 0 854.87 -1006.15c77.4,-91.46 112.57,-130.16 126.64,-200.52l14.07 -91.46c7.04,-56.29 -3.52,-73.88 -63.32,-73.88l-1101.14 0c-77.4,0 -87.95,21.11 -102.02,87.95l-35.18 179.42c-10.55,59.8 -10.55,84.43 66.84,84.43l615.65 0 -847.83 1009.66c-77.4,91.46 -102.02,126.65 -116.1,200.52l-14.07 73.88c-10.55,63.33 17.59,87.95 98.5,87.95l1146.86 0zm1015.03 -2170.59c31.66,-168.87 -52.77,-242.75 -197.01,-242.75l-17.58 0c-151.28,0 -263.85,73.88 -295.51,242.75l-3.52 21.1c-31.66,158.31 24.63,246.26 204.05,246.26l17.58 0c161.83,0 256.82,-87.95 288.48,-246.26l3.52 -21.1zm-147.75 534.73c10.55,-70.36 -7.04,-87.95 -84.43,-87.95l-221.63 0c-77.4,0 -102.03,17.59 -112.57,87.95l-302.55 1547.91c-14.07,70.36 3.52,87.95 80.91,87.95l221.64 0c77.4,0 102.02,-17.59 116.09,-87.95l302.55 -1547.91zm821.52 -657.86c14.08,-70.36 -3.52,-87.95 -80.91,-87.95l-221.63 0c-77.4,0 -102.02,17.59 -116.1,87.95l-348.27 1790.65c-21.11,116.1 -31.66,193.49 -31.66,270.89 0,144.24 91.46,232.19 327.17,232.19l235.7 0c59.8,0 84.43,-17.59 94.99,-84.43l35.18 -175.9c14.07,-63.32 0,-84.43 -63.33,-84.43l-105.54 0c-66.84,0 -84.43,-14.08 -84.43,-45.74 0,-35.18 7.03,-73.87 17.58,-137.2l341.24 -1766.03z"></path>
  <path class="fil1" d="M6441.75 3474.1c73.87,0 102.02,-21.11 116.09,-80.92l31.66 -144.24c21.11,-91.46 28.15,-137.2 28.15,-172.38 0,-35.18 -24.63,-45.73 -94.99,-45.73l-721.19 0c24.63,-126.64 56.29,-277.92 77.4,-355.31 14.08,-49.26 35.19,-70.37 98.5,-70.37l728.23 0c112.57,0 119.6,-21.1 137.2,-105.53l31.66 -172.38c17.59,-98.5 24.62,-137.2 24.62,-154.79 0,-35.18 -17.58,-45.73 -80.91,-45.73l-840.8 0c-369.38,0 -531.21,73.88 -633.23,446.79 -38.7,144.24 -87.95,355.31 -140.72,650.82 -80.91,464.37 -119.61,763.4 -119.61,925.23 0,193.49 91.46,253.29 351.8,253.29l918.2 0c98.5,0 123.13,-24.62 140.71,-109.06l24.63 -147.75c14.07,-87.95 21.11,-133.69 21.11,-161.83 0,-49.26 -28.15,-59.81 -91.47,-59.81l-731.73 0c-45.74,0 -63.33,-14.07 -63.33,-52.76 0,-35.19 3.52,-80.92 14.07,-147.76 10.55,-77.4 28.15,-175.9 42.22,-249.77l731.74 0zm1069.75 379.94c14.08,-21.11 21.11,-24.62 31.66,-24.62 14.08,0 21.11,14.07 28.15,35.18l175.9 450.3c24.62,63.33 45.73,87.95 126.64,87.95l351.8 0c56.3,0 84.43,-17.59 84.43,-56.29 0,-28.15 -10.55,-59.81 -70.36,-186.45l-256.82 -538.25c-7.03,-17.59 -10.55,-35.18 -10.55,-49.26 0,-31.65 14.08,-52.76 38.7,-87.95l471.41 -608.61c70.36,-94.99 94.98,-133.68 94.98,-154.79 0,-24.62 -21.11,-42.22 -66.84,-42.22l-401.05 0c-91.46,0 -112.57,14.07 -161.83,87.95l-291.99 474.93c-10.55,17.59 -21.11,24.63 -31.66,24.63 -14.08,0 -21.11,-14.08 -28.15,-35.19l-133.68 -478.44c-17.59,-66.84 -38.7,-73.88 -119.61,-73.88l-390.49 0c-56.3,0 -80.92,14.07 -80.92,52.77 0,24.62 7.04,52.77 45.73,144.24l235.71 569.91c7.03,17.59 10.55,31.66 10.55,42.22 0,38.69 -21.11,66.84 -38.7,94.98l-439.75 591.02c-105.53,140.72 -112.57,161.83 -112.57,182.94 0,28.14 24.62,45.73 59.8,45.73l439.75 0c80.92,0 109.06,-24.62 140.72,-73.88l299.03 -474.93zm1629.12 -1037.8l-7.03 0 -10.55 -70.37c-7.04,-52.77 -31.66,-66.84 -105.54,-66.84l-168.86 0c-80.9,0 -109.91,20.95 -123.14,87.95l-474.14 2400.67c-21.51,108.96 -21.11,126.65 -21.11,147.76 0,45.73 35.18,66.84 116.1,66.84l274.4 0c119.6,0 152.11,-21.61 172.37,-123.14l178.64 -894.97c77.4,38.7 228.67,70.37 344.76,70.37l17.59 0c221.63,0 376.42,-28.15 517.14,-144.24 154.79,-126.65 211.08,-341.24 263.85,-619.17 66.84,-355.31 87.95,-517.14 87.95,-601.57 0,-292 -168.87,-422.16 -481.96,-422.16l-24.62 0c-253.29,0 -422.16,59.81 -555.84,168.87l0 0zm31.66 513.62c35.18,-186.45 105.54,-239.22 253.29,-239.22l24.62 0c123.14,0 179.42,45.73 179.42,147.75 0,56.29 -24.63,214.6 -59.81,379.95 -56.29,256.81 -87.95,376.42 -299.03,376.42l-17.59 0c-123.13,0 -179.41,-35.18 -179.41,-126.65 0,-35.18 10.55,-94.98 28.15,-179.41l70.36 -358.84zm1921.1 664.9c-232.19,0 -291.99,-45.73 -291.99,-137.21 0,-31.65 3.52,-73.87 14.07,-123.13l833.76 0c73.87,0 105.53,-21.11 119.61,-98.5l17.58 -94.98c31.66,-175.9 52.77,-302.55 52.77,-401.05 0,-161.83 -45.73,-270.89 -126.65,-348.28 -105.53,-102.02 -277.92,-144.24 -488.99,-144.24l-10.55 0c-267.36,0 -460.86,52.77 -580.47,137.21 -140.72,98.5 -246.25,267.36 -320.14,633.23l-24.62 123.14c-21.11,112.57 -38.7,249.77 -38.7,369.38 0,390.5 239.22,524.18 657.86,524.18l49.26 0c211.08,0 436.22,-42.22 562.88,-80.91 77.4,-24.63 109.06,-45.74 109.06,-91.47 0,-21.11 -3.52,-63.33 -7.04,-105.53l-14.07 -161.83c-3.52,-38.7 -21.11,-59.81 -52.77,-59.81 -24.62,0 -49.25,7.04 -66.84,10.55 -105.54,24.63 -263.85,49.26 -372.91,49.26l-21.11 0zm-211.08 -626.2l10.55 -59.81c21.11,-116.09 42.22,-172.37 87.95,-214.59 38.69,-35.18 91.46,-52.77 165.34,-52.77l7.04 0c123.13,0 179.41,52.77 179.41,151.28 0,31.66 -3.52,59.8 -14.07,109.06l-7.04 31.66c-7.04,28.14 -17.59,35.18 -45.73,35.18l-383.46 0zm985.32 823.21c-14.07,70.36 -24.62,126.64 -24.62,147.75 0,42.22 28.14,63.33 102.02,63.33l327.17 0c94.99,0 116.09,-35.18 130.17,-102.02l158.31 -809.14c28.15,-151.28 59.81,-235.7 116.1,-284.96 56.29,-49.25 151.27,-73.88 284.96,-73.88l98.5 0c70.36,0 94.98,-21.1 109.06,-98.49l31.65 -172.38c14.08,-84.43 21.11,-119.61 21.11,-144.24 0,-28.15 -17.58,-38.7 -66.84,-38.7l-161.82 0c-189.98,0 -323.66,45.73 -425.68,179.42l-7.04 0 -7.03 -105.54c-3.52,-56.29 -31.66,-73.88 -102.03,-73.88l-182.93 0c-84.43,0 -112.58,24.62 -126.65,98.5l-274.4 1414.23zm2360.85 -7.04c14.07,-77.4 24.62,-133.68 24.62,-158.31 0,-45.73 -17.58,-59.81 -84.43,-59.81l-161.82 0c-102.03,0 -144.24,-14.07 -144.24,-77.4 0,-21.11 3.52,-45.73 10.55,-80.91l133.68 -689.53 291.99 0c63.33,0 87.95,-14.07 105.54,-102.02l31.66 -168.86c14.07,-70.37 21.11,-109.06 21.11,-123.14 0,-38.69 -21.11,-45.73 -73.88,-45.73l-292 0 66.85 -337.73c10.55,-66.84 -7.04,-102.02 -98.5,-102.02l-320.14 0c-94.98,0 -126.64,35.18 -137.2,102.02l-66.84 344.77 -193.49 45.73c-84.43,21.11 -98.5,45.73 -116.09,126.65l-24.63 116.09c-10.55,56.29 -14.07,80.91 -14.07,98.5 0,31.66 21.11,45.73 77.4,45.73l186.45 0 -144.24 728.22c-21.11,109.06 -28.14,182.94 -28.14,249.78 0,73.88 17.58,130.17 49.25,175.9 59.8,84.43 189.97,130.17 467.9,130.17l281.43 0c87.95,0 112.57,-28.15 133.68,-130.17l17.59 -87.95z"></path>
  <path class="fil0" d="M21694.77 2360.7c2.43,4.86 4.86,6.09 8.5,6.09l26.77 0c5.47,0 6.68,-3.65 4.86,-7.3l-51.7 -96.11c12.17,-3.03 21.9,-8.5 29.2,-15.2 12.77,-11.56 21.29,-29.8 21.29,-54.14l0 -6.68c0,-56.57 -44.4,-71.77 -91.85,-71.77 -23.1,0 -38.32,0.6 -55.96,3.04 -7.3,1.21 -10.33,4.87 -10.33,10.94l0 231.13c0,4.27 1.22,6.09 5.46,6.09l25.56 0c3.64,0 5.47,-1.82 5.47,-6.09l0 -93.66c10.33,0.61 20.07,0.61 31.63,0.61l3.03 0 48.07 93.05zm-76.03 -212.88c8.5,-1.22 15.81,-1.22 24.93,-1.22 36.5,0 51.1,13.38 51.1,41.36l0 4.87c0,14 -2.43,24.93 -10.34,32.24 -9.13,8.52 -21.29,11.55 -43.79,11.55 -9.13,0 -20.07,-0.6 -28.59,-1.82l0 -78.47c0,-4.87 1.21,-7.9 6.69,-8.51zm32.83 278.57c-108.26,0 -179.42,-69.94 -179.42,-181.86 0,-111.91 71.16,-181.86 179.42,-181.86 108.27,0 179.43,69.94 179.43,181.86 0,111.91 -71.16,181.86 -179.43,181.86zm0 38.32c130.17,0 220.19,-85.75 220.19,-220.18 0,-134.42 -90.02,-220.18 -220.19,-220.18 -130.16,0 -220.18,85.75 -220.18,220.18 0,134.42 90.02,220.18 220.18,220.18z"></path>
  <path class="fil2" d="M20893.58 4684.2c48.32,0 75.34,12.79 75.34,54.02 0,15.63 -2.85,36.95 -8.53,54.01 -15.63,45.49 -55.44,71.08 -120.82,71.08l-54.02 0 29.85 -160.62c1.42,-8.53 7.1,-14.22 15.63,-15.64 12.8,-1.42 34.12,-2.84 52.6,-2.84l9.95 0zm-555.63 365.31c29.85,0 41.22,-8.52 46.91,-32.7l12.79 -58.27c8.53,-36.95 11.38,-55.44 11.38,-69.65 0,-14.22 -9.95,-18.48 -38.38,-18.48l-291.39 0c9.95,-51.17 22.74,-112.29 31.27,-143.56 5.68,-19.9 14.21,-28.43 39.79,-28.43l294.24 0c45.49,0 48.33,-8.53 55.44,-42.64l12.8 -69.66c7.09,-39.79 9.93,-55.43 9.93,-62.54 0,-14.22 -7.09,-18.48 -32.68,-18.48l-339.73 0c-89.35,0 -148.66,10.72 -190.7,51.65 4.95,-13.49 8.66,-25.21 8.66,-31.75 0,-14.22 -12.8,-19.9 -41.23,-19.9l-139.29 0c-34.12,0 -51.18,5.68 -61.13,36.96 -83.87,248.74 -156.36,453.43 -217.48,626.85l-5.68 0c-2.84,-191.9 -5.68,-399.43 -7.1,-571.42 0,-27.01 -14.21,-36.95 -51.17,-36.95l-103.77 0c-36.96,0 -51.18,9.94 -61.11,36.95 -62.56,153.52 -159.21,389.47 -237.38,571.42l-5.68 0c5.68,-180.53 14.22,-376.69 27,-626.85 1.43,-31.28 -12.79,-36.96 -46.91,-36.96l-139.29 0c-38.38,0 -49.75,11.38 -51.18,36.96 -7.1,277.18 -2.84,577.1 14.22,838.64 1.43,31.27 17.06,44.07 68.23,44.07l130.77 0c54.01,0 75.34,-15.63 89.55,-46.91 59.69,-130.76 133.62,-304.19 200.42,-469.07l8.53 0c1.42,169.14 2.84,338.31 11.37,469.07 2.85,31.28 18.48,46.91 72.49,46.91l117.98 0c51.17,0 69.65,-12.8 85.29,-44.07 81.3,-181.6 164.95,-385.95 241.63,-582.76 -9.36,42.7 -19.38,92.65 -29.73,150.64 -32.69,187.63 -48.32,308.45 -48.32,373.84 0,78.17 36.94,102.34 142.14,102.34l817.18 0c115.75,0 262.34,-6 351.09,-90.97 68.23,-65.39 85.29,-159.21 85.29,-241.65 0,-86.7 -44.07,-135.03 -116.56,-152.09l0 -4.26c105.19,-48.34 144.98,-150.68 144.98,-255.87 0,-122.24 -83.87,-187.63 -307.03,-187.63l-21.32 0c-76.76,0 -152.1,2.84 -216.06,9.95 -39.8,4.27 -52.6,12.79 -59.71,48.33l-130.29 680.86 -433.87 0c-18.46,0 -25.58,-5.68 -25.58,-21.32 0,-14.22 1.42,-32.7 5.68,-59.69 4.27,-31.28 11.38,-71.08 17.06,-100.93l295.66 0zm414.91 -17.05l93.81 0c66.8,0 95.24,15.63 95.24,62.54 0,29.85 -2.84,52.6 -14.22,78.17 -18.48,41.23 -56.85,59.71 -130.76,59.71l-7.11 0c-18.48,0 -39.8,-1.43 -52.6,-2.85 -12.79,-1.42 -18.48,-4.27 -18.48,-12.8 0,-4.26 1.43,-14.22 5.69,-34.12l28.43 -150.66z"></path>
  <path class="fil0" d="M4399.08 986.74l6.35 6.24c321.34,317.53 520.5,758.45 520.5,1245.91 0,591.34 -296.45,1138.68 -788.28,1463.11l0 730.73 -1114.99 0 1043.35 304.11 0 173.66 -1163.02 0 849.51 311.3 0 160.45 -1024.69 0 0 -164.76 536.92 0 -904.19 -326.14 0 -161.12 1144.52 0 -1144.52 -306.67 0 -165.09 1606.42 -2.39 0 -673.96 11.68 -7.04c468.36,-282.6 755.03,-787.6 755.03,-1336.2 0,-436.63 -179.46,-831.33 -468.62,-1114.38l-5.86 -5.44c-36.53,-38.63 -34.85,-99.59 3.77,-136.11 38.63,-36.54 99.57,-34.86 136.12,3.77zm-623.71 -187.09l-42.79 -17.21c-173.36,-66.53 -361.62,-103.05 -558.41,-103.05 -861.31,0 -1559.51,698.2 -1559.51,1559.51 0,487.48 233.25,955.11 620.74,1247.3 139.24,104.96 149.74,142.87 290.02,48.75 230.13,-154.42 408.76,-410.07 546.65,-682.19l23.47 -2.65 13.66 -1.54 5.09 -12.76c27.92,-69.93 55.26,-140.09 83.12,-210.05 127.39,-64.53 265.97,-110.25 397.61,-166.34 -201.04,450.93 -547.08,967.18 -949.94,1211.15 -223.97,135.67 -253.73,156.33 -467.65,5.86 -473.79,-333.34 -755.03,-843.75 -755.03,-1437.54 0,-967.48 784.3,-1751.79 1751.78,-1751.79 241.01,0 451.7,44.89 664.13,131.76l2.25 0.92c49.68,18.01 75.34,72.86 57.35,122.52 -18.01,49.66 -72.86,75.33 -122.52,57.33zm-525.8 1643.41c12.37,-33.14 24.18,-65.83 35.46,-98.01 60.4,-45.9 119.21,-93.88 179.33,-140.84 -1.42,34.2 -2.85,68.39 -4.26,102.59 -70.1,45.54 -140.67,90.35 -210.54,136.26z"></path>
  <path class="fil3" d="M1879.67 994.2c-475.93,-114.31 -942.32,-140.24 -1379.01,-32.9 -34.22,8.41 -32.7,4.19 -3.95,23.88 305.93,209.58 631.55,404.26 997.99,588.7 67.36,33.9 90.59,-22.12 70.65,-63.66 -16.59,-34.57 -59.18,-52.86 -47.49,-76.71 112.31,-192.48 228.78,-317.35 361.8,-439.31z"></path>
  <path class="fil4" d="M1564.4 1584.89c-14.91,16.98 -44.26,1.5 -62.95,-8.07 28.4,12.95 51.87,-40.79 28.08,-65.31 -23.19,-23.92 -22.48,-56.44 -15.38,-65.74 8.03,-9.79 73.08,39.08 69.08,60.2 -3.34,17.6 -12.28,68.42 -18.84,78.92z"></path>
  <path class="fil5" d="M2579.55 1969.21c-51.33,58.47 -152.34,5.21 -216.7,-27.77 183.75,76.53 53.27,-211.62 123.39,-280.31 31.6,-38.56 275.03,-8.38 234.4,62.36l-141.1 245.71z"></path>
  <path class="fil6" d="M1521.79 1426.58c-10.31,15.61 -14.56,38.17 12.39,54.43l654.82 369.6c53.27,26.77 105.06,56.92 157.48,83.08 131.27,65.71 164.84,-23.51 126.36,-117.31 -13.78,-33.62 -6.61,-122.7 12.19,-151.16l327.6 -587.83c-325.76,-117.64 -642.82,-228.13 -796.42,-202.24 -149.97,56.94 -432.75,415.56 -494.41,551.43z"></path>
  <path class="fil7" d="M1704.97 1345.1c0,0 426.95,-227.93 837.76,-255.94l174.44 159.57 -199.71 399.55 0 0.03c-12.5,1.95 -23.43,7.42 -32.44,16.91 -7.96,11.23 -11.74,28.54 -13.35,49.29l-0.04 0.05 -159.25 87.32c-186.23,-178.84 -371.38,-319.49 -607.43,-456.78z"></path>
  <path class="fil8" d="M2415.16 1159.14c116.1,0 215.21,72.67 254.39,174.97l-184.52 331.1c-5.64,7.99 -9.2,19.09 -11.38,32.27 -18.83,4.13 -38.42,6.3 -58.49,6.3 -150.39,0 -272.32,-121.93 -272.32,-272.32 0,-150.39 121.93,-272.32 272.32,-272.32zm70.01 505.93c7.18,-10.61 17.54,-16.79 32.39,-16.79 -12.5,1.94 -23.38,7.39 -32.39,16.79zm34.34 -17.07c7.52,-6.21 24.76,-2.52 48.84,7.42 -18.16,-6.49 -34.54,-9.18 -48.84,-7.42zm49.66 7.76l0.26 0.11 -0.03 0.03 -0.23 -0.14z"></path>
  <path class="fil9" d="M2627.35 1409.85l-46.72 83.87c-130.19,-58.13 -275.14,-87.43 -436.88,-84.43 2.85,-35.53 12.53,-69.11 27.72,-99.46 161.52,-11.35 313.59,21.47 455.89,100.02z"></path>
  <path class="fil10" d="M2171.08 1365.62c-0.16,-3.37 0.21,-6.22 1.07,-8.56 0.64,-1.72 1.55,-3.29 2.73,-4.68 1.17,-1.4 2.48,-2.45 3.92,-3.19 1.91,-0.96 4.16,-1.5 6.7,-1.62 4.63,-0.22 8.38,1.13 11.29,4.02 2.9,2.89 4.47,7.05 4.7,12.44 0.23,5.34 -0.98,9.59 -3.6,12.74 -2.61,3.16 -6.24,4.84 -10.84,5.05 -4.66,0.23 -8.43,-1.1 -11.32,-3.98 -2.87,-2.87 -4.42,-6.95 -4.64,-12.23zm6.5 -0.53c0.16,3.75 1.11,6.54 2.83,8.41 1.73,1.86 3.85,2.73 6.38,2.61 2.53,-0.12 4.56,-1.18 6.11,-3.18 1.54,-2 2.22,-4.92 2.06,-8.75 -0.16,-3.8 -1.07,-6.59 -2.74,-8.38 -1.65,-1.8 -3.78,-2.64 -6.4,-2.51 -2.61,0.12 -4.68,1.17 -6.2,3.13 -1.52,1.97 -2.21,4.85 -2.04,8.66zm29.58 15.52l-0.34 -33.09 13.33 -0.15c3.35,-0.05 5.79,0.23 7.31,0.81 1.53,0.58 2.76,1.62 3.68,3.12 0.93,1.52 1.41,3.24 1.44,5.2 0.02,2.49 -0.65,4.55 -2,6.18 -1.36,1.63 -3.41,2.67 -6.15,3.13 1.37,0.82 2.51,1.73 3.4,2.73 0.91,1.01 2.11,2.79 3.64,5.35l3.9 6.41 -7.58 0.08 -4.61 -7.17c-1.66,-2.55 -2.78,-4.16 -3.39,-4.81 -0.61,-0.66 -1.25,-1.11 -1.93,-1.35 -0.68,-0.25 -1.74,-0.36 -3.19,-0.34l-1.29 0.01 0.15 13.82 -6.35 0.07zm6.15 -19.16l4.68 -0.05c3.04,-0.03 4.93,-0.19 5.68,-0.48 0.75,-0.27 1.35,-0.75 1.77,-1.42 0.42,-0.66 0.62,-1.5 0.61,-2.5 -0.01,-1.12 -0.3,-2 -0.88,-2.69 -0.56,-0.68 -1.36,-1.1 -2.39,-1.27 -0.52,-0.06 -2.06,-0.08 -4.62,-0.05l-4.94 0.05 0.09 8.41zm26.23 -14.26l11.54 0.29c2.6,0.07 4.58,0.33 5.93,0.79 1.83,0.61 3.38,1.67 4.65,3.17 1.28,1.49 2.23,3.3 2.87,5.44 0.62,2.12 0.91,4.75 0.84,7.84 -0.06,2.73 -0.44,5.06 -1.14,7.01 -0.83,2.39 -2,4.3 -3.48,5.76 -1.13,1.1 -2.62,1.94 -4.49,2.53 -1.41,0.44 -3.28,0.62 -5.62,0.56l-11.87 -0.3 0.76 -33.08zm6.22 5.76l-0.5 21.9 4.71 0.12c1.76,0.05 3.04,-0.04 3.83,-0.21 1.03,-0.25 1.89,-0.69 2.57,-1.32 0.7,-0.63 1.26,-1.68 1.73,-3.14 0.46,-1.47 0.71,-3.5 0.78,-6.05 0.06,-2.55 -0.11,-4.52 -0.5,-5.9 -0.4,-1.37 -0.97,-2.46 -1.73,-3.25 -0.74,-0.78 -1.69,-1.33 -2.87,-1.63 -0.87,-0.23 -2.61,-0.38 -5.17,-0.45l-2.83 -0.06zm24.64 28.37l1.88 -33.04 23.17 1.46 -0.31 5.58 -16.83 -1.06 -0.42 7.34 15.65 0.99 -0.31 5.58 -15.65 -0.99 -0.5 8.94 17.44 1.1 -0.32 5.58 -23.78 -1.5zm29.12 1.96l3 -32.94 9.47 0.96 3.55 23.03 7.57 -21.9 9.49 0.96 -3 32.94 -5.83 -0.59 2.33 -25.94 -8.5 25.31 -6.08 -0.61 -3.76 -26.56 -2.39 25.93 -5.84 -0.59zm48.29 5.73l4.71 -32.72 22.94 3.68 -0.79 5.53 -16.67 -2.67 -1.05 7.27 15.51 2.49 -0.81 5.53 -15.5 -2.49 -1.27 8.86 17.26 2.77 -0.79 5.53 -23.55 -3.78zm40.92 7.13l6.43 -32.4 9.94 2.2c3.76,0.83 6.17,1.53 7.26,2.11 1.67,0.87 2.92,2.25 3.79,4.15 0.86,1.89 1.03,4.13 0.52,6.7 -0.4,2 -1.07,3.59 -2.01,4.8 -0.95,1.2 -2.03,2.07 -3.23,2.62 -1.21,0.54 -2.38,0.81 -3.52,0.82 -1.54,-0.02 -3.71,-0.33 -6.51,-0.95l-4.03 -0.89 -2.42 12.21 -6.22 -1.36zm11.56 -25.55l-1.83 9.23 3.37 0.75c2.44,0.54 4.1,0.71 4.98,0.57 0.9,-0.16 1.64,-0.55 2.26,-1.18 0.59,-0.62 1.01,-1.41 1.2,-2.37 0.23,-1.18 0.09,-2.22 -0.4,-3.14 -0.51,-0.92 -1.24,-1.58 -2.21,-2 -0.7,-0.31 -2.17,-0.7 -4.39,-1.2l-2.97 -0.66zm17.19 32.14l7.54 -32.12 12.93 3.38c3.26,0.85 5.56,1.76 6.89,2.73 1.35,0.95 2.28,2.29 2.83,3.99 0.53,1.71 0.58,3.51 0.14,5.41 -0.57,2.42 -1.7,4.23 -3.41,5.45 -1.71,1.23 -3.94,1.68 -6.7,1.41 1.14,1.15 2.01,2.33 2.65,3.54 0.63,1.21 1.39,3.25 2.25,6.13l2.25 7.23 -7.36 -1.92 -2.76 -8.16c-1,-2.91 -1.7,-4.76 -2.14,-5.57 -0.43,-0.8 -0.94,-1.4 -1.54,-1.81 -0.6,-0.41 -1.61,-0.81 -3.03,-1.18l-1.24 -0.32 -3.15 13.42 -6.17 -1.61zm10.52 -16.92l4.54 1.19c2.95,0.77 4.81,1.12 5.61,1.03 0.8,-0.06 1.48,-0.38 2.04,-0.91 0.58,-0.53 0.96,-1.28 1.2,-2.25 0.25,-1.09 0.17,-2.02 -0.22,-2.84 -0.38,-0.81 -1.06,-1.43 -2,-1.87 -0.49,-0.2 -1.98,-0.62 -4.47,-1.28l-4.79 -1.24 -1.91 8.17zm23.21 8.79c0.88,-3.23 2.1,-5.82 3.62,-7.75 1.12,-1.41 2.45,-2.59 3.99,-3.52 1.54,-0.92 3.08,-1.48 4.68,-1.69 2.11,-0.27 4.38,-0.03 6.85,0.71 4.44,1.35 7.6,3.89 9.48,7.61 1.87,3.72 2.1,8.18 0.69,13.37 -1.41,5.14 -3.83,8.76 -7.26,10.87 -3.44,2.11 -7.38,2.49 -11.8,1.14 -4.49,-1.35 -7.66,-3.88 -9.53,-7.58 -1.86,-3.7 -2.1,-8.07 -0.71,-13.16zm6.33 1.69c-0.98,3.61 -0.92,6.57 0.15,8.92 1.07,2.34 2.82,3.89 5.25,4.62 2.43,0.74 4.68,0.41 6.75,-0.95 2.06,-1.39 3.59,-3.91 4.6,-7.61 0.99,-3.65 0.98,-6.61 -0.05,-8.86 -1.03,-2.26 -2.79,-3.77 -5.31,-4.53 -2.52,-0.76 -4.79,-0.46 -6.83,0.89 -2.03,1.35 -3.55,3.85 -4.55,7.52zm40.84 17.94l1.65 -5.32 12.94 4.48 -3.91 12.55c-1.65,0.85 -3.82,1.36 -6.53,1.52 -2.68,0.16 -5.26,-0.18 -7.73,-1.03 -3.11,-1.08 -5.61,-2.7 -7.49,-4.9 -1.89,-2.18 -3,-4.77 -3.38,-7.73 -0.37,-2.97 -0.07,-5.98 0.86,-9 1.02,-3.28 2.57,-5.97 4.67,-8.07 2.1,-2.1 4.6,-3.4 7.52,-3.9 2.25,-0.38 4.77,-0.08 7.62,0.9 3.71,1.28 6.34,3.11 7.92,5.46 1.56,2.36 2.19,5.08 1.89,8.19l-6.36 -0.89c0.05,-1.69 -0.35,-3.19 -1.23,-4.49 -0.88,-1.29 -2.18,-2.24 -3.91,-2.84 -2.63,-0.91 -4.99,-0.75 -7.09,0.49 -2.1,1.23 -3.68,3.57 -4.75,7.03 -1.16,3.74 -1.25,6.82 -0.27,9.23 1,2.41 2.76,4.06 5.3,4.94 1.25,0.43 2.6,0.59 4.02,0.52 1.44,-0.08 2.72,-0.34 3.85,-0.78l1.24 -3.99 -6.87 -2.37zm14.83 18.43l10.85 -31.05 12.51 4.87c3.15,1.23 5.33,2.4 6.55,3.51 1.24,1.11 2.04,2.55 2.4,4.3 0.35,1.77 0.21,3.56 -0.43,5.39 -0.81,2.33 -2.13,4.01 -3.95,5.02 -1.82,1.02 -4.08,1.23 -6.81,0.62 1.02,1.28 1.76,2.55 2.26,3.83 0.5,1.28 1.03,3.4 1.61,6.36l1.46 7.45 -7.1 -2.76 -1.89 -8.44c-0.7,-3 -1.21,-4.92 -1.56,-5.77 -0.34,-0.85 -0.79,-1.51 -1.34,-1.99 -0.55,-0.49 -1.51,-0.99 -2.88,-1.52l-1.2 -0.48 -4.53 12.97 -5.96 -2.32zm12.22 -15.59l4.38 1.71c2.86,1.11 4.67,1.67 5.46,1.68 0.81,0.03 1.52,-0.2 2.13,-0.66 0.62,-0.47 1.09,-1.17 1.42,-2.11 0.37,-1.04 0.39,-1.99 0.08,-2.85 -0.29,-0.84 -0.9,-1.54 -1.8,-2.09 -0.46,-0.26 -1.89,-0.85 -4.3,-1.78l-4.62 -1.8 -2.76 7.89zm17.16 27.25l11.92 -30.61 21.47 9.31 -2.01 5.17 -15.6 -6.76 -2.65 6.79 14.5 6.29 -2.01 5.17 -14.5 -6.28 -3.22 8.28 16.16 7 -2.02 5.18 -22.03 -9.56zm29.66 1.64l5.89 2.11c-0.51,2.14 -0.46,3.92 0.17,5.35 0.62,1.42 1.81,2.55 3.56,3.39 1.85,0.89 3.43,1.14 4.72,0.76 1.29,-0.38 2.18,-1.13 2.65,-2.23 0.31,-0.72 0.37,-1.41 0.19,-2.11 -0.17,-0.69 -0.69,-1.45 -1.51,-2.29 -0.57,-0.57 -1.9,-1.74 -4.04,-3.52 -2.73,-2.29 -4.46,-4.31 -5.19,-6.1 -1.03,-2.5 -1.03,-4.94 -0.01,-7.33 0.66,-1.54 1.69,-2.79 3.09,-3.73 1.39,-0.94 3.02,-1.39 4.86,-1.35 1.85,0.03 3.87,0.58 6.06,1.62 3.57,1.7 5.9,3.83 6.98,6.37 1.09,2.54 1.07,5.22 -0.04,8.06l-5.88 -2.55c0.43,-1.68 0.38,-3.04 -0.13,-4.1 -0.51,-1.07 -1.57,-2 -3.19,-2.76 -1.67,-0.8 -3.12,-1.05 -4.37,-0.77 -0.81,0.18 -1.39,0.66 -1.72,1.45 -0.31,0.71 -0.28,1.46 0.06,2.24 0.45,1 1.92,2.52 4.41,4.55 2.51,2.03 4.26,3.75 5.27,5.14 1.03,1.39 1.64,2.91 1.84,4.58 0.2,1.66 -0.1,3.44 -0.92,5.34 -0.75,1.73 -1.89,3.14 -3.44,4.2 -1.57,1.07 -3.33,1.58 -5.31,1.53 -1.99,-0.06 -4.21,-0.69 -6.69,-1.88 -3.61,-1.72 -6,-3.94 -7.19,-6.62 -1.19,-2.67 -1.23,-5.79 -0.17,-9.33zm26.9 13.16l5.8 2.32c-0.59,2.13 -0.59,3.9 -0.01,5.35 0.58,1.45 1.73,2.63 3.44,3.52 1.81,0.95 3.39,1.26 4.7,0.93 1.3,-0.34 2.22,-1.04 2.72,-2.13 0.34,-0.7 0.42,-1.4 0.27,-2.1 -0.15,-0.69 -0.63,-1.47 -1.42,-2.33 -0.55,-0.59 -1.85,-1.82 -3.92,-3.67 -2.65,-2.39 -4.31,-4.48 -4.98,-6.29 -0.95,-2.54 -0.88,-4.98 0.24,-7.33 0.7,-1.51 1.78,-2.72 3.21,-3.62 1.43,-0.89 3.07,-1.28 4.92,-1.17 1.85,0.11 3.84,0.72 6,1.85 3.51,1.84 5.78,4.06 6.76,6.64 1.01,2.58 0.89,5.25 -0.3,8.06l-5.79 -2.77c0.49,-1.66 0.49,-3.02 0.01,-4.11 -0.48,-1.09 -1.5,-2.04 -3.09,-2.87 -1.63,-0.86 -3.08,-1.17 -4.34,-0.94 -0.81,0.16 -1.4,0.61 -1.77,1.39 -0.33,0.7 -0.33,1.45 -0.01,2.24 0.41,1.01 1.83,2.58 4.26,4.71 2.44,2.12 4.12,3.91 5.1,5.33 0.97,1.43 1.53,2.97 1.68,4.64 0.16,1.67 -0.22,3.43 -1.1,5.3 -0.8,1.7 -2,3.07 -3.58,4.07 -1.61,1.01 -3.39,1.46 -5.35,1.33 -1.98,-0.15 -4.18,-0.85 -6.63,-2.13 -3.55,-1.86 -5.87,-4.16 -6.96,-6.88 -1.09,-2.72 -1.03,-5.83 0.16,-9.33zm29.26 9.3c1.52,-2.97 3.23,-5.22 5.11,-6.76 1.38,-1.13 2.92,-1.98 4.61,-2.54 1.69,-0.56 3.32,-0.75 4.92,-0.59 2.11,0.22 4.29,0.96 6.54,2.25 4.06,2.32 6.64,5.51 7.72,9.57 1.07,4.05 0.38,8.46 -2.05,13.21 -2.41,4.71 -5.51,7.7 -9.29,8.98 -3.79,1.28 -7.71,0.76 -11.76,-1.56 -4.11,-2.34 -6.69,-5.52 -7.76,-9.56 -1.06,-4.03 -0.41,-8.36 1.97,-13.02zm5.84 3.08c-1.69,3.3 -2.24,6.21 -1.67,8.74 0.57,2.53 1.97,4.43 4.19,5.7 2.22,1.27 4.49,1.46 6.78,0.59 2.29,-0.9 4.3,-3.01 6.04,-6.39 1.7,-3.35 2.29,-6.24 1.73,-8.67 -0.54,-2.44 -1.96,-4.31 -4.27,-5.63 -2.29,-1.31 -4.58,-1.53 -6.84,-0.68 -2.26,0.87 -4.25,2.97 -5.98,6.33z"></path>
  <polygon class="fil9" points="2184.92,1423.78 2186.6,1434.27 2196.33,1435.72 2187.64,1440.7 2189.37,1451.18 2182.32,1443.76 2173.65,1448.78 2177.97,1439.23 2170.89,1431.84 2180.62,1433.34 "></polygon>
  <polygon class="fil9" points="2313.16,1433.67 2314.85,1444.16 2324.59,1445.63 2315.9,1450.59 2317.63,1461.07 2310.57,1453.67 2301.9,1458.67 2306.22,1449.13 2299.14,1441.74 2308.88,1443.25 "></polygon>
  <polygon class="fil9" points="2502.6,1328.54 2504.27,1339.02 2514,1340.49 2505.33,1345.46 2507.04,1355.93 2499.99,1348.52 2491.32,1353.53 2495.66,1343.98 2488.57,1336.61 2498.3,1338.11 "></polygon>
  <polygon class="fil9" points="2221.81,1493.01 2223.5,1503.5 2233.24,1504.95 2224.55,1509.93 2226.28,1520.41 2219.22,1512.99 2210.55,1518.01 2214.88,1508.46 2207.8,1501.07 2217.53,1502.57 "></polygon>
  <polygon class="fil9" points="2308.35,1579.41 2310.05,1589.88 2319.78,1591.35 2311.09,1596.33 2312.81,1606.8 2305.76,1599.38 2297.1,1604.4 2301.42,1594.84 2294.34,1587.48 2304.06,1588.98 "></polygon>
  <polygon class="fil9" points="2417.98,1556.51 2419.66,1566.99 2429.39,1568.45 2420.72,1573.43 2422.43,1583.9 2415.38,1576.49 2406.71,1581.5 2411.04,1571.95 2403.97,1564.58 2413.69,1566.07 "></polygon>
  <polygon class="fil9" points="2449.71,1496.13 2451.39,1506.6 2461.13,1508.07 2452.44,1513.05 2454.16,1523.52 2447.11,1516.11 2438.44,1521.12 2442.77,1511.57 2435.69,1504.19 2445.41,1505.7 "></polygon>
  <polygon class="fil9" points="2609.32,1526.32 2611.01,1536.79 2620.74,1538.26 2612.06,1543.23 2613.78,1553.71 2606.72,1546.3 2598.05,1551.31 2602.38,1541.76 2595.31,1534.38 2605.03,1535.89 "></polygon>
  <polygon class="fil9" points="2647.47,1533.1 2649.67,1539.38 2655.86,1539.02 2651.04,1543.23 2653.28,1549.5 2648.07,1545.83 2643.25,1550.06 2644.87,1543.58 2639.67,1539.93 2645.86,1539.6 "></polygon>
  <polygon class="fil9" points="2620.48,1555.25 2622.7,1561.53 2628.88,1561.17 2624.05,1565.39 2626.29,1571.65 2621.09,1567.98 2616.27,1572.22 2617.89,1565.73 2612.69,1562.08 2618.88,1561.74 "></polygon>
  <polygon class="fil9" points="2603.16,1580.24 2605.37,1586.51 2611.56,1586.16 2606.74,1590.37 2608.97,1596.63 2603.78,1592.96 2598.96,1597.2 2600.58,1590.72 2595.37,1587.07 2601.57,1586.73 "></polygon>
  <polygon class="fil9" points="2580.81,1595.6 2583.01,1601.87 2589.21,1601.51 2584.38,1605.72 2586.62,1611.99 2581.42,1608.32 2576.61,1612.56 2578.23,1606.07 2573.01,1602.41 2579.21,1602.09 "></polygon>
  <polygon class="fil9" points="2552.68,1589.61 2554.89,1595.88 2561.08,1595.51 2556.26,1599.73 2558.49,1606 2553.29,1602.33 2548.48,1606.57 2550.1,1600.08 2544.89,1596.44 2551.09,1596.09 "></polygon>
  <polygon class="fil9" points="2521.91,1598.98 2524.12,1605.25 2530.32,1604.9 2525.49,1609.11 2527.72,1615.38 2522.53,1611.71 2517.72,1615.94 2519.33,1609.45 2514.12,1605.81 2520.32,1605.47 "></polygon>
  <polygon class="fil9" points="2476.69,1591.7 2478.91,1597.98 2485.1,1597.6 2480.28,1601.83 2482.51,1608.09 2477.31,1604.42 2472.5,1608.65 2474.11,1602.17 2468.91,1598.52 2475.11,1598.18 "></polygon>
  <polygon class="fil9" points="2417.37,1662.92 2418.67,1666.61 2422.32,1666.4 2419.47,1668.9 2420.79,1672.6 2417.72,1670.43 2414.88,1672.93 2415.84,1669.1 2412.75,1666.94 2416.42,1666.75 "></polygon>
  <polygon class="fil9" points="2245.11,1483.66 2246.42,1487.37 2250.07,1487.15 2247.22,1489.64 2248.53,1493.34 2245.48,1491.18 2242.63,1493.68 2243.58,1489.85 2240.51,1487.7 2244.17,1487.5 "></polygon>
  <polygon class="fil9" points="2266.72,1556.58 2268.93,1562.85 2275.12,1562.5 2270.29,1566.71 2272.53,1572.97 2267.33,1569.3 2262.51,1573.53 2264.13,1567.05 2258.92,1563.41 2265.12,1563.07 "></polygon>
  <polygon class="fil9" points="2273.7,1527.31 2275.91,1533.59 2282.1,1533.22 2277.27,1537.44 2279.51,1543.7 2274.31,1540.03 2269.5,1544.26 2271.11,1537.78 2265.9,1534.14 2272.11,1533.8 "></polygon>
  <polygon class="fil9" points="2183.3,1523.14 2185.52,1529.42 2191.72,1529.06 2186.88,1533.28 2189.12,1539.54 2183.92,1535.87 2179.1,1540.11 2180.72,1533.62 2175.51,1529.97 2181.71,1529.62 "></polygon>
  <polygon class="fil9" points="2402.15,1523.96 2403.46,1527.67 2407.12,1527.45 2404.27,1529.94 2405.59,1533.64 2402.52,1531.47 2399.67,1533.98 2400.63,1530.15 2397.56,1527.99 2401.21,1527.79 "></polygon>
  <polygon class="fil9" points="2388.6,1500.24 2390.81,1506.51 2397.01,1506.15 2392.18,1510.36 2394.41,1516.63 2389.21,1512.96 2384.39,1517.19 2386.02,1510.71 2380.82,1507.07 2387,1506.73 "></polygon>
  <polygon class="fil9" points="2416,1473.69 2418.22,1479.97 2424.41,1479.61 2419.58,1483.83 2421.82,1490.09 2416.62,1486.42 2411.81,1490.66 2413.42,1484.17 2408.21,1480.52 2414.4,1480.18 "></polygon>
  <path class="fil11" d="M3308.29 1828.26c20.3,-217.26 56.48,-460.54 155.29,-657.43 42.35,-84.4 -36.08,-89.53 -36.08,-89.53 -188.45,-9.12 -306.2,-46.65 -474.31,-104.15 -73.99,-25.31 -115.75,31.83 -135.37,62.07 -37.83,73.03 -268.32,468.11 -334.14,628.07l0.02 0.03c41.09,-61.67 207.07,39.45 379.54,135.11l17.94 -89.74 479.08 -386.29 -121.19 547.73 -135.8 43.75c110.28,37.57 193.88,29.38 205,-89.61z"></path>
  <path class="fil12" d="M2569.17 1491.76c78.99,-26.1 499.85,-37.97 502.14,-42.13 15.87,-28.86 -210.89,-382.52 -248.8,-417.71 -86.01,151.51 -170.93,304.26 -253.34,459.84z"></path>
  <path class="fil13" d="M1603.52 1722.33c5.8,1.24 15.81,5.38 22.05,7.42 0.35,-0.24 0.71,-0.49 1.07,-0.7 -0.04,0.08 0.1,0.23 0.06,0.32 0.93,-0.25 1.56,-0.36 1.31,-1.29 0.38,0.03 0.84,0.17 1.25,0.26 2.31,-1.32 -0.34,-9.49 -0.57,-11.92 -50.47,-18.56 -165.4,-82.56 -245.36,-112.59 -43.24,-17.61 -88.55,-32.1 -132.02,-49.27 -51.02,-22.87 -82.87,-74.4 -136.23,-92.19 -33.26,-17.15 -67.93,-36.42 -101.58,-52.63 -0.11,0.16 -0.23,0.35 -0.36,0.54 0.01,-0.03 0.01,-0.07 0.05,-0.09 0,0 -0.5,0.72 -0.77,1.08 -0.16,-0.09 -2.67,-1.35 -2.76,-1.21 0.09,-0.14 2.61,1.12 2.76,1.21 -0.6,0.42 -1.11,1.16 -1.5,1.72 11.74,-1.06 10.92,-0.97 0,0 -11.48,15.43 113.53,75.33 128.42,83.27 0.22,0.16 0.43,0.29 0.66,0.45 -122.34,-65.65 -153.8,-82.51 -285.98,-132.35 0,0 -0.05,0.08 -0.05,0.08 -0.17,-0.08 4.81,-8.2 4.81,-8.2 -0.08,-0.03 -5.46,7.88 -5.55,7.83 6.5,-0.08 7.07,-0.2 0.25,0.12 26.27,9.57 61.26,9.52 88.21,18.44 -0.52,-0.03 -1.06,-0.05 -1.6,-0.1 1.83,0.11 3.63,0.21 5.45,0.3 -17.82,-0.74 0,0 6.08,0.29 0,0.02 -0.05,0.05 -0.05,0.08 2.44,0.07 -8.49,-2.99 -8.49,-2.99 1.08,0.02 3.25,0.1 3.25,0.1 -1.41,-0.1 -2.94,-0.06 -4.36,-0.45 0.36,-0.04 1.03,-0.01 1.03,-0.01 -2.57,-0.12 -9.82,-2.8 -12.65,-3.67 1.25,0.05 2.51,0.16 3.77,0.27 3.34,0.75 24.51,7.93 25.46,7.62 -0.13,-0.27 -55.98,-23.2 -59.02,-24.44 -0.66,0.43 -1.29,0.82 -2.11,1.1 -1.82,-0.84 -3.73,-1.6 -5.55,-2.45 0.96,-0.25 1.85,-0.54 2.84,-0.73 -0.09,-0.01 -0.2,-0.04 -0.3,-0.04 -0.91,0.29 -1.92,0.42 -2.86,0.73 -2.16,-1.02 -4.38,-1.96 -6.58,-2.89 0.26,-0.02 0.75,-0.12 0.88,-0.28 -0.49,0.04 -0.95,0.07 -1.44,0.11 1.05,-0.21 2.09,-0.4 3.09,-0.6 -66.97,-27.75 -138.94,-48.11 -205.38,-76.85 -3.18,-2.43 -9.52,-7.87 -12.54,-9.71 -3.78,-2.31 -10.98,-8.41 -14.79,-11.35 -83.98,-43.69 -175.2,-96.31 -261.96,-137.22 93.52,46.34 183.37,102.17 274.9,151.16 2.4,1.32 4.84,2.65 7.24,4.02 -2.25,-0.98 -5.66,-2.47 -7.72,-3.36 -26.42,-11.45 -52.64,-23.22 -78.91,-34.89 1.94,1.02 3.92,2.03 5.94,2.98 -3.03,-1.24 -6,-2.59 -8.97,-3.93 20.81,10.82 41.6,21.66 62.33,32.59 -22.12,-9.63 -44.63,-24.74 -66.89,-34.67 17.77,9.53 35.69,18.98 53.3,28.74 -4.98,-2.29 -10.01,-4.48 -15.04,-6.69 2.66,1.39 5.31,2.77 7.95,4.15 -3.62,-1.78 -7.22,-3.55 -10.78,-5.41 -1.61,-0.73 -7.22,-8.27 -8.84,-9.01 -3.94,-2.06 -3.92,2.66 -7.86,0.62 -5.69,-2.87 -11.45,-5.67 -17.14,-8.53 8.01,4.19 16.05,8.38 24.01,12.62 -7.95,-3.6 -16.31,-8.77 -24.27,-12.75 -20.33,-10.16 -30.11,-36.15 -50.45,-46.3 -18.35,-8.24 -47.32,-0.52 -65.61,-8.87 21.59,11.47 53.87,6.93 75.47,18.38 -1.97,-0.92 -18.45,7.2 -20.48,6.37 -22.17,-11.74 -44.33,-23.46 -66.45,-35.21 -46.22,-20.82 6.27,-10.84 23.86,-0.45 -38.03,-19.69 -22.84,8.71 -58.48,-10.6 -6.46,-3.04 -7.53,-14.14 -13.9,-17.3 -14.01,-8.03 -33.23,-8.49 -46.28,-17.5 6.32,3.47 23.27,-8.94 29.61,-5.46 14.21,8.38 18.51,31.87 32.74,40.24 1.46,0.71 22.73,11.14 13.19,6.18 9.63,4.79 29.86,-6.31 39.48,-1.51 -1.39,-0.71 -13.38,14.47 -14.77,13.75 17.29,7.77 34.56,15.58 51.86,23.33 10.22,5.01 31.22,-6.25 41.59,-1.55 13.3,6.49 15.64,29.91 28.85,36.62 -13.14,-6.94 -15.7,-29.71 -28.85,-36.62 2.09,0.96 4.2,1.84 6.26,2.81 16.77,8.83 22.92,33.56 39.73,42.35 6.41,3.32 12.88,6.74 19.53,9.65 -20.98,-11.07 -31.45,-37.94 -52.48,-48.97 8.28,3.68 5.95,23.25 14.22,26.92 -1.64,-0.84 -3.26,-1.7 -4.9,-2.54 3.17,1.54 6.32,3.07 9.46,4.61 -1.78,-0.93 -3.59,-1.88 -5.37,-2.81 2.81,1.24 5.6,2.5 8.4,3.75 -19.1,-9.84 -31.51,-42.44 -50.66,-52.19 -56.63,-30.09 -120.02,-37.37 -176.28,-67.94 0.23,0.26 0.41,0.44 0.69,0.68 -0.97,-0.72 -7.83,-4.03 -6.37,-4.92 -8.62,-6.58 -17.28,-13.18 -25.89,-19.77 7.69,5.8 21.45,3.53 28.93,9.3 0,0 -17.92,-2.31 -24.46,-7.25 -44.83,-33.59 -85.89,-23 -142.71,-49.47 -32.12,-14.96 -74.12,-27.72 -109.1,-33.07 -16.5,-8.69 -32.9,-16.92 -49.71,-25.13 -56.25,-23.25 -32.37,-13.34 -0.07,0.2 15.96,7.17 33.55,16.75 48.98,24.89 -1.68,-0.25 -3.35,-0.46 -5.03,-0.51 -44.54,-22.99 -65.81,-34.01 0,0 -1.17,-0.04 -2.55,-0.09 -3.03,0.82 -59.76,-26.86 -47.22,-12.41 -15.78,11.31 54.94,27.74 126.91,62.07 174.89,92.3 39.44,23.27 76.82,49.66 115.92,73.33 48.64,26.43 116.44,24.17 161.14,54.89 33.97,16.1 70.78,32.18 103.98,49.03 -0.11,0.17 -0.23,0.37 -0.35,0.55 0.02,-0.03 0.05,-0.05 0.06,-0.07 0,0 -0.48,0.71 -0.71,1.09 0.17,0.09 2.69,1.32 2.61,1.46 0.08,-0.14 -2.43,-1.36 -2.61,-1.46 -0.12,0.69 -0.61,1.41 -0.98,2 -4.83,-9.27 -4.51,-8.61 0,0 -9.7,16.29 -132.78,-46.51 -148.25,-53.57 -0.27,-0.09 -0.52,-0.18 -0.78,-0.27 127.49,57.92 160.26,72.82 276.85,146 0,0 -0.06,0.09 -0.06,0.09 0.16,0.07 5.81,-7.72 5.81,-7.72 0.07,0.05 -5.15,8.02 -5.06,8.06 -3.19,-4.88 -3.33,-5.35 -0.26,-0.12 -22.82,-14.71 -40.38,-40.75 -62.92,-56.3 0.3,0.38 0.61,0.76 0.9,1.14 -1.01,-1.32 -2.03,-2.6 -3.02,-3.92 9.69,12.9 0,0 -3.36,-4.36 -0.01,0.01 -0.03,0.06 -0.05,0.07 -1.32,-1.78 7.27,4.82 7.27,4.82 -0.56,-0.81 -1.74,-2.37 -1.74,-2.37 0.81,0.99 1.55,2.14 2.64,3 -0.13,-0.28 -0.49,-0.77 -0.49,-0.77 1.42,1.86 7.75,5.9 10.05,7.57 -0.69,-0.92 -1.42,-1.78 -2.17,-2.67 -2.43,-2.11 -20.3,-14.23 -20.46,-15.09 0.33,-0.03 51.47,29.95 54.25,31.58 -0.11,0.71 -0.18,1.37 -0.04,2.12 1.76,0.93 3.49,1.96 5.25,2.89 -0.24,-0.83 -0.38,-1.64 -0.7,-2.48 0.07,0.07 0.14,0.14 0.19,0.2 0.16,0.83 0.54,1.64 0.71,2.48 2.1,1.11 4.16,2.28 6.2,3.46 -0.1,-0.21 -0.27,-0.61 -0.15,-0.81 0.2,0.38 0.4,0.75 0.59,1.12 -0.31,-0.87 -0.64,-1.75 -0.95,-2.58 61.58,35.81 118.26,79.08 180.57,114.01 4.04,1.14 12.7,3.11 16.06,4.43 4.21,1.66 13.99,3.94 18.85,5.3 73.08,34.3 155.27,69.27 230.25,105.9l4.47 1c9.44,3.49 18.88,6.96 28.33,10.42 -1.05,-0.3 -2.1,-0.6 -3.17,-0.81 8.59,3.96 15.85,5.73 24.75,8.29 0.69,0.18 10.02,2.23 5.5,2.84 -2.79,-0.19 -5.74,-1.62 -8.77,-1.51 96.14,18.75 247.08,61.64 373.55,114.41zm-658.97 -233.06c18.72,8.56 37.52,17.01 56.41,25.27l0.4 0.03c-19.7,-8.65 -39.33,-17.48 -58.86,-26.44l2.05 1.14zm72.53 32.29l6.54 2.81 0.19 -0.05 -6.42 -2.76 -0.31 0zm10.39 4.47l2.99 1.27 0.24 -0.02 -2.87 -1.24 -0.37 -0.01zm3.1 1.32l14.43 6.11 0.36 0.03 -14.53 -6.16 -0.26 0.02zm32.85 13.77l0.87 0.36 -0.05 -0.11 -0.85 -0.35 0.03 0.1zm11.48 4.7l15.02 6.05 -0.09 -0.1 -15.14 -6.12 0.21 0.17zm-133.63 -58.36c20.16,9.22 40.41,18.3 60.77,27.19l2.49 0.2c-23.65,-10.27 -47.16,-20.79 -70.56,-31.43l7.3 4.05zm76.77 34.11l6.16 2.65 1.28 -0.35 -5.35 -2.3 -2.09 -0.01zm10.59 4.53l2.65 1.14 1.74 -0.16 -2 -0.84 -2.39 -0.14zm2.77 1.19l14.92 6.29 2.7 0.25 -15.87 -6.69 -1.75 0.16zm31.92 13.35l0.76 0.31 -0.39 -1.06 -0.56 -0.22 0.19 0.97zm10.42 4.25l15.59 6.29 -0.27 -0.33 -0.55 -0.26 0.49 0.18 -0.11 -0.13c-2.99,-1.34 -5.9,-2.83 -8.94,-4.12l-8.74 -3.54 2.54 1.9zm-141.19 -62.27c23.95,10.96 48.03,21.75 72.23,32.27 13.8,1.1 27.62,2.11 38.67,7.26 -4.06,-2.23 -10.99,-0.18 -17.84,1.7l-5.25 -2.26c10.7,0.05 21.33,0.28 29.55,4.09 2,1.04 3.95,2.17 5.97,3.22 -6.04,-2.79 -14.16,-2.47 -22.54,-1.78l16.05 6.74c9.88,0.97 19.42,2.48 27.34,6.35 4.15,2.26 7.71,5.4 10.93,9.03l-0.15 -0.08c-4.22,-1.68 -8.47,-3.39 -12.71,-5.09 1.25,0.54 2.48,1.14 3.69,1.73l-7.73 -3.14c-2.7,-1.89 -5.52,-3.6 -8.56,-4.99 0.36,0.18 0.65,0.85 0.89,1.86l0.54 0.22c-1.85,-4.71 -4.08,-8.87 -7.75,-10.86 -5.93,-2.97 -14.18,-2.59 -22.67,-1.84l-1.9 -0.81c17.67,0.92 37.06,0.42 49.03,6.15 27.42,12.59 50.57,28.76 73.49,45.14 6.1,3.14 15.04,7.71 17.53,8.44l3.45 0.81c-8.6,-3.97 -17.24,-7.89 -25.92,-11.78l-0.19 -0.09 -0.08 -0.05c-9.84,-4.4 -19.74,-8.75 -29.66,-13.1l-0.16 -0.05 -0.12 -0.07 -0.14 -0.05 -0.14 -0.06 -0.15 -0.06 -0.14 -0.06 -0.14 -0.06 -0.27 -0.13 0.15 0.07c-63.28,-27.6 -127.8,-53.84 -189.76,-82.06 -2.53,-1.13 -5.11,-2.26 -7.68,-3.36 2.1,1.18 5.34,2.97 7.27,4.05l4.88 2.72z"></path>
  <path class="fil14" d="M2595.14 2301.08c3.18,2.64 10.29,6.2 14.27,8.69 -0.05,0.31 -0.12,0.64 -0.16,0.93 0.05,-0.05 0.22,-0.05 0.28,-0.12 0.15,0.64 0.3,1.03 -0.56,1.36 0.18,0.2 0.46,0.38 0.68,0.57 -0.2,1.93 -7.82,4.44 -9.87,5.48 -33.96,-19.12 -128.89,-52.08 -183.19,-82.06 -30.47,-15.55 -59.21,-33.78 -89.4,-49.67 -37.65,-17.34 -91.37,-10.01 -125.76,-31.12 -150.34,-58.23 -69,-41.88 36.56,-2.97 0.21,0.05 0.39,0.11 0.61,0.16 -41.05,-15.03 -328.15,-154.63 -166.76,-55.1 -0.22,-0.28 -0.45,-0.57 -0.69,-0.84 0.77,0.95 1.53,1.92 2.29,2.88 -7.28,-9.57 0,0 2.52,3.25 0.01,0 0.01,-0.05 0.05,-0.06 0.97,1.33 -5.61,-3.29 -5.61,-3.29 0.42,0.59 1.3,1.78 1.3,1.78 -0.6,-0.76 -1.15,-1.62 -2,-2.22 0.1,0.21 0.38,0.58 0.38,0.58 -1.06,-1.38 -5.95,-4.11 -7.71,-5.27 0.5,0.68 1.07,1.32 1.61,1.97 1.88,1.51 15.63,9.81 15.72,10.5 -0.26,0.06 -39.77,-19.94 -41.92,-21.04 0.11,-0.58 0.18,-1.12 0.1,-1.69 -1.35,-0.61 -2.69,-1.31 -4.06,-1.92 0.16,0.67 0.26,1.29 0.47,1.95 -0.05,-0.05 -0.1,-0.1 -0.14,-0.15 -0.1,-0.66 -0.38,-1.29 -0.48,-1.95 -1.64,-0.71 -3.23,-1.5 -4.81,-2.27 0.07,0.15 0.18,0.47 0.09,0.62 -0.16,-0.29 -0.3,-0.56 -0.46,-0.85 0.24,0.69 0.47,1.36 0.69,2.01 -47.58,-23.84 -91.06,-54.09 -139.25,-77.16 -3.17,-0.59 -9.95,-1.48 -12.57,-2.27 -3.3,-1 -10.94,-2.02 -14.76,-2.74 -66.88,-25.58 -143.7,-50.86 -209.37,-79.34 72.6,29.6 151.52,52.54 225.51,79.78 1.97,0.7 3.97,1.41 5.98,2.08 -1.63,-0.78 -4.12,-1.95 -5.63,-2.67 -19.17,-9.15 -38.53,-18.05 -57.83,-27.03 1.56,0.59 3.11,1.2 4.66,1.86 -2.15,-1.08 -4.37,-2.1 -6.56,-3.09 16.57,6.33 33.14,12.67 49.77,18.91 -16.09,-7.66 -36.77,-12.85 -53.15,-20.45 14.37,5.29 28.75,10.68 43.26,15.75 -3.72,-1.67 -7.38,-3.41 -11.05,-5.13 2.11,0.8 4.23,1.6 6.33,2.42 -2.8,-1.15 -5.59,-2.3 -8.43,-3.39 -1.2,-0.54 -9.4,0 -10.62,-0.54 -3.14,-1.21 0.7,-3.49 -2.43,-4.7 -4.46,-1.78 -8.88,-3.62 -13.33,-5.41 6.39,2.43 12.79,4.88 19.22,7.25 -5.9,-2.68 -13.22,-4.83 -19.43,-7.33 -15.85,-6.39 -40.57,0.81 -56.43,-5.6 -13.54,-6.22 -18.15,-26.14 -31.75,-32.29 17.37,6.46 25.8,26.67 43.17,33.15 -1.49,-0.65 -1.09,-13.79 -2.51,-14.53 -17.82,-6.65 -35.64,-13.31 -53.44,-19.93 -34.19,-15.64 -6.43,8.77 8.59,13.53 -30.21,-11.64 -1.5,-16.98 -30.51,-27.47 -4.89,-2.11 -14.3,2.7 -19.22,0.67 -11.76,-3.9 -19.33,-14.39 -31.54,-17.29 5.2,1.84 1.47,17.33 6.66,19.17 12.14,3.85 32.77,-5.18 44.88,-1.32 1.14,0.48 17.56,7.26 9.97,4.35 7.48,3.05 6.07,19.74 13.56,22.77 -1.09,-0.42 6.71,-14.51 5.61,-14.92 12.78,5.86 25.59,11.69 38.35,17.58 7.89,3.26 6.64,20.44 14.33,23.94 10.25,4.27 30.1,-5.82 40.51,-1.72 -10.55,-3.95 -29.97,5.71 -40.51,1.72 1.56,0.7 3.08,1.45 4.64,2.13 13.43,5.05 35.77,-3.55 49.19,1.56 5.09,1.95 10.28,3.9 15.15,6.21 -16.83,-6.33 -42.55,0.91 -59.37,-5.45 6.09,2.82 21.06,-8 27.16,-5.18 -1.31,-0.49 -2.61,-0.99 -3.9,-1.49 2.43,1.02 4.87,2.02 7.28,3.03 -1.42,-0.54 -2.86,-1.09 -4.29,-1.64 2.07,0.97 4.13,1.92 6.2,2.87 -15.13,-5.87 -46.21,3.07 -61.28,-2.87 -45.6,-16.95 -75.26,-48.75 -121.1,-65.27 0.27,0 0.5,0.01 0.79,0.05 -0.94,-0.2 -6.19,-2.41 -6.37,-1.15 -8.58,-1.61 -17.15,-3.23 -25.72,-4.82 7.59,1.46 10.89,10.25 18.38,11.6 0,0 -8.59,-8.86 -15.04,-10.11 -44.03,-8.66 -54.04,-30.64 -93.57,-55.54 -60.87,-38.32 -85.72,-49.38 -95.25,-51.33 -0.4,-0.08 44.72,8.51 109.88,24.65 18.02,4.48 37.6,9.54 58.18,15.17 33.64,10.68 69.04,18.7 102.88,28.98 39.64,14.29 63.23,53.2 104.86,63.19 25.79,11.1 52.61,23.81 78.7,34.14 58.19,-31.23 -71.11,19.45 124.76,23.6 0,0 0.05,-0.07 0.05,-0.07 0.13,0.05 -4.08,7 -4.08,7 0.05,0 4.58,-6.78 4.65,-6.76 -5.16,0.59 -5.6,0.74 -0.2,-0.09 -20.47,-5.57 -48.16,-2.69 -69.21,-7.69 0.42,-0.02 0.85,-0.04 1.26,-0.05 -1.45,0.07 -2.87,0.13 -4.3,0.21 14.08,-0.86 0,0 -4.81,0.25 0.02,-0.01 0.05,-0.05 0.06,-0.06 -1.94,0.14 6.62,1.72 6.62,1.72 -0.86,0.06 -2.57,0.18 -2.57,0.18 1.12,-0.03 2.32,-0.18 3.42,0.01 -0.27,0.06 -0.81,0.09 -0.81,0.09 2.03,-0.11 7.68,1.45 9.9,1.92 -1,0.06 -1.99,0.07 -2.98,0.09 -2.63,-0.34 -19.15,-4.39 -19.9,-4.06 0.1,0.19 43.56,14.13 45.92,14.89 0.56,-0.41 1.06,-0.77 1.71,-1.05 1.43,0.52 2.89,1 4.32,1.52 -0.77,0.27 -1.47,0.58 -2.27,0.82 0.08,0 0.15,0.01 0.23,0 0.73,-0.32 1.54,-0.49 2.29,-0.81 1.68,0.64 3.4,1.22 5.12,1.79 -0.2,0.04 -0.59,0.15 -0.7,0.29 0.38,-0.06 0.75,-0.13 1.13,-0.2 -0.82,0.26 -1.65,0.49 -2.44,0.72 52.09,16.93 108.41,27.48 160.06,45.25 2.43,1.69 7.29,5.57 9.61,6.8 2.93,1.55 8.43,5.88 11.36,7.94 55.19,24.07 114.31,52.89 172.11,76.89l2.48 2.01c6.36,3.57 12.72,7.15 19.06,10.74 -0.63,-0.45 -1.27,-0.88 -1.85,-1.37 6.44,2.86 10.59,6.05 16,9.77 0.4,0.29 5.57,4.5 4.38,1.68 -1.22,-1.46 -3.46,-2.41 -4.52,-4.16 51.22,44.51 142.55,107.81 232.71,152.69zm-435.83 -254.14c13.95,6.26 27.84,12.64 41.62,19.14l0.17 0.22c-14.39,-6.77 -28.91,-13.43 -43.49,-19.96l1.69 0.6zm53.34 24.72l4.73 2.28 0.04 0.14 -4.64 -2.23 -0.13 -0.18zm7.52 3.62l2.16 1.05 0.07 0.14 -2.08 -1 -0.16 -0.19zm2.23 1.08l10.36 5.08 0.16 0.18 -10.44 -5.1 -0.08 -0.16zm23.46 11.63l0.62 0.31 -0.1 0.03 -0.59 -0.3 0.07 -0.04zm8.11 4.12l10.55 5.44 -0.14 0 -10.63 -5.48 0.21 0.05zm-97.36 -46.14c15.02,6.75 29.98,13.64 44.81,20.67l1.1 1.28c-17.19,-8.19 -34.55,-16.19 -51.92,-24.05l6.01 2.1zm56.4 26.23l4.48 2.15 0.19 0.87 -3.86 -1.86 -0.81 -1.16zm7.65 3.7l1.92 0.92 0.52 1.04 -1.43 -0.7 -1.02 -1.26zm2.01 0.96l10.67 5.28 1.21 1.38 -11.36 -5.6 -0.52 -1.06zm22.77 11.32l0.54 0.27 -1 0.28 -0.4 -0.2 0.86 -0.36zm7.35 3.73l10.94 5.64 -0.37 0.02 -0.41 -0.18 0.33 0.18 -0.14 -0.01c-2.22,-1.02 -4.51,-1.92 -6.7,-2.98l-6.15 -3.15 2.5 0.49zm-103.38 -48.46c17.85,8.03 35.64,16.21 53.22,24.61 6.06,7.16 12.07,14.36 20.37,18.02 -3.32,-1.17 -4.25,-6.04 -5.28,-10.76l-3.82 -1.84c4.06,5.95 8.22,11.77 14.39,14.5 1.6,0.61 3.24,1.14 4.86,1.76 -4.53,-2.01 -7.31,-6.7 -9.9,-11.7l11.48 5.67c4.48,5.03 9.29,9.63 15.4,12.16 3.38,1.22 7.26,1.67 11.41,1.71l-0.11 -0.05c-2.96,-1.54 -5.94,-3.08 -8.9,-4.61 0.9,0.44 1.84,0.82 2.78,1.23l-5.45 -2.8c-2.54,-0.57 -4.98,-1.32 -7.25,-2.33 0.28,0.11 0.92,-0.05 1.84,-0.4l0.38 0.19c-4.52,1.25 -8.71,2.03 -11.7,0.95 -4.64,-1.87 -7.42,-6.64 -9.98,-11.75l-1.38 -0.67c7.35,9.4 14.22,20.47 23.36,24.36 20.46,9.16 42.25,14.21 64.1,19.02 4.84,1.88 11.88,4.63 13.41,5.67l1.95 1.54c-6.44,-2.86 -12.84,-5.78 -19.26,-8.72l-0.16 -0.06 -0.06 -0.03c-7.24,-3.34 -14.48,-6.75 -21.72,-10.17l-0.1 -0.05 -0.1 -0.03 -0.1 -0.05 -0.11 -0.05 -0.12 -0.05 -0.09 -0.03 -0.1 -0.06 -0.2 -0.09 0.11 0.05c-46.07,-21.86 -91.53,-45.07 -137.62,-65.91 -1.86,-0.86 -3.75,-1.74 -5.59,-2.65 1.72,0.59 4.39,1.53 6,2.08l4.03 1.39z"></path>
  <path class="fil13" d="M2093.08 850.88c5.14,0.75 14.63,3.93 20.37,5.39 0.2,-0.24 0.43,-0.49 0.64,-0.72 0,0.09 0.16,0.21 0.16,0.3 0.69,-0.3 1.15,-0.44 0.65,-1.3 0.33,0.01 0.74,0.11 1.1,0.16 1.45,-1.39 -3.37,-8.83 -4.36,-11.07 -47.11,-13.82 -161.5,-65.5 -236.36,-87.97 -40.92,-13.42 -82.51,-23.8 -123.47,-36.79 -48.98,-17.78 -91.72,-63.61 -140.93,-76.49 -32.64,-13.68 -67.15,-29.25 -99.8,-42.02 -0.04,0.16 -0.08,0.34 -0.13,0.52 0.01,-0.02 0,-0.06 0.02,-0.08 0,0 -0.17,0.7 -0.27,1.05 -0.16,-0.06 -2.62,-1.06 -2.65,-0.92 0.03,-0.14 2.48,0.86 2.65,0.92 -0.36,0.44 -0.53,1.16 -0.67,1.71 9.22,-1.79 8.58,-1.66 0,0 -4.29,15.18 116.97,62.34 131.66,68.73 0.23,0.13 0.45,0.24 0.68,0.37 -120.95,-52.72 -152.05,-66.26 -275.85,-103.57 0,0 -0.01,0.09 -0.01,0.09 -0.16,-0.08 1.24,-7.98 1.24,-7.98 -0.07,-0.03 -1.88,7.72 -1.95,7.67 5.25,-0.52 5.67,-0.68 0.24,0.1 24.49,7.1 52.93,4.64 77.78,11.09 -0.44,0.01 -0.89,0.02 -1.34,0.03 1.52,-0.03 3.03,-0.06 4.53,-0.1 -14.73,0.54 0,0 5.04,-0.15 -0.01,0.02 -0.03,0.05 -0.02,0.08 2.01,-0.11 -7.89,-2.2 -7.89,-2.2 0.89,-0.06 2.69,-0.13 2.69,-0.13 -1.19,0 -2.42,0.14 -3.7,-0.13 0.27,-0.06 0.83,-0.08 0.83,-0.08 -2.13,0.06 -8.9,-1.93 -11.49,-2.54 1.03,-0.05 2.1,-0.03 3.16,-0.01 2.96,0.46 22.52,5.69 23.19,5.34 -0.19,-0.24 -53.11,-17.75 -55.99,-18.7 -0.39,0.45 -0.78,0.86 -1.35,1.17 -1.76,-0.66 -3.56,-1.23 -5.32,-1.9 0.7,-0.28 1.33,-0.62 2.06,-0.88 -0.06,0 -0.16,-0.02 -0.25,-0.02 -0.64,0.35 -1.43,0.53 -2.1,0.88 -2.09,-0.79 -4.18,-1.52 -6.29,-2.22 0.2,-0.05 0.57,-0.16 0.62,-0.33 -0.38,0.07 -0.75,0.13 -1.13,0.19 0.79,-0.26 1.56,-0.51 2.32,-0.76 -63.54,-21.24 -128.74,-35.23 -192.17,-57.43 -3.38,-2.05 -10.32,-6.67 -13.36,-8.18 -3.84,-1.89 -11.7,-7.08 -15.76,-9.56 -82.57,-34.9 -173.96,-77.62 -257.9,-109.75 91.21,36.72 182.54,82.53 272.97,121.86 2.4,1.05 4.81,2.14 7.2,3.25 -2.15,-0.75 -5.4,-1.91 -7.38,-2.61 -25.23,-8.84 -50.4,-18 -75.58,-27.05 1.9,0.81 3.86,1.62 5.81,2.37 -2.87,-0.94 -5.74,-2 -8.59,-3.05 20.47,8.66 40.92,17.32 61.35,26.06 -21.15,-7.44 -44.39,-19.96 -65.72,-27.67 17.57,7.64 35.22,15.21 52.73,23.09 -4.8,-1.78 -9.6,-3.48 -14.42,-5.19 2.62,1.1 5.23,2.21 7.83,3.31 -3.52,-1.41 -7.04,-2.82 -10.55,-4.3 -1.55,-0.57 -8.56,-7.2 -10.12,-7.78 -3.88,-1.64 -2.33,2.76 -6.19,1.13 -5.58,-2.29 -11.17,-4.49 -16.73,-6.76 7.88,3.35 15.78,6.69 23.65,10.11 -7.63,-2.81 -16.14,-7.05 -23.9,-10.22 -19.86,-8.06 -36.29,-31.6 -56.17,-39.65 -17.6,-6.41 -38.66,2.78 -56.25,-3.73 21.31,9.19 46.08,2.74 67.39,11.91 -1.9,-0.71 -12.67,7.99 -14.57,7.36 -21.88,-9.42 -43.73,-18.8 -65.56,-28.23 -44.4,-16.2 1.57,-10.52 19.27,-2.06 -37.37,-15.71 -15.74,9.7 -51.03,-5.84 -6.25,-2.38 -10.75,-12.66 -16.96,-15.15 -14.01,-6.52 -29.8,-5.62 -43.36,-13.12 6.27,2.8 16,-9.94 22.3,-7.13 14.31,6.83 25.46,28.41 39.78,35.23 1.42,0.56 22.12,8.81 12.74,4.84 9.4,3.79 22.23,-7.94 31.63,-4.14 -1.36,-0.57 -6.16,14.41 -7.52,13.83 16.6,6.04 33.21,12.14 49.81,18.16 9.95,3.95 23.35,-7.98 33.33,-4.31 12.94,5.14 22.49,26.77 35.43,32.13 -12.96,-5.57 -22.47,-26.6 -35.43,-32.13 2.01,0.74 4.02,1.43 6.01,2.19 16.52,7.07 29.6,29.69 46.15,36.71 6.29,2.65 12.66,5.39 19.03,7.64 -20.68,-8.87 -37.98,-33.18 -58.68,-42.02 7.94,2.87 12.44,21.25 20.37,24.11 -1.61,-0.67 -3.21,-1.35 -4.81,-2.03 3.08,1.22 6.14,2.43 9.19,3.64 -1.76,-0.74 -3.52,-1.49 -5.28,-2.24 2.69,0.98 5.37,1.94 8.06,2.92 -18.75,-7.84 -39.49,-37.36 -58.25,-45.13 -55.9,-24.13 -109.84,-26.54 -165.58,-51.13 0.26,0.22 0.48,0.38 0.78,0.58 -1.03,-0.6 -7.69,-3.2 -6.8,-4.15 -9.17,-5.54 -18.35,-11.08 -27.51,-16.62 8.15,4.87 18.6,1.81 26.56,6.67 0,0 -15.33,-0.92 -22.27,-5.07 -47.43,-28.2 -77.36,-15.51 -132.24,-36.23 -31.01,-11.73 -69.35,-20.71 -99.56,-23.29 -16.26,-6.96 -32.29,-13.5 -48.63,-19.98 -53.35,-17.78 -30.68,-10.19 0.01,0.19 15.31,5.58 32.76,13.3 47.97,19.82 -1.45,-0.13 -2.87,-0.21 -4.25,-0.15 -43.75,-18.34 -64.64,-27.14 0,0 -0.97,0.05 -2.11,0.1 -2.2,0.99 -57.38,-20.91 -42.46,-8.31 -9.15,11.63 53.75,22.05 123.51,49.08 172.41,73.92 39.69,18.96 78.71,40.97 118.25,60.34 48.2,21.26 102.61,14.46 149.01,39.99 32.89,12.66 68.08,25.09 100.59,38.5 -0.04,0.17 -0.07,0.36 -0.11,0.54 0.01,-0.03 0.03,-0.05 0.04,-0.07 0,0 -0.16,0.71 -0.23,1.06 0.16,0.07 2.62,1.04 2.61,1.18 0.01,-0.14 -2.44,-1.11 -2.61,-1.18 0.12,0.65 -0.03,1.36 -0.14,1.93 -6.98,-8.3 -6.48,-7.71 0,0 -2.58,15.85 -123.2,-34.15 -138.09,-39.67 -0.25,-0.06 -0.48,-0.13 -0.72,-0.19 122.62,45.16 154.17,56.78 272.89,116.93 0,0 -0.03,0.07 -0.03,0.07 0.16,0.06 2.21,-7.58 2.21,-7.58 0.08,0.03 -1.57,7.83 -1.48,7.85 -4.18,-4.32 -4.46,-4.76 -0.24,-0.09 -23.38,-12.14 -46.15,-35.19 -69.58,-48.12 0.36,0.33 0.74,0.67 1.11,1.01 -1.26,-1.15 -2.51,-2.29 -3.73,-3.44 12.09,11.34 0,0 -4.16,-3.83 0,0.02 0,0.05 -0.02,0.07 -1.64,-1.57 7.49,3.99 7.49,3.99 -0.71,-0.71 -2.17,-2.09 -2.17,-2.09 0.97,0.87 1.95,1.89 3.11,2.61 -0.19,-0.25 -0.64,-0.68 -0.64,-0.68 1.75,1.63 8.22,4.96 10.64,6.36 -0.85,-0.81 -1.75,-1.57 -2.65,-2.35 -2.66,-1.79 -21.15,-11.85 -21.57,-12.64 0.26,-0.05 51.65,24.34 54.46,25.67 0.14,0.68 0.28,1.3 0.65,1.99 1.74,0.75 3.49,1.58 5.22,2.33 -0.46,-0.75 -0.85,-1.49 -1.36,-2.25 0.08,0.05 0.15,0.11 0.21,0.17 0.41,0.77 0.98,1.49 1.4,2.27 2.07,0.88 4.12,1.83 6.17,2.77 -0.16,-0.17 -0.41,-0.54 -0.38,-0.72 0.28,0.34 0.57,0.66 0.85,1 -0.54,-0.79 -1.08,-1.58 -1.62,-2.34 61.79,29.12 122.02,65.51 184.11,93.76 3.66,0.78 11.35,2.02 14.52,3.02 3.97,1.24 12.67,2.7 17.06,3.62 70.67,26.93 148.93,53.82 221.9,82.78l3.95 0.62c8.82,2.6 17.63,5.18 26.45,7.75 -0.95,-0.21 -1.9,-0.42 -2.85,-0.55 8.28,3.1 14.77,4.25 22.85,6.03 0.61,0.12 8.88,1.38 5.41,2.26 -2.34,0.01 -5.19,-1.11 -7.63,-0.81 84.32,10.83 221.12,40.39 341.23,80.81zm-612.16 -171.66c18.01,6.69 36.07,13.25 54.14,19.66l0.33 -0.01c-18.85,-6.69 -37.7,-13.57 -56.51,-20.57l2.04 0.92zm69.53 25.08l6.24 2.17 0.14 -0.06 -6.12 -2.12 -0.26 0.02zm9.9 3.44l2.86 0.98 0.19 -0.04 -2.75 -0.95 -0.3 0.01zm2.96 1.02l13.74 4.7 0.3 0 -13.83 -4.73 -0.21 0.04zm31.22 10.55l0.83 0.27 -0.07 -0.09 -0.81 -0.27 0.05 0.08zm10.87 3.58l14.2 4.6 -0.1 -0.09 -14.32 -4.66 0.22 0.15zm-127.75 -45.14c19.41,7.19 38.86,14.26 58.32,21.14l2.1 0.02c-22.61,-7.94 -45.16,-16.12 -67.67,-24.42l7.26 3.27zm73.6 26.47l5.87 2.05 0.93 -0.41 -5.1 -1.77 -1.7 0.13zm10.09 3.51l2.54 0.87 1.35 -0.27 -1.89 -0.63 -2 0.04zm2.65 0.91l14.2 4.82 2.28 0.05 -15.1 -5.14 -1.37 0.27zm30.33 10.22l0.72 0.25 -0.67 -0.96 -0.53 -0.16 0.48 0.88zm9.86 3.25l14.74 4.77 -0.32 -0.28 -0.53 -0.19 0.46 0.14 -0.13 -0.11c-2.89,-1.05 -5.74,-2.23 -8.64,-3.22l-8.26 -2.7 2.68 1.6zm-135.19 -48.28c23.06,8.56 46.18,16.94 69.3,25.07 11.58,0.06 23.15,0.07 33.83,4.1 -4.05,-1.8 -9.02,0.59 -13.96,2.82l-5.02 -1.74c8.73,-0.7 17.45,-1.22 25.37,1.77 1.98,0.82 3.94,1.75 5.92,2.6 -5.83,-2.21 -12.33,-1.33 -18.91,-0.11l15.25 5.17c8.36,0.21 16.6,0.96 24.32,4.04 4.1,1.81 8.03,4.49 11.84,7.65l-0.16 -0.06c-3.99,-1.27 -7.99,-2.57 -12,-3.86 1.19,0.4 2.38,0.89 3.57,1.35l-7.32 -2.38c-2.8,-1.58 -5.67,-2.97 -8.59,-4.06 0.35,0.15 0.8,0.75 1.33,1.67l0.5 0.17c-3.03,-4.26 -6.21,-7.98 -9.84,-9.57 -5.8,-2.37 -12.38,-1.45 -19.05,-0.16l-1.81 -0.61c14.68,-0.38 30.29,-2.19 41.89,2.33 26.42,9.83 50.53,23.31 74.52,36.98 5.99,2.51 14.75,6.14 17.03,6.65l3.06 0.51c-8.28,-3.11 -16.59,-6.16 -24.93,-9.19l-0.18 -0.08 -0.08 -0.02c-9.46,-3.43 -18.92,-6.8 -28.41,-10.17l-0.14 -0.03 -0.12 -0.05 -0.14 -0.05 -0.14 -0.05 -0.14 -0.04 -0.13 -0.05 -0.13 -0.05 -0.27 -0.1 0.14 0.05c-60.49,-21.36 -121.53,-41.35 -181.16,-63.37 -2.42,-0.87 -4.89,-1.75 -7.34,-2.59 2.09,0.94 5.31,2.4 7.23,3.28l4.85 2.19z"></path>
  <path class="fil14" d="M2154.87 753.09c3.02,0.4 8.49,2.5 11.84,3.43 0.14,-0.19 0.28,-0.38 0.43,-0.56 -0.01,0.06 0.07,0.16 0.07,0.22 0.42,-0.24 0.7,-0.36 0.46,-0.98 0.2,0 0.44,0.05 0.65,0.09 0.95,-1.08 -1.48,-6.46 -1.93,-8.1 -27.31,-8.96 -92.47,-44.19 -135.82,-58.81 -23.62,-8.83 -47.83,-15.4 -71.5,-23.91 -28.16,-11.85 -50.92,-44.72 -79.52,-52.92 -18.67,-9.26 -38.34,-19.87 -57.06,-28.45 -0.03,0.11 -0.07,0.26 -0.1,0.38 0.01,-0.02 0,-0.05 0.01,-0.05 0,0 -0.14,0.51 -0.22,0.78 -0.09,-0.04 -1.49,-0.7 -1.53,-0.61 0.04,-0.09 1.44,0.58 1.53,0.61 -0.24,0.35 -0.38,0.88 -0.5,1.3 5.61,-1.59 5.22,-1.47 0,0 -3.48,11.39 66.07,43.07 74.47,47.41 0.12,0.08 0.25,0.16 0.38,0.25 -69.03,-35.82 -86.79,-45.01 -158.45,-69.3 0,0 -0.01,0.06 -0.01,0.06 -0.09,-0.05 1.23,-5.96 1.23,-5.96 -0.05,-0.01 -1.59,5.79 -1.63,5.76 3.17,-0.53 3.42,-0.66 0.13,0.06 14.2,4.6 31.33,1.98 45.78,6.09 -0.27,0.03 -0.53,0.04 -0.81,0.05 0.92,-0.06 1.82,-0.13 2.72,-0.2 -8.83,0.81 0,0 3.02,-0.26 -0.01,0.02 -0.02,0.05 -0.02,0.06 1.2,-0.13 -4.58,-1.41 -4.58,-1.41 0.53,-0.07 1.61,-0.17 1.61,-0.17 -0.71,0.05 -1.46,0.18 -2.2,0.01 0.16,-0.05 0.5,-0.08 0.5,-0.08 -1.28,0.12 -5.2,-1.18 -6.71,-1.57 0.62,-0.05 1.25,-0.06 1.89,-0.08 1.74,0.26 13.11,3.61 13.53,3.31 -0.1,-0.17 -30.65,-11.71 -32.31,-12.34 -0.27,0.35 -0.51,0.66 -0.88,0.91 -1.01,-0.44 -2.05,-0.81 -3.06,-1.26 0.43,-0.24 0.82,-0.5 1.28,-0.71 -0.05,0 -0.09,-0.01 -0.16,-0.01 -0.39,0.28 -0.88,0.44 -1.29,0.71 -1.2,-0.52 -2.42,-1.01 -3.62,-1.48 0.12,-0.04 0.35,-0.13 0.38,-0.26 -0.22,0.06 -0.46,0.12 -0.69,0.17 0.49,-0.21 0.97,-0.42 1.44,-0.63 -36.65,-14.01 -74.74,-22.61 -111.27,-37.35 -1.89,-1.42 -5.77,-4.67 -7.5,-5.7 -2.17,-1.3 -6.54,-4.94 -8.82,-6.66 -47.2,-23.65 -99.18,-52.85 -147.36,-74.4 52.24,24.75 104,56.26 155.63,82.97 1.36,0.71 2.75,1.46 4.1,2.22 -1.23,-0.49 -3.11,-1.27 -4.25,-1.73 -14.53,-5.87 -29,-11.98 -43.5,-18.01 1.09,0.54 2.22,1.1 3.33,1.6 -1.66,-0.62 -3.3,-1.34 -4.94,-2.03 11.69,5.87 23.39,11.74 35.06,17.67 -12.17,-4.94 -25.3,-13.6 -37.58,-18.74 10.02,5.19 20.12,10.33 30.1,15.69 -2.76,-1.19 -5.53,-2.32 -8.29,-3.45 1.49,0.75 2.98,1.49 4.47,2.24 -2.02,-0.95 -4.03,-1.89 -6.03,-2.9 -0.89,-0.38 -4.68,-5.11 -5.58,-5.5 -2.22,-1.12 -1.55,2.11 -3.76,1.01 -3.19,-1.54 -6.39,-3.03 -9.57,-4.56 4.5,2.27 9.02,4.53 13.51,6.85 -4.38,-1.88 -9.21,-4.79 -13.66,-6.91 -11.37,-5.45 -19.75,-22.48 -31.14,-27.92 -10.12,-4.27 -23.25,3.13 -33.37,-1.22 12.17,6.25 27.35,0.77 39.52,7 -1.08,-0.5 -8.04,6.27 -9.14,5.86 -12.49,-6.39 -24.97,-12.75 -37.43,-19.15 -25.53,-10.81 1.57,-7.86 11.63,-2.07 -21.36,-10.64 -9.98,7.64 -30.13,-2.92 -3.58,-1.61 -5.65,-9.11 -9.21,-10.8 -7.97,-4.44 -17.46,-3.34 -25.1,-8.54 3.58,1.9 10.16,-7.83 13.75,-5.91 8.13,4.68 13.48,20.4 21.63,25.07 0.81,0.38 12.68,5.93 7.31,3.24 5.38,2.56 13.75,-6.51 19.12,-3.94 -0.77,-0.38 -4.54,10.87 -5.31,10.47 9.55,4.04 19.09,8.1 28.63,12.12 5.7,2.66 14.43,-6.58 20.17,-4.12 7.41,3.45 11.81,19.27 19.21,22.88 -7.41,-3.78 -11.81,-19.14 -19.21,-22.88 1.15,0.5 2.31,0.94 3.45,1.46 9.44,4.8 15.89,21.24 25.34,25.99 3.6,1.8 7.24,3.66 10.91,5.15 -11.82,-6.01 -20.68,-23.6 -32.51,-29.59 4.57,1.91 6.14,15.44 10.7,17.35 -0.92,-0.45 -1.83,-0.92 -2.76,-1.38 1.77,0.82 3.53,1.64 5.28,2.45 -1.01,-0.5 -2.01,-1.01 -3.01,-1.51 1.54,0.64 3.08,1.28 4.62,1.94 -10.72,-5.31 -21.32,-26.66 -32.06,-31.92 -31.92,-16.38 -63.98,-16.67 -95.78,-33.39 0.15,0.15 0.27,0.26 0.43,0.4 -0.59,-0.42 -4.39,-2.17 -3.81,-2.89 -5.14,-3.85 -10.29,-7.72 -15.42,-11.59 4.58,3.4 10.99,0.83 15.46,4.22 0,0 -9.1,-0.26 -12.99,-3.15 -26.62,-19.63 -45.27,-9.37 -76.77,-23.26 -17.8,-7.85 -40.16,-13.47 -58.03,-14.55 -9.29,-4.71 -18.46,-9.13 -27.84,-13.49 -30.78,-11.74 -17.71,-6.72 -0.01,0.14 8.82,3.73 18.77,8.97 27.44,13.39 -0.84,-0.05 -1.7,-0.06 -2.53,0.01 -25.01,-12.4 -36.95,-18.36 0,0 -0.58,0.07 -1.26,0.13 -1.37,0.8 -32.99,-13.94 -24.85,-5 -6.16,8.89 30.77,14.9 70.78,33.05 98.48,50.14 22.56,12.99 44.52,28.26 66.96,41.54 27.51,14.46 60.41,7.92 86.57,25.6 18.88,8.49 39.13,16.76 57.73,25.82 -0.02,0.12 -0.06,0.27 -0.08,0.39 0,-0.02 0.01,-0.04 0.01,-0.05 0,0 -0.13,0.53 -0.19,0.8 0.09,0.05 1.5,0.7 1.48,0.81 0.02,-0.1 -1.39,-0.76 -1.48,-0.81 0.04,0.49 -0.11,1.01 -0.2,1.45 -3.65,-5.98 -3.41,-5.56 0,0 -2.5,11.84 -71.5,-21.97 -80.06,-25.66 -0.15,-0.04 -0.27,-0.08 -0.42,-0.12 70.5,30.15 88.62,37.91 155.88,79.31 0,0 -0.02,0.06 -0.02,0.06 0.09,0.03 1.78,-5.7 1.78,-5.7 0.04,0.03 -1.42,5.86 -1.37,5.89 -2.23,-3.1 -2.37,-3.42 -0.14,-0.06 -13.23,-8.38 -25.43,-24.86 -38.63,-33.82 0.19,0.24 0.39,0.48 0.59,0.71 -0.68,-0.82 -1.36,-1.63 -2.02,-2.44 6.54,8.07 0,0 -2.26,-2.75 0,0.02 0,0.05 0,0.06 -0.9,-1.12 4.23,2.76 4.23,2.76 -0.39,-0.51 -1.18,-1.49 -1.18,-1.49 0.53,0.62 1.05,1.35 1.7,1.86 -0.1,-0.17 -0.35,-0.48 -0.35,-0.48 0.95,1.15 4.61,3.44 5.97,4.42 -0.45,-0.58 -0.94,-1.12 -1.43,-1.68 -1.48,-1.26 -11.92,-8.23 -12.12,-8.8 0.16,-0.05 29.37,16.66 30.97,17.58 0.04,0.49 0.1,0.94 0.27,1.45 0.99,0.51 1.98,1.08 2.97,1.58 -0.24,-0.55 -0.42,-1.08 -0.69,-1.64 0.05,0.05 0.08,0.08 0.13,0.12 0.19,0.57 0.49,1.08 0.69,1.65 1.18,0.6 2.35,1.25 3.52,1.89 -0.08,-0.12 -0.21,-0.38 -0.18,-0.52 0.16,0.25 0.3,0.48 0.46,0.71 -0.28,-0.57 -0.56,-1.14 -0.83,-1.69 35.13,19.92 68.9,45.29 104.27,64.55 2.13,0.49 6.65,1.2 8.49,1.84 2.3,0.81 7.4,1.67 9.97,2.22 40.57,18.05 85.67,35.87 127.49,55.36l2.33 0.35c5.1,1.69 10.22,3.37 15.32,5.03 -0.55,-0.13 -1.12,-0.26 -1.67,-0.33 4.76,2.07 8.56,2.75 13.27,3.84 0.37,0.07 5.23,0.8 3.09,1.54 -1.4,0.07 -3.04,-0.68 -4.5,-0.38 49.7,5.71 129.59,23.87 198.87,50.6zm-355.16 -110.6c10.35,4.47 20.74,8.85 31.14,13.11l0.2 -0.02c-10.86,-4.45 -21.69,-9.03 -32.51,-13.71l1.16 0.62zm40.01 16.71l3.6 1.44 0.08 -0.05 -3.52 -1.4 -0.16 0.02zm5.7 2.28l1.65 0.66 0.11 -0.04 -1.58 -0.63 -0.17 0.01zm1.7 0.68l7.93 3.11 0.17 -0.01 -7.97 -3.14 -0.13 0.04zm18.01 6.98l0.47 0.18 -0.03 -0.06 -0.47 -0.18 0.03 0.06zm6.26 2.36l8.21 3.02 -0.06 -0.06 -8.27 -3.06 0.12 0.1zm-73.55 -30.01c11.15,4.81 22.34,9.53 33.54,14.1l1.25 -0.05c-13.02,-5.26 -26,-10.72 -38.92,-16.26l4.13 2.22zm42.35 17.64l3.38 1.35 0.59 -0.34 -2.94 -1.16 -1.03 0.15zm5.81 2.32l1.46 0.59 0.82 -0.24 -1.1 -0.43 -1.19 0.08zm1.53 0.6l8.17 3.19 1.36 -0.04 -8.71 -3.4 -0.83 0.24zm17.48 6.76l0.42 0.16 -0.35 -0.69 -0.3 -0.11 0.23 0.64zm5.68 2.13l8.52 3.14 -0.17 -0.2 -0.31 -0.14 0.27 0.09 -0.07 -0.07c-1.66,-0.7 -3.29,-1.5 -4.95,-2.16l-4.78 -1.78 1.5 1.12zm-77.8 -32.12c13.25,5.71 26.55,11.31 39.86,16.71 6.91,-0.27 13.82,-0.59 19.96,2.11 -2.31,-1.23 -5.42,0.69 -8.51,2.48l-2.88 -1.16c5.26,-0.76 10.49,-1.38 15.05,0.61 1.13,0.57 2.24,1.19 3.38,1.77 -3.36,-1.46 -7.29,-0.64 -11.3,0.45l8.79 3.41c4.98,-0.06 9.86,0.26 14.29,2.33 2.33,1.24 4.52,3.12 6.61,5.36l-0.09 -0.05c-2.3,-0.83 -4.62,-1.69 -6.93,-2.54 0.69,0.27 1.36,0.59 2.04,0.92l-4.22 -1.57c-1.58,-1.1 -3.2,-2.04 -4.88,-2.77 0.18,0.1 0.43,0.53 0.69,1.2l0.3 0.11c-1.57,-3.08 -3.23,-5.76 -5.3,-6.84 -3.33,-1.59 -7.31,-0.73 -11.38,0.41l-1.03 -0.41c8.78,-0.69 18.21,-2.45 24.86,0.59 15.19,6.57 28.77,15.92 42.26,25.41 3.42,1.69 8.44,4.16 9.77,4.47l1.79 0.3c-4.75,-2.09 -9.54,-4.12 -14.33,-6.13l-0.1 -0.05 -0.05 -0.02c-5.44,-2.29 -10.88,-4.52 -16.35,-6.76l-0.08 -0.02 -0.07 -0.05 -0.06 -0.03 -0.08 -0.04 -0.08 -0.03 -0.07 -0.05 -0.07 -0.02 -0.16 -0.07 0.09 0.05c-34.84,-14.19 -70.07,-27.35 -104.34,-42.07 -1.39,-0.58 -2.82,-1.16 -4.23,-1.72 1.19,0.65 3.03,1.64 4.12,2.22l2.76 1.5z"></path>
  <path class="fil13" d="M3430.79 1112.39c-29.15,-12.4 -59.42,-25.86 -88.23,-37.13 -0.05,0.16 -0.09,0.34 -0.12,0.52 0,-0.03 -0.01,-0.05 0,-0.07 0,0 -0.16,0.7 -0.26,1.04 -0.16,-0.06 -2.61,-1.06 -2.65,-0.92 0.05,-0.14 2.5,0.86 2.65,0.92 -0.36,0.44 -0.52,1.16 -0.67,1.71 9.21,-1.79 8.57,-1.66 0,0 -2.66,9.42 43.11,31.2 81.71,47.87 -1.57,3.13 -3.08,6.35 -4.55,9.64l-9.67 44.4c-7.65,-2.58 -16.01,-2.08 -24.39,-1.42l5.02 1.75c4.94,-2.22 9.91,-4.62 13.95,-2.82 -10.66,-4.02 -22.24,-4.03 -33.82,-4.1 -23.13,-8.12 -46.24,-16.51 -69.31,-25.07l-4.84 -2.2c-1.92,-0.87 -5.14,-2.31 -7.23,-3.26 2.45,0.83 4.92,1.71 7.34,2.59 37.01,13.67 74.58,26.56 112.21,39.47l-0.33 1.5 -10.6 -3.6c3.96,-0.73 7.88,-1.35 11.65,-1.24l0.03 -0.1c-3.81,-0.13 -7.8,0.52 -11.82,1.29l-1.81 -0.62c4.49,-0.11 9.07,-0.36 13.59,-0.52l-0.02 0.08c-32.52,-11.85 -64.66,-23.55 -95.36,-35.25 -4.4,-0.93 -13.09,-2.39 -17.06,-3.64 -3.17,-0.98 -10.86,-2.23 -14.52,-3.01 -62.09,-28.25 -122.32,-64.64 -184.11,-93.76 0.53,0.76 1.08,1.55 1.62,2.34 -0.27,-0.33 -0.57,-0.65 -0.85,-1 -0.03,0.18 0.23,0.56 0.38,0.74 -2.06,-0.96 -4.1,-1.9 -6.18,-2.79 -0.41,-0.78 -0.98,-1.5 -1.38,-2.26 -0.07,-0.06 -0.15,-0.12 -0.22,-0.18 0.52,0.76 0.9,1.5 1.37,2.27 -1.74,-0.76 -3.49,-1.59 -5.22,-2.34 -0.37,-0.69 -0.52,-1.3 -0.67,-1.98 -2.8,-1.33 -54.19,-25.72 -54.45,-25.68 0.41,0.78 18.9,10.85 21.57,12.65 0.9,0.78 1.78,1.54 2.65,2.34 -2.43,-1.4 -8.9,-4.73 -10.65,-6.35 0,0 0.45,0.42 0.65,0.68 -1.16,-0.72 -2.13,-1.76 -3.12,-2.62 0,0 1.46,1.37 2.19,2.09 0,0 -9.14,-5.55 -7.5,-3.98 0.01,-0.03 0.01,-0.06 0.01,-0.08 4.17,3.84 16.27,15.17 4.17,3.84 1.23,1.14 2.48,2.28 3.73,3.42 -0.37,-0.33 -0.73,-0.66 -1.09,-0.99 23.41,12.93 46.19,35.97 69.57,48.1 -4.23,-4.65 -3.95,-4.23 0.24,0.11 -0.08,-0.04 1.57,-7.83 1.49,-7.86 0,0 -2.05,7.64 -2.22,7.59 0,0 0.03,-0.09 0.03,-0.09 -118.73,-60.14 -150.26,-71.76 -272.89,-116.92 0.25,0.06 0.48,0.13 0.71,0.19 14.89,5.51 135.52,55.53 138.1,39.69 -6.48,-7.73 -6.98,-8.32 0,0 0.1,-0.59 0.27,-1.3 0.14,-1.94 0.16,0.06 2.62,1.03 2.6,1.18 0.02,-0.15 -2.43,-1.12 -2.6,-1.18 0.07,-0.37 0.22,-1.07 0.22,-1.07 0,0.03 -0.02,0.05 -0.02,0.07 0.02,-0.18 0.07,-0.37 0.1,-0.53 -32.51,-13.41 -67.7,-25.85 -100.59,-38.51 -46.39,-25.53 -100.81,-18.74 -149.01,-40 -39.54,-19.37 -78.55,-41.37 -118.26,-60.32 -48.88,-24.84 -118.65,-51.87 -172.39,-73.93 -33.32,-19.94 -48.23,-32.52 9.14,-11.63 0.1,-0.89 1.24,-0.92 2.21,-0.98 -64.64,-27.14 -43.76,-18.34 0,0 1.37,-0.06 2.81,0.01 4.24,0.13 -15.19,-6.52 -32.64,-14.22 -47.97,-19.8 -30.68,-10.38 -53.35,-17.98 0,-0.19 16.35,6.48 32.38,13.03 48.63,19.97 30.21,2.58 68.54,11.56 99.56,23.29 54.88,20.73 84.81,8.03 132.24,36.23 6.93,4.16 22.26,5.07 22.26,5.07 -7.95,-4.86 -18.41,-1.79 -26.56,-6.67 9.14,5.55 18.34,11.09 27.52,16.63 -0.9,0.93 5.77,3.54 6.78,4.14 -0.3,-0.19 -0.51,-0.36 -0.78,-0.57 55.75,24.59 109.69,26.99 165.58,51.12 18.77,7.76 39.51,37.28 58.25,45.13 -2.68,-0.97 -5.36,-1.94 -8.06,-2.92 1.76,0.75 3.52,1.51 5.28,2.25 -3.06,-1.22 -6.11,-2.43 -9.19,-3.65 1.61,0.68 3.21,1.36 4.81,2.03 -7.92,-2.86 -12.41,-21.26 -20.35,-24.1 20.71,8.83 38,33.15 58.68,42 -6.36,-2.24 -12.74,-4.98 -19.03,-7.63 -16.54,-7.02 -29.63,-29.63 -46.15,-36.71 -1.99,-0.75 -4,-1.44 -6,-2.19 12.95,5.53 22.47,26.56 35.43,32.13 -12.94,-5.35 -22.49,-27 -35.43,-32.13 -9.98,-3.67 -23.38,8.27 -33.34,4.3 -16.6,-6.01 -33.2,-12.1 -49.8,-18.16 1.35,0.59 6.16,-14.39 7.51,-13.81 -9.38,-3.81 -22.22,7.92 -31.62,4.13 9.39,3.96 -11.32,-4.28 -12.74,-4.85 -14.32,-6.81 -25.47,-28.4 -39.78,-35.22 -6.29,-2.8 -16.03,9.93 -22.31,7.13 13.58,7.5 29.36,6.6 43.37,13.12 6.22,2.5 10.71,12.76 16.96,15.16 35.3,15.53 13.67,-9.88 51.03,5.84 -17.7,-8.47 -63.66,-14.14 -19.27,2.05 21.83,9.43 43.69,18.81 65.55,28.22 1.92,0.64 12.68,-8.06 14.58,-7.35 -21.31,-9.17 -46.09,-2.72 -67.39,-11.91 17.58,6.51 38.65,-2.67 56.25,3.73 19.87,8.06 36.31,31.6 56.17,39.67 7.76,3.16 16.27,7.39 23.9,10.2 -7.86,-3.41 -15.77,-6.76 -23.64,-10.11 5.56,2.28 11.15,4.48 16.72,6.76 3.86,1.63 2.31,-2.76 6.19,-1.13 1.57,0.59 8.58,7.21 10.12,7.79 3.51,1.47 7.02,2.87 10.55,4.29 -2.61,-1.1 -5.21,-2.2 -7.84,-3.32 4.81,1.72 9.62,3.41 14.42,5.2 -17.51,-7.87 -35.17,-15.45 -52.74,-23.09 21.35,7.71 44.59,20.23 65.73,27.68 -20.43,-8.75 -40.88,-17.41 -61.35,-26.06 2.86,1.03 5.72,2.11 8.59,3.04 -1.96,-0.74 -3.91,-1.57 -5.81,-2.37 25.19,9.05 50.36,18.22 75.58,27.05 1.98,0.7 5.24,1.85 7.38,2.6 -2.39,-1.1 -4.81,-2.18 -7.19,-3.24 -90.45,-39.32 -181.77,-85.14 -272.98,-121.85 83.94,32.12 175.33,74.84 257.91,109.75 4.06,2.47 11.91,7.67 15.74,9.56 3.05,1.5 10,6.13 13.36,8.17 63.44,22.2 128.64,36.2 192.17,57.43 -0.76,0.26 -1.54,0.5 -2.32,0.77 0.38,-0.06 0.75,-0.14 1.13,-0.2 -0.05,0.16 -0.41,0.29 -0.62,0.32 2.11,0.73 4.2,1.44 6.3,2.24 0.66,-0.36 1.44,-0.55 2.09,-0.88 0.08,0 0.17,0 0.25,0.01 -0.73,0.26 -1.35,0.59 -2.06,0.89 1.76,0.66 3.56,1.24 5.32,1.89 0.58,-0.31 0.96,-0.71 1.35,-1.17 2.89,0.95 55.81,18.46 56.01,18.7 -0.67,0.36 -20.23,-4.87 -23.2,-5.33 -1.07,-0.02 -2.13,-0.04 -3.16,0 2.59,0.62 9.36,2.61 11.49,2.54 0,0 -0.56,0.03 -0.83,0.08 1.28,0.27 2.5,0.13 3.7,0.12 0,0 -1.79,0.07 -2.69,0.14 0,0 9.9,2.11 7.89,2.19 0,-0.02 0.01,-0.05 0.02,-0.07 -5.04,0.15 -19.77,0.69 -5.04,0.15 -1.5,0.04 -3.01,0.07 -4.53,0.1 0.45,0 0.9,0 1.35,-0.03 -24.86,-6.44 -53.3,-3.98 -77.79,-11.09 5.43,-0.78 5.03,-0.62 -0.24,-0.08 0.08,0.03 1.88,-7.71 1.95,-7.69 0,0 -1.41,7.91 -1.24,7.98 0,0 0.02,-0.09 0.02,-0.09 104.66,31.53 143.06,46.09 225.53,81.7 2.32,-4.6 4.72,-9.03 7.25,-13.3zm-118.39 41.7c18.02,6.69 36.08,13.26 54.14,19.66l0.34 -0.01c-18.85,-6.69 -37.7,-13.57 -56.51,-20.56l2.03 0.91zm69.54 25.08l6.24 2.17 0.14 -0.06 -6.11 -2.12 -0.27 0.02zm9.91 3.44l2.85 0.99 0.19 -0.05 -2.75 -0.95 -0.29 0.01zm2.95 1.02l12.56 4.3 0.02 -0.09 -12.37 -4.24 -0.21 0.03zm-85.66 -31c19.41,7.2 38.87,14.26 58.32,21.13l2.1 0.03c-22.6,-7.94 -45.16,-16.11 -67.66,-24.42l7.25 3.27zm73.6 26.48l5.88 2.04 0.92 -0.4 -5.1 -1.77 -1.7 0.13zm10.1 3.49l2.53 0.88 1.35 -0.27 -1.89 -0.64 -1.99 0.03zm2.65 0.92l11.95 4.07 0.15 -0.68 -10.74 -3.65 -1.36 0.26z"></path>
  <path class="fil14" d="M3141.41 1144.59c3.04,0.21 8.65,1.92 12.05,2.63 0.13,-0.2 0.26,-0.4 0.39,-0.59 0,0.06 0.09,0.14 0.08,0.21 0.41,-0.27 0.7,-0.41 0.4,-1.01 0.19,-0.03 0.43,0.02 0.65,0.04 0.87,-1.14 -1.92,-6.34 -2.49,-7.95 -27.85,-7.06 -95.31,-37.71 -139.55,-49.3 -24.18,-7.19 -48.78,-12.06 -72.98,-18.91 -28.92,-9.89 -53.89,-41.1 -82.99,-47.32 -19.27,-7.95 -39.61,-17.18 -58.89,-24.45 -0.03,0.13 -0.05,0.26 -0.07,0.39 0,-0.02 -0.01,-0.04 0.01,-0.05 0,0 -0.11,0.54 -0.17,0.8 -0.09,-0.04 -1.54,-0.61 -1.57,-0.5 0.03,-0.11 1.47,0.47 1.57,0.5 -0.21,0.36 -0.31,0.91 -0.4,1.33 5.48,-1.97 5.1,-1.83 0,0 -2.69,11.6 68.88,38.41 77.55,42.16 0.13,0.08 0.27,0.15 0.39,0.22 -71.34,-30.97 -89.68,-38.91 -162.85,-58.2 0,0 -0.02,0.06 -0.02,0.06 -0.09,-0.05 0.81,-6.03 0.81,-6.03 -0.05,-0.01 -1.18,5.88 -1.24,5.86 3.13,-0.76 3.39,-0.9 0.14,0.05 14.48,3.61 31.4,-0.18 46.09,2.91 -0.26,0.05 -0.52,0.07 -0.79,0.11 0.91,-0.13 1.79,-0.26 2.68,-0.38 -8.74,1.42 0,0 2.99,-0.47 0,0.02 -0.01,0.05 -0.01,0.06 1.2,-0.2 -4.66,-1.09 -4.66,-1.09 0.53,-0.12 1.59,-0.28 1.59,-0.28 -0.7,0.09 -1.44,0.28 -2.2,0.16 0.17,-0.06 0.5,-0.11 0.5,-0.11 -1.27,0.19 -5.27,-0.82 -6.8,-1.11 0.61,-0.1 1.24,-0.16 1.88,-0.23 1.76,0.15 13.33,2.7 13.72,2.39 -0.12,-0.16 -31.38,-9.57 -33.07,-10.09 -0.25,0.36 -0.48,0.7 -0.82,0.97 -1.04,-0.37 -2.1,-0.68 -3.14,-1.06 0.42,-0.26 0.8,-0.55 1.24,-0.79 -0.05,0 -0.1,0 -0.15,0.01 -0.39,0.29 -0.86,0.49 -1.25,0.79 -1.24,-0.45 -2.47,-0.83 -3.72,-1.23 0.13,-0.05 0.33,-0.16 0.38,-0.29 -0.23,0.08 -0.45,0.16 -0.68,0.24 0.48,-0.26 0.94,-0.49 1.39,-0.74 -37.54,-11.45 -76.13,-17.39 -113.6,-29.58 -1.99,-1.29 -6.06,-4.26 -7.86,-5.18 -2.25,-1.14 -6.87,-4.47 -9.26,-6.03 -48.72,-20.34 -102.6,-45.89 -152.14,-64.06 53.82,21.09 107.64,48.95 160.99,72.03 1.41,0.62 2.84,1.26 4.26,1.93 -1.26,-0.42 -3.19,-1.05 -4.37,-1.44 -14.9,-4.85 -29.77,-9.94 -44.63,-14.96 1.13,0.48 2.28,0.94 3.43,1.36 -1.69,-0.5 -3.39,-1.1 -5.08,-1.68 12.07,5.03 24.15,10.09 36.2,15.2 -12.49,-4.1 -26.18,-11.83 -38.79,-16.11 10.37,4.49 20.8,8.92 31.11,13.58 -2.83,-1 -5.67,-1.93 -8.5,-2.88 1.54,0.66 3.08,1.3 4.61,1.93 -2.08,-0.81 -4.16,-1.6 -6.22,-2.46 -0.91,-0.33 -5.02,-4.78 -5.94,-5.12 -2.29,-0.95 -1.41,2.22 -3.69,1.26 -3.29,-1.32 -6.59,-2.57 -9.87,-3.88 4.64,1.95 9.31,3.89 13.95,5.9 -4.51,-1.57 -9.51,-4.15 -14.11,-5.96 -11.72,-4.65 -21.26,-21.06 -32.98,-25.7 -10.41,-3.56 -22.99,4.73 -33.37,1.1 12.58,5.38 27.33,-1.14 39.91,4.24 -1.13,-0.41 -7.6,6.82 -8.72,6.48 -12.9,-5.51 -25.8,-11 -38.67,-16.51 -26.22,-9.03 1.03,-7.95 11.46,-2.87 -22.05,-9.14 -9.43,8.3 -30.25,-0.85 -3.69,-1.35 -6.27,-8.69 -9.94,-10.12 -8.26,-3.89 -17.64,-2.13 -25.62,-6.78 3.7,1.65 9.59,-8.52 13.3,-6.86 8.44,4.1 14.87,19.42 23.31,23.52 0.84,0.32 13.06,5.04 7.52,2.74 5.55,2.17 13.27,-7.44 18.81,-5.25 -0.8,-0.34 -3.78,11.16 -4.59,10.82 9.8,3.37 19.61,6.76 29.41,10.11 5.88,2.27 13.93,-7.55 19.83,-5.5 7.63,2.94 13.11,18.41 20.75,21.51 -7.64,-3.26 -13.11,-18.28 -20.75,-21.51 1.19,0.42 2.37,0.79 3.55,1.22 9.75,4.13 17.31,20.08 27.07,24.18 3.72,1.55 7.48,3.15 11.24,4.38 -12.2,-5.17 -22.25,-22.11 -34.46,-27.26 4.69,1.57 7.18,14.98 11.85,16.56 -0.93,-0.39 -1.88,-0.79 -2.83,-1.18 1.81,0.7 3.62,1.39 5.42,2.09 -1.03,-0.43 -2.07,-0.87 -3.1,-1.31 1.58,0.54 3.16,1.08 4.75,1.62 -11.07,-4.56 -23.11,-25.13 -34.18,-29.63 -32.98,-14.13 -64.97,-12.21 -97.86,-26.71 0.16,0.15 0.28,0.25 0.46,0.38 -0.59,-0.38 -4.52,-1.86 -3.99,-2.62 -5.39,-3.5 -10.8,-6.99 -16.19,-10.5 4.81,3.07 11.03,0.06 15.72,3.15 0,0 -9.09,0.37 -13.17,-2.26 -27.91,-17.75 -45.8,-6.22 -78.19,-17.9 -18.33,-6.61 -41,-10.66 -58.9,-10.51 -9.59,-4.06 -19.05,-7.84 -28.7,-11.55 -31.52,-9.57 -18.13,-5.47 0,0.16 9.04,3.1 19.33,7.65 28.3,11.46 -0.85,0.01 -1.71,0.05 -2.53,0.19 -25.8,-10.66 -38.13,-15.79 0,0 -0.57,0.1 -1.25,0.2 -1.31,0.88 -33.88,-11.63 -25.14,-3.27 -5.53,9.3 31.71,12.72 72.88,28.07 101.7,43.21 23.4,11.41 46.36,25.13 69.67,36.83 28.43,12.52 60.8,3.73 88.11,19.56 19.42,7.17 40.19,14.02 59.39,21.78 -0.03,0.12 -0.05,0.27 -0.07,0.4 0.01,-0.02 0.01,-0.04 0.02,-0.05 0,0 -0.1,0.54 -0.14,0.81 0.09,0.04 1.54,0.59 1.54,0.7 0,-0.11 -1.45,-0.66 -1.54,-0.7 0.06,0.47 -0.04,1.02 -0.1,1.45 -4.06,-5.71 -3.79,-5.3 0,0 -1.68,11.99 -72.85,-16.99 -81.64,-20.07 -0.15,-0.03 -0.28,-0.07 -0.42,-0.09 72.4,25.22 91.02,31.71 160.98,68.36 0,0 -0.02,0.06 -0.02,0.06 0.09,0.03 1.38,-5.81 1.38,-5.81 0.05,0.03 -1.01,5.94 -0.96,5.96 -2.43,-2.93 -2.6,-3.24 -0.15,-0.05 -13.76,-7.43 -27.08,-23.05 -40.86,-31.08 0.2,0.22 0.43,0.45 0.64,0.67 -0.73,-0.77 -1.46,-1.53 -2.19,-2.3 7.08,7.62 0,0 -2.43,-2.57 0,0.02 0,0.04 -0.01,0.06 -0.97,-1.06 4.41,2.44 4.41,2.44 -0.42,-0.48 -1.28,-1.41 -1.28,-1.41 0.58,0.59 1.14,1.28 1.83,1.74 -0.12,-0.16 -0.38,-0.46 -0.38,-0.46 1.03,1.1 4.85,3.13 6.27,4.01 -0.5,-0.55 -1.03,-1.06 -1.55,-1.57 -1.57,-1.16 -12.46,-7.39 -12.7,-7.95 0.16,-0.05 30.45,14.59 32.1,15.4 0.08,0.49 0.16,0.94 0.37,1.42 1.03,0.44 2.06,0.94 3.08,1.38 -0.26,-0.53 -0.49,-1.06 -0.79,-1.59 0.05,0.05 0.09,0.07 0.14,0.12 0.23,0.54 0.56,1.04 0.8,1.59 1.23,0.51 2.43,1.08 3.64,1.65 -0.09,-0.13 -0.24,-0.38 -0.23,-0.51 0.17,0.23 0.34,0.45 0.5,0.69 -0.32,-0.56 -0.63,-1.11 -0.94,-1.64 36.43,17.46 71.87,40.43 108.48,57.21 2.16,0.33 6.71,0.72 8.6,1.24 2.34,0.66 7.49,1.15 10.09,1.54 41.71,15.2 87.95,29.87 131.01,46.43l2.34 0.19c5.22,1.34 10.43,2.65 15.63,3.95 -0.56,-0.08 -1.12,-0.17 -1.68,-0.21 4.89,1.75 8.72,2.16 13.5,2.92 0.37,0.05 5.26,0.43 3.19,1.32 -1.39,0.17 -3.08,-0.47 -4.52,-0.06 49.98,2.27 130.93,14.87 201.88,36.74zm-361.93 -85.82c10.64,3.73 21.29,7.4 31.96,10.93l0.19 -0.04c-11.12,-3.69 -22.25,-7.52 -33.37,-11.44l1.21 0.55zm41.06 13.9l3.68 1.19 0.09 -0.05 -3.62 -1.17 -0.15 0.04zm5.85 1.89l1.68 0.53 0.12 -0.05 -1.62 -0.52 -0.18 0.04zm1.75 0.55l8.11 2.56 0.17 -0.02 -8.16 -2.58 -0.13 0.04zm18.44 5.72l0.48 0.15 -0.04 -0.06 -0.48 -0.14 0.04 0.05zm6.41 1.92l8.4 2.45 -0.06 -0.06 -8.47 -2.47 0.13 0.08zm-75.44 -24.85c11.45,4.04 22.94,7.95 34.44,11.74l1.24 -0.12c-13.35,-4.37 -26.66,-8.91 -39.96,-13.55l4.28 1.93zm43.45 14.66l3.47 1.13 0.56 -0.38 -3.02 -0.95 -1.01 0.2zm5.97 1.91l1.49 0.49 0.81 -0.3 -1.13 -0.35 -1.18 0.16zm1.56 0.49l8.38 2.64 1.35 -0.13 -8.92 -2.79 -0.81 0.28zm17.92 5.55l0.42 0.13 -0.39 -0.67 -0.32 -0.08 0.29 0.62zm5.81 1.73l8.71 2.55 -0.19 -0.18 -0.31 -0.12 0.27 0.07 -0.07 -0.07c-1.7,-0.59 -3.38,-1.27 -5.09,-1.81l-4.89 -1.45 1.57 1.01zm-79.84 -26.67c13.62,4.79 27.27,9.46 40.93,13.91 6.88,-0.74 13.76,-1.53 20.05,0.73 -2.38,-1.06 -5.35,1.06 -8.31,3.06l-2.96 -0.95c5.19,-1.12 10.37,-2.11 15.05,-0.42 1.16,0.48 2.33,1.03 3.49,1.53 -3.44,-1.24 -7.3,-0.15 -11.22,1.22l9 2.81c4.96,-0.41 9.86,-0.42 14.41,1.34 2.42,1.06 4.72,2.79 6.97,4.89l-0.09 -0.04c-2.36,-0.68 -4.72,-1.36 -7.09,-2.06 0.71,0.23 1.41,0.5 2.11,0.77l-4.32 -1.27c-1.66,-1 -3.33,-1.83 -5.06,-2.44 0.2,0.09 0.47,0.49 0.77,1.15l0.3 0.1c-1.77,-2.97 -3.62,-5.53 -5.76,-6.46 -3.42,-1.36 -7.34,-0.23 -11.31,1.2l-1.06 -0.35c8.71,-1.28 18,-3.7 24.84,-1.13 15.6,5.51 29.8,13.89 43.92,22.43 3.53,1.46 8.7,3.57 10.04,3.78l1.82 0.18c-4.9,-1.76 -9.79,-3.46 -14.72,-5.14l-0.11 -0.04 -0.05 -0.02c-5.57,-1.91 -11.17,-3.77 -16.76,-5.62l-0.09 -0.02 -0.07 -0.04 -0.08 -0.02 -0.07 -0.04 -0.08 -0.02 -0.08 -0.05 -0.07 -0.01 -0.16 -0.06 0.08 0.04c-35.73,-11.75 -71.79,-22.45 -107,-34.76 -1.44,-0.49 -2.89,-0.98 -4.34,-1.44 1.24,0.57 3.14,1.42 4.27,1.94l2.86 1.3z"></path>
  <path class="fil14" d="M2195.48 1586.77c3.04,0.21 8.64,1.91 12.04,2.62 0.13,-0.2 0.26,-0.39 0.39,-0.58 0,0.06 0.09,0.14 0.09,0.2 0.4,-0.27 0.69,-0.4 0.38,-1.01 0.2,-0.02 0.44,0.04 0.65,0.05 0.88,-1.14 -1.92,-6.34 -2.48,-7.95 -27.85,-7.05 -95.3,-37.7 -139.55,-49.28 -24.18,-7.19 -48.78,-12.06 -72.98,-18.93 -28.92,-9.89 -53.88,-41.09 -82.99,-47.31 -19.27,-7.95 -39.62,-17.18 -58.89,-24.45 -0.03,0.13 -0.05,0.26 -0.08,0.39 0.01,-0.02 0,-0.05 0.01,-0.05 0,0 -0.1,0.53 -0.16,0.8 -0.1,-0.04 -1.55,-0.61 -1.57,-0.5 0.03,-0.11 1.47,0.47 1.57,0.5 -0.22,0.36 -0.33,0.91 -0.42,1.33 5.49,-1.98 5.11,-1.83 0,0 -2.68,11.6 68.89,38.41 77.56,42.15 0.14,0.07 0.27,0.15 0.39,0.23 -71.33,-30.98 -89.68,-38.92 -162.85,-58.21 0,0 -0.01,0.06 -0.01,0.06 -0.09,-0.04 0.81,-6.03 0.81,-6.03 -0.04,0 -1.18,5.89 -1.22,5.87 3.11,-0.76 3.37,-0.91 0.13,0.05 14.48,3.61 31.4,-0.18 46.1,2.91 -0.27,0.05 -0.53,0.08 -0.81,0.12 0.92,-0.14 1.8,-0.26 2.7,-0.39 -8.76,1.42 0,0 2.98,-0.46 0,0.01 -0.01,0.05 -0.01,0.06 1.2,-0.21 -4.66,-1.09 -4.66,-1.09 0.53,-0.11 1.59,-0.29 1.59,-0.29 -0.7,0.09 -1.43,0.27 -2.19,0.17 0.16,-0.06 0.49,-0.12 0.49,-0.12 -1.27,0.19 -5.27,-0.82 -6.8,-1.11 0.61,-0.1 1.24,-0.16 1.88,-0.23 1.75,0.14 13.32,2.7 13.72,2.38 -0.12,-0.16 -31.38,-9.57 -33.08,-10.09 -0.23,0.38 -0.47,0.7 -0.81,0.97 -1.04,-0.37 -2.1,-0.67 -3.14,-1.04 0.42,-0.27 0.8,-0.56 1.24,-0.81 -0.05,0 -0.1,0 -0.15,0 -0.4,0.31 -0.86,0.5 -1.25,0.81 -1.24,-0.45 -2.47,-0.84 -3.72,-1.23 0.12,-0.05 0.33,-0.16 0.38,-0.28 -0.23,0.07 -0.45,0.14 -0.68,0.22 0.48,-0.25 0.93,-0.49 1.39,-0.73 -37.55,-11.45 -76.13,-17.4 -113.6,-29.59 -1.99,-1.28 -6.06,-4.26 -7.86,-5.17 -2.25,-1.14 -6.87,-4.47 -9.26,-6.03 -48.72,-20.34 -102.6,-45.9 -152.14,-64.06 53.83,21.09 107.64,48.95 160.99,72.03 1.41,0.63 2.84,1.27 4.25,1.92 -1.26,-0.41 -3.19,-1.05 -4.36,-1.43 -14.9,-4.85 -29.77,-9.95 -44.62,-14.97 1.12,0.48 2.27,0.95 3.42,1.36 -1.69,-0.49 -3.39,-1.09 -5.07,-1.68 12.07,5.04 24.14,10.1 36.18,15.2 -12.48,-4.09 -26.17,-11.83 -38.78,-16.09 10.37,4.49 20.79,8.92 31.1,13.58 -2.83,-1 -5.67,-1.93 -8.5,-2.88 1.55,0.65 3.08,1.3 4.61,1.94 -2.09,-0.81 -4.16,-1.62 -6.22,-2.48 -0.92,-0.32 -5.02,-4.78 -5.94,-5.11 -2.29,-0.95 -1.4,2.22 -3.69,1.26 -3.3,-1.32 -6.59,-2.57 -9.87,-3.89 4.64,1.96 9.31,3.91 13.95,5.9 -4.5,-1.57 -9.52,-4.14 -14.11,-5.96 -11.71,-4.64 -21.26,-21.06 -32.98,-25.69 -10.41,-3.55 -22.99,4.73 -33.37,1.08 12.57,5.39 27.33,-1.12 39.91,4.26 -1.13,-0.4 -7.59,6.82 -8.72,6.48 -12.9,-5.52 -25.8,-10.99 -38.67,-16.52 -26.21,-9.02 1.03,-7.95 11.47,-2.87 -22.06,-9.14 -9.44,8.32 -30.25,-0.84 -3.69,-1.35 -6.27,-8.7 -9.94,-10.12 -8.26,-3.89 -17.64,-2.14 -25.62,-6.79 3.7,1.66 9.59,-8.5 13.3,-6.86 8.44,4.11 14.87,19.42 23.31,23.52 0.83,0.33 13.05,5.05 7.52,2.74 5.54,2.19 13.27,-7.43 18.81,-5.25 -0.8,-0.33 -3.79,11.15 -4.59,10.82 9.8,3.37 19.62,6.76 29.41,10.1 5.87,2.27 13.93,-7.54 19.83,-5.49 7.63,2.93 13.12,18.4 20.75,21.5 -7.64,-3.25 -13.11,-18.27 -20.75,-21.5 1.18,0.42 2.37,0.79 3.55,1.21 9.75,4.14 17.31,20.09 27.07,24.18 3.72,1.55 7.48,3.15 11.24,4.38 -12.21,-5.18 -22.25,-22.11 -34.47,-27.26 4.69,1.58 7.19,14.98 11.87,16.57 -0.95,-0.4 -1.89,-0.81 -2.85,-1.2 1.83,0.7 3.62,1.39 5.44,2.09 -1.04,-0.43 -2.09,-0.87 -3.12,-1.31 1.59,0.55 3.18,1.08 4.77,1.62 -11.07,-4.55 -23.12,-25.13 -34.19,-29.62 -32.97,-14.13 -64.97,-12.23 -97.85,-26.72 0.15,0.15 0.27,0.26 0.45,0.38 -0.59,-0.38 -4.53,-1.87 -3.99,-2.62 -5.4,-3.51 -10.81,-6.99 -16.18,-10.51 4.8,3.07 11.02,0.08 15.71,3.14 0,0 -9.09,0.38 -13.18,-2.23 -27.9,-17.76 -45.79,-6.23 -78.19,-17.91 -18.31,-6.61 -40.99,-10.65 -58.9,-10.5 -9.59,-4.07 -19.05,-7.84 -28.7,-11.55 -31.52,-9.57 -18.13,-5.48 -0.01,0.15 9.04,3.1 19.34,7.65 28.31,11.46 -0.86,0.02 -1.7,0.05 -2.52,0.2 -25.81,-10.65 -38.14,-15.78 0,0 -0.59,0.09 -1.26,0.21 -1.32,0.87 -33.89,-11.62 -25.15,-3.27 -5.54,9.3 31.72,12.74 72.89,28.08 101.71,43.23 23.4,11.4 46.36,25.11 69.67,36.82 28.42,12.53 60.79,3.73 88.11,19.57 19.42,7.17 40.2,14.01 59.39,21.77 -0.03,0.13 -0.05,0.27 -0.07,0.41 0.01,-0.02 0.01,-0.04 0.02,-0.06 0,0 -0.09,0.54 -0.15,0.82 0.11,0.03 1.55,0.59 1.54,0.7 0.01,-0.11 -1.43,-0.67 -1.54,-0.7 0.06,0.47 -0.03,1.01 -0.09,1.45 -4.06,-5.71 -3.78,-5.31 0,0 -1.68,11.99 -72.85,-16.99 -81.64,-20.07 -0.15,-0.03 -0.28,-0.06 -0.42,-0.09 72.41,25.22 91.02,31.71 160.98,68.36 0,0 -0.03,0.06 -0.03,0.06 0.1,0.03 1.39,-5.8 1.39,-5.8 0.05,0.02 -1.01,5.95 -0.96,5.96 -2.44,-2.94 -2.6,-3.23 -0.14,-0.06 -13.77,-7.42 -27.1,-23.03 -40.88,-31.06 0.22,0.22 0.44,0.45 0.65,0.67 -0.73,-0.78 -1.46,-1.54 -2.2,-2.31 7.09,7.63 0,0 -2.43,-2.56 0,0.01 0,0.04 -0.02,0.05 -0.96,-1.05 4.41,2.45 4.41,2.45 -0.41,-0.49 -1.27,-1.4 -1.27,-1.4 0.58,0.58 1.14,1.27 1.83,1.73 -0.12,-0.17 -0.38,-0.46 -0.38,-0.46 1.03,1.09 4.83,3.12 6.26,4.01 -0.5,-0.55 -1.02,-1.05 -1.55,-1.57 -1.57,-1.16 -12.46,-7.39 -12.69,-7.95 0.14,-0.05 30.44,14.6 32.09,15.39 0.08,0.49 0.16,0.95 0.37,1.44 1.03,0.45 2.06,0.94 3.08,1.38 -0.27,-0.54 -0.5,-1.06 -0.8,-1.59 0.05,0.04 0.09,0.07 0.13,0.11 0.23,0.55 0.57,1.05 0.81,1.6 1.23,0.52 2.43,1.09 3.64,1.65 -0.09,-0.12 -0.24,-0.38 -0.23,-0.52 0.17,0.24 0.34,0.46 0.5,0.69 -0.32,-0.55 -0.64,-1.1 -0.94,-1.63 36.42,17.44 71.87,40.43 108.48,57.2 2.17,0.34 6.72,0.74 8.59,1.25 2.35,0.66 7.5,1.14 10.1,1.54 41.72,15.2 87.95,29.87 131.01,46.43l2.34 0.18c5.22,1.34 10.43,2.65 15.63,3.95 -0.56,-0.08 -1.12,-0.18 -1.68,-0.2 4.89,1.74 8.72,2.15 13.5,2.92 0.37,0.05 5.26,0.42 3.2,1.32 -1.39,0.16 -3.09,-0.48 -4.53,-0.08 49.97,2.27 130.94,14.88 201.89,36.75zm-361.94 -85.82c10.64,3.74 21.29,7.39 31.96,10.92l0.2 -0.03c-11.13,-3.7 -22.26,-7.52 -33.37,-11.44l1.21 0.55zm41.05 13.9l3.69 1.18 0.08 -0.05 -3.61 -1.16 -0.16 0.04zm5.85 1.88l1.7 0.55 0.11 -0.05 -1.62 -0.51 -0.19 0.02zm1.76 0.56l8.11 2.55 0.18 -0.02 -8.17 -2.57 -0.13 0.04zm18.44 5.72l0.49 0.15 -0.04 -0.06 -0.47 -0.15 0.02 0.06zm6.43 1.92l8.39 2.45 -0.06 -0.06 -8.46 -2.48 0.13 0.09zm-75.45 -24.85c11.45,4.02 22.94,7.95 34.44,11.74l1.24 -0.14c-13.34,-4.36 -26.67,-8.89 -39.96,-13.54l4.28 1.94zm43.45 14.66l3.48 1.12 0.55 -0.37 -3.01 -0.96 -1.02 0.21zm5.97 1.91l1.49 0.48 0.81 -0.29 -1.13 -0.35 -1.18 0.16zm1.56 0.5l8.38 2.61 1.35 -0.12 -8.92 -2.79 -0.82 0.3zm17.91 5.53l0.43 0.13 -0.39 -0.66 -0.31 -0.09 0.27 0.62zm5.82 1.74l8.71 2.54 -0.18 -0.18 -0.32 -0.12 0.27 0.07 -0.08 -0.07c-1.69,-0.59 -3.37,-1.26 -5.08,-1.8l-4.9 -1.45 1.58 1.01zm-79.83 -26.68c13.6,4.81 27.26,9.47 40.92,13.92 6.88,-0.74 13.75,-1.53 20.05,0.73 -2.38,-1.06 -5.35,1.06 -8.31,3.06l-2.96 -0.95c5.19,-1.13 10.37,-2.1 15.05,-0.43 1.16,0.49 2.32,1.03 3.49,1.53 -3.44,-1.23 -7.31,-0.15 -11.23,1.23l9.02 2.8c4.94,-0.41 9.84,-0.42 14.4,1.34 2.43,1.06 4.72,2.8 6.97,4.9l-0.09 -0.05c-2.36,-0.67 -4.72,-1.36 -7.09,-2.05 0.7,0.22 1.41,0.49 2.11,0.76l-4.32 -1.28c-1.65,-0.98 -3.33,-1.81 -5.06,-2.43 0.2,0.08 0.47,0.5 0.77,1.14l0.3 0.1c-1.77,-2.97 -3.62,-5.52 -5.76,-6.46 -3.41,-1.36 -7.33,-0.21 -11.31,1.2l-1.07 -0.34c8.72,-1.28 18.01,-3.71 24.85,-1.14 15.61,5.51 29.8,13.9 43.92,22.44 3.52,1.46 8.7,3.56 10.04,3.79l1.81 0.16c-4.88,-1.74 -9.79,-3.44 -14.71,-5.14l-0.11 -0.04 -0.05 -0.01c-5.57,-1.91 -11.18,-3.76 -16.78,-5.62l-0.08 -0.03 -0.08 -0.03 -0.06 -0.03 -0.08 -0.03 -0.09 -0.03 -0.07 -0.03 -0.07 -0.03 -0.16 -0.05 0.08 0.04c-35.73,-11.76 -71.79,-22.46 -107,-34.77 -1.44,-0.49 -2.89,-0.97 -4.34,-1.43 1.24,0.57 3.13,1.42 4.27,1.94l2.87 1.29z"></path>
  <path class="fil0" d="M4473.96 220.64l-223.38 122.18 -25.56 -46.46 223.38 -122.19 25.56 46.47zm190.88 137.9l44.01 39.63 -39.61 44 -44.02 -39.62 39.62 -44.01zm132.83 251.92l56.22 50.6 -50.58 56.21 -56.21 -50.6 50.57 -56.21zm-31.91 338.51l242.58 -9.79 2.43 61.99 -242.61 9.79 -2.4 -61.98zm-208.83 -280.88l50.74 213.22 -51.59 12.3 -50.74 -213.24 51.59 -12.28zm-625.52 -325.53l44 39.62 -39.61 44.02 -44.02 -39.62 39.63 -44.02zm224.51 -256.79l43.98 39.63 -39.62 44.04 -44.01 -39.65 39.65 -44.02zm-267.21 171.59l-60.61 -242.13 60.12 -15.23 60.61 242.14 -60.12 15.22z"></path>
  <path class="fil1" d="M3551.73 1032.99c-61.55,6.89 -105.68,41.58 -133.06,102.99 -57.42,263.6 -114.86,527.22 -172.28,790.82 48.26,11.34 96.52,22.69 144.78,34.02 19.23,-19.13 38.46,-38.27 57.69,-57.41 13.12,-69.49 26.23,-138.97 39.34,-208.48 -36.05,-28.83 -73.25,-53.43 -109.31,-82.25 -7.41,-5.93 -6.84,-6.26 -5.11,-14.68 36.66,-176.66 122.68,-319.42 320.54,-328.57 -0.81,-4.1 -1.62,-8.2 -2.43,-12.3 -53.76,-11.11 -107.51,-22.23 -161.27,-33.34 -43.26,-37.02 -39.48,-128.26 21.11,-190.81zm614.59 -408.57l50.66 63.19 -51.93 83.44 -85.64 234.91 -119.62 -33.65 89.85 -197.55 -13.32 -67.37 30.78 -69.73 99.23 -13.24zm-1332.99 2142.71c59.44,-91.57 118.88,-183.12 178.32,-274.69 209.96,-102.77 367.77,-260.74 551.65,-391.1 -25.32,34.35 -50.64,68.72 -75.97,103.07 -1.58,38.39 -3.18,76.78 -4.77,115.18 -93.08,60.58 -187.09,119.78 -279.24,181.78 -29.09,19.56 -54.98,27.94 -82.02,37.03 -15.72,5.27 -14.27,1.62 -16.7,17.33 -14.42,93.69 -29.64,180.95 -43.98,275.23 10.77,-1.21 21.54,-2.43 32.31,-3.63 28.24,-70.72 58.09,-147.35 86.33,-218.07 127.09,-65.39 278.96,-115.58 419.26,-176.32 22.47,-20.95 44.95,-41.91 67.41,-62.86 53.29,-205.62 118.6,-411.42 159.89,-616.86 41.11,-121.53 112.96,-231.64 154.06,-353.16 32.49,-96.01 34.24,-203.47 66.72,-299.47l-68.2 69.17 -30.56 63.54c16.71,119.75 -15.39,229.74 -75.83,334.07 32.27,-109.54 51.55,-216.51 37.06,-316.83l44.87 -107.57 95.44 -84.67c-1.68,-10.8 -3.34,-21.6 -5.02,-32.4 -20.6,-8 -41.18,-15.98 -61.78,-23.97 -32.03,32.76 -61.57,68.18 -96.09,98.29 -36.51,31.86 -81.55,41.72 -126.71,34.78 -28.18,-4.33 -55.47,-13.15 -83.22,-19.74 55.27,-48.95 110.53,-97.91 165.8,-146.85 -153.55,-41.27 -387.71,98.82 -299.35,238.64 62,10.94 124,21.89 186,32.83 -0.75,14.98 -1.5,29.98 -2.25,44.97 -10.34,-0.74 -20.7,-1.47 -31.05,-2.22 87.21,141 75.15,256.26 -3.78,354.2 44.68,-123.4 32.89,-235.64 -29.18,-337.95 -163.02,20.98 -231.37,141.22 -265.48,297.36 89.53,65.8 179.07,131.6 268.6,197.4 12.44,23.06 24.88,46.11 37.32,69.17 27.85,-4.57 55.71,-9.15 83.56,-13.73 -32.43,11.97 -64.85,23.95 -97.28,35.91 -12.43,-25.37 -24.86,-50.74 -37.3,-76.11 -47.85,-33.22 -95.68,-66.45 -143.52,-99.67 -8.83,54.64 -17.66,109.27 -26.48,163.89 71.34,40.01 158.48,54.28 246.47,60.74 -85.34,17.25 -176.59,3.71 -266.01,-18.08 -161.14,173.78 -274.42,349.64 -483.43,521.34 -34.84,11.92 -69.7,23.84 -104.55,35.75 -26.64,71.34 -53.29,142.68 -79.94,214.02 1.15,12.79 2.32,25.56 3.47,38.35 11.72,13.98 23.42,27.96 35.13,41.95zm1091.91 -1164.29l137.95 182.77 -13.14 247.62 -221.92 -140.72 26.33 -132.48 70.78 -157.19zm-651.46 381.66l85.48 20.15 -68.12 73.96 -76.22 -17.04 58.87 -77.07zm42.76 -587.57l-100.87 455.89 -357.52 115.18 48.01 -240.19 410.37 -330.88zm280.57 59.39l-48.63 109.11 117.66 147.49 -147.49 -147.36 78.46 -109.25z"></path>
 </g>
</svg>
