<?xml version="1.0" encoding="UTF-8"?>
<!-- Generator: Adobe Illustrator 16.0.0, SVG Export Plug-In . SVG Version: 6.00 Build 0)  -->
<svg xmlns="http://www.w3.org/2000/svg" xmlns:xlink="http://www.w3.org/1999/xlink" version="1.1" id="Camada_1" x="0px" y="0px" width="677.3px" height="168px" viewBox="0 0 677.3 168" xml:space="preserve">
<path fill-rule="evenodd" clip-rule="evenodd" fill="#FFFFFF" d="M473.8,64.9c-6.8,0-12,0.3-15.9,1c-2.3,0.3-3.4,1.2-3.8,3.5  l-11.9,61.6c-0.7,3.3,0.1,4.2,2.7,4.6c3.8,0.4,9.9,0.9,16.8,0.9c11.4,0,19.2-1.6,24.2-4.9c5.8-3.7,9.5-10,9.5-19.5  c0-7.3-4-11.2-10.5-12.6v-0.2c8-3.2,12-9.9,12-19.7C496.9,67.9,485.5,64.9,473.8,64.9L473.8,64.9z M461,105h7.3  c9.2,0,12.7,1.5,12.7,8.4c0,4-1.7,7.5-4.5,9.4c-2.3,1.6-6.2,2.6-12.3,2.6c-2,0-4.6-0.1-5.9-0.3c-1.1-0.2-1.2-0.7-1-1.6L461,105  L461,105z M473.6,76c6.5,0,9.2,1.2,9.2,6.2c0,7.8-4.7,12.2-13.3,12.2h-6.5l3.3-16.7c0.2-1.1,0.7-1.5,1.5-1.6  C469.1,76,471.2,76,473.6,76L473.6,76z M515.4,84.9l-0.2,5.1h0.2c3.7-5.3,8.1-7.1,14.7-7.1h2.7c2.3,0,2.9,0.4,2.5,2.6l-1.2,6.4  c-0.2,1.4-1,1.9-2.8,1.9h-2.6c-4.8,0-7.6,1.2-9.4,2.8c-2.1,2-3.3,4.1-4.4,9.8l-5.2,27.1c-0.4,2.2-1.2,2.7-3.6,2.7h-6.9  c-2.4,0-2.9-0.5-2.5-2.7l9.4-48.6c0.3-1.6,1.1-2.1,2.9-2.1h3.9C514.9,83,515.5,83.3,515.4,84.9L515.4,84.9z M558.4,119.2  c-1.1,5.6-3.7,7.7-9.6,7.7h-2.5c-3.7,0-5.6-1-5.6-3.2c0-1.5,0.4-3.6,1.1-5.6c1.3-4,3.6-5.4,8.6-5.4h3c2.2,0,4.2,0.1,6.1,0.2  L558.4,119.2L558.4,119.2z M558.3,131.8l0.1,2.6c0.1,1.4,0.7,2,2.3,2h5.2c1.5,0,2.3-0.5,2.6-2.1l6.8-34.4c0.4-2.4,0.7-4.4,0.7-6.1  c0-3.9-1.2-6.4-3.6-8.3c-3.2-2.5-7.2-3.5-13.9-3.5c-6.2,0-13.3,1.2-18,2.6c-2,0.5-2.6,1.3-2.3,3.3l0.7,5.1c0.2,1.5,1,2.1,2.4,1.7  c4.5-1.2,9.8-2.1,13.2-2.1c5.3,0,8.2,0.7,8.2,3.9c0,1.3-0.3,3-0.7,4.7l-0.3,1.5c-1.9-0.1-3.9-0.3-5.9-0.3h-3.7  c-11.5,0-18.7,3.2-21.5,12c-1.3,4.4-2.3,9-2.3,12.5c0,6.2,4.7,10.3,12.6,10.3h3.5c7,0,11.3-2.1,13.7-5.6H558.3L558.3,131.8z   M610.3,136.3h-35.5c-2.5,0-3.4-0.8-3.1-2.7l0.4-2.3c0.4-2.3,1.2-3.4,3.6-6.2L602,93.9h-19.1c-2.4,0-2.4-0.8-2.1-2.6l1.1-5.6  c0.4-2.1,0.8-2.7,3.2-2.7h34.1c1.9,0,2.2,0.5,2,2.3l-0.4,2.8c-0.4,2.2-1.5,3.4-3.9,6.2l-26.5,31.2h22c2,0,2.4,0.7,2,2.7l-1.1,5.6  C612.9,135.6,612.2,136.3,610.3,136.3L610.3,136.3z M641.7,69.1c1-5.2-1.6-7.5-6.1-7.5h-0.5c-4.7,0-8.2,2.3-9.2,7.5l-0.1,0.7  c-1,4.9,0.8,7.6,6.3,7.6h0.5c5,0,8-2.7,8.9-7.6L641.7,69.1L641.7,69.1z M637.1,85.7c0.3-2.2-0.2-2.7-2.6-2.7h-6.9  c-2.4,0-3.2,0.5-3.5,2.7l-9.4,47.9c-0.4,2.2,0.1,2.7,2.5,2.7h6.9c2.4,0,3.2-0.5,3.6-2.7L637.1,85.7L637.1,85.7z M662.6,65.3L652,120  c-0.3,2-0.5,3.2-0.5,4.2c0,1,0.5,1.4,2.6,1.4h3.3c2,0,2.4,0.7,2,2.6l-1.1,5.4c-0.3,2.1-1.1,2.6-2.9,2.6H648  c-7.3,0-10.1-2.7-10.1-7.2c0-2.4,0.3-4.8,1-8.4l10.8-55.5c0.4-2.2,1.2-2.7,3.6-2.7h6.9C662.5,62.6,663,63.1,662.6,65.3z"></path>
<path fill-rule="evenodd" clip-rule="evenodd" fill="#FFFFFF" d="M199.5,107.6c2.3,0,3.2-0.7,3.6-2.5l1-4.5c0.7-2.8,0.9-4.2,0.9-5.3  c0-1.1-0.8-1.4-2.9-1.4h-22.3c0.8-3.9,1.7-8.6,2.4-11c0.4-1.5,1.1-2.2,3.1-2.2h22.6c3.5,0,3.7-0.7,4.2-3.3l1-5.3  c0.5-3.1,0.8-4.2,0.8-4.8c0-1.1-0.5-1.4-2.5-1.4h-26c-11.4,0-16.4,2.3-19.6,13.8c-1.2,4.5-2.7,11-4.4,20.2  c-2.5,14.4-3.7,23.6-3.7,28.7c0,6,2.8,7.8,10.9,7.8h28.4c3.1,0,3.8-0.8,4.4-3.4l0.8-4.6c0.4-2.7,0.7-4.1,0.7-5  c0-1.5-0.9-1.9-2.8-1.9H177c-1.4,0-2-0.4-2-1.6c0-1.1,0.1-2.5,0.4-4.6c0.3-2.4,0.9-5.4,1.3-7.7H199.5L199.5,107.6z M232.6,119.3  l-9.3,14.7c-1,1.5-1.9,2.3-4.4,2.3h-13.6c-1.1,0-1.9-0.5-1.9-1.4c0-0.7,0.2-1.3,3.5-5.7l13.6-18.3c0.5-0.9,1.2-1.7,1.2-2.9  c0-0.3-0.1-0.8-0.3-1.3l-7.3-17.6c-1.2-2.8-1.4-3.7-1.4-4.5c0-1.2,0.8-1.6,2.5-1.6h12.1c2.5,0,3.2,0.2,3.7,2.3l4.1,14.8  c0.2,0.7,0.4,1.1,0.9,1.1c0.3,0,0.7-0.2,1-0.8l9-14.7c1.5-2.3,2.2-2.7,5-2.7h12.4c1.4,0,2.1,0.5,2.1,1.3c0,0.7-0.8,1.9-2.9,4.8  l-14.6,18.8c-0.8,1.1-1.2,1.7-1.2,2.7c0,0.4,0.1,1,0.3,1.5l8,16.7c1.9,3.9,2.2,4.9,2.2,5.8c0,1.2-0.9,1.7-2.6,1.7h-10.9  c-2.5,0-3.2-0.8-3.9-2.7l-5.4-13.9c-0.2-0.7-0.4-1.1-0.9-1.1C233.3,118.6,233,118.7,232.6,119.3L232.6,119.3z M283.1,87.2h-0.2  l-0.3-2.2c-0.2-1.6-1-2.1-3.3-2.1H274c-2.5,0-3.4,0.6-3.8,2.7L255.5,160c-0.7,3.4-0.7,3.9-0.7,4.6c0,1.4,1.1,2.1,3.6,2.1h8.5  c3.7,0,4.7-0.7,5.3-3.8l5.5-27.7c2.4,1.2,7.1,2.2,10.7,2.2h0.5c6.9,0,11.7-0.9,16-4.5c4.8-3.9,6.5-10.6,8.2-19.2  c2.1-11,2.7-16,2.7-18.6c0-9-5.2-13.1-14.9-13.1h-0.8C292.4,82,287.2,83.8,283.1,87.2L283.1,87.2L283.1,87.2z M284,103.1  c1.1-5.8,3.3-7.4,7.8-7.4h0.8c3.8,0,5.6,1.4,5.6,4.6c0,1.7-0.8,6.6-1.9,11.8c-1.7,8-2.7,11.7-9.3,11.7h-0.5c-3.8,0-5.6-1.1-5.6-3.9  c0-1.1,0.3-2.9,0.9-5.6L284,103.1L284,103.1z M343.5,123.7c-7.2,0-9-1.4-9-4.2c0-1,0.1-2.3,0.4-3.8h25.8c2.3,0,3.3-0.7,3.7-3.1  l0.5-2.9c1-5.4,1.6-9.4,1.6-12.4c0-5-1.4-8.4-3.9-10.8c-3.3-3.2-8.6-4.5-15.1-4.5h-0.3c-8.3,0-14.3,1.6-18,4.2  c-4.4,3.1-7.6,8.3-9.9,19.6l-0.8,3.8c-0.7,3.5-1.2,7.7-1.2,11.4c0,12.1,7.4,16.2,20.4,16.2h1.5c6.5,0,13.5-1.3,17.4-2.5  c2.4-0.8,3.4-1.4,3.4-2.8c0-0.7-0.1-2-0.2-3.3l-0.4-5c-0.1-1.2-0.7-1.9-1.6-1.9c-0.8,0-1.5,0.2-2.1,0.3c-3.3,0.8-8.2,1.5-11.5,1.5  H343.5L343.5,123.7z M337,104.3l0.3-1.9c0.7-3.6,1.3-5.3,2.7-6.6c1.2-1.1,2.8-1.6,5.1-1.6h0.2c3.8,0,5.6,1.6,5.6,4.7  c0,1-0.1,1.9-0.4,3.4l-0.2,1c-0.2,0.9-0.5,1.1-1.4,1.1H337L337,104.3z M367.5,129.8c-0.4,2.2-0.8,3.9-0.8,4.6c0,1.3,0.9,2,3.2,2H380  c2.9,0,3.6-1.1,4-3.2l4.9-25.1c0.9-4.7,1.9-7.3,3.6-8.8c1.7-1.5,4.7-2.3,8.8-2.3h3c2.2,0,2.9-0.7,3.4-3l1-5.3  c0.4-2.6,0.7-3.7,0.7-4.5c0-0.9-0.5-1.2-2.1-1.2h-5c-5.9,0-10,1.4-13.2,5.6H389l-0.2-3.3c-0.1-1.7-1-2.3-3.2-2.3h-5.7  c-2.6,0-3.5,0.8-3.9,3.1L367.5,129.8L367.5,129.8z M440.6,129.6l-0.5,2.7c-0.7,3.2-1.4,4-4.1,4h-8.7c-8.6,0-12.6-1.4-14.5-4  c-1-1.4-1.5-3.2-1.5-5.4c0-2.1,0.2-4.4,0.9-7.7l4.5-22.6h-5.8c-1.7,0-2.4-0.4-2.4-1.4c0-0.5,0.1-1.3,0.4-3.1l0.8-3.6  c0.5-2.5,1-3.3,3.6-3.9l6-1.4l2.1-10.7c0.3-2.1,1.3-3.2,4.2-3.2h9.9c2.8,0,3.4,1.1,3.1,3.2L436.4,83h9c1.6,0,2.3,0.2,2.3,1.4  c0,0.4-0.2,1.6-0.7,3.8l-1,5.2c-0.5,2.7-1.3,3.2-3.3,3.2h-9l-4.1,21.4c-0.2,1.1-0.3,1.9-0.3,2.5c0,2,1.3,2.4,4.5,2.4h5  c2.1,0,2.6,0.4,2.6,1.9C441.4,125.4,441,127.2,440.6,129.6z"></path>
<path fill-rule="evenodd" clip-rule="evenodd" fill="#FFFFFF" d="M671.8,73.1c0.1,0.2,0.2,0.2,0.3,0.2h0.8c0.2,0,0.2-0.1,0.2-0.2  l-1.6-3c0.4-0.1,0.7-0.3,0.9-0.5c0.4-0.4,0.7-0.9,0.7-1.7v-0.2c0-1.8-1.4-2.2-2.8-2.2c-0.7,0-1.2,0-1.7,0.1c-0.2,0-0.3,0.2-0.3,0.3  v7.2c0,0.1,0,0.2,0.2,0.2h0.8c0.1,0,0.2-0.1,0.2-0.2v-2.9c0.3,0,0.6,0,1,0h0.1L671.8,73.1L671.8,73.1z M669.5,66.5  c0.3,0,0.5,0,0.8,0c1.1,0,1.6,0.4,1.6,1.3v0.2c0,0.4-0.1,0.8-0.3,1c-0.3,0.3-0.7,0.4-1.4,0.4c-0.3,0-0.6,0-0.9-0.1v-2.4  C669.3,66.6,669.3,66.5,669.5,66.5L669.5,66.5z M670.5,75.1c-3.4,0-5.6-2.2-5.6-5.6s2.2-5.6,5.6-5.6s5.6,2.2,5.6,5.6  S673.8,75.1,670.5,75.1L670.5,75.1z M670.5,76.3c-4,0-6.8-2.7-6.8-6.8c0-4.2,2.8-6.8,6.8-6.8c4,0,6.8,2.7,6.8,6.8  C677.3,73.7,674.5,76.3,670.5,76.3z"></path>
<path fill-rule="evenodd" clip-rule="evenodd" fill="#FFFFFF" d="M647,145.1c1.5,0,2.3,0.4,2.3,1.7c0,0.5-0.1,1.1-0.3,1.7  c-0.4,1.1-1.2,1.8-2.6,2.1v5.4c1.4,0.1,2,0.7,2,1.9c0,0.9-0.1,1.6-0.4,2.4c-0.3,0.7-0.8,1.2-1.6,1.5v6.1c2.5-0.3,5.1-0.9,6.9-2.7  c2.1-2,2.6-4.9,2.6-7.5c0-2.7-1.4-4.2-3.6-4.7v-0.1c3.3-1.5,4.5-4.7,4.5-7.9c0-3.8-2.6-5.8-9.5-5.8h-0.7h-0.2v5.9l0.2,0H647z   M646.5,150.5c-0.4,0.1-0.7,0.1-1.2,0.1h-1.7l0.9-5c0-0.3,0.2-0.4,0.5-0.5c0.4,0,0.9-0.1,1.4-0.1v-5.9c-2.3,0-4.5,0.1-6.4,0.3  c-1.2,0.1-1.6,0.4-1.8,1.5l-4,21.1h-13.4c-0.6,0-0.8-0.2-0.8-0.7c0-0.4,0-1,0.2-1.8c0.1-1,0.4-2.2,0.5-3.1h9.2c0.9,0,1.3-0.3,1.5-1  l0.4-1.8c0.3-1.1,0.4-1.7,0.4-2.2s-0.3-0.6-1.2-0.6h-9c0.3-1.6,0.7-3.5,1-4.4c0.2-0.6,0.4-0.9,1.2-0.9h9.1c1.4,0,1.5-0.3,1.7-1.3  l0.4-2.2c0.2-1.2,0.3-1.7,0.3-1.9c0-0.4-0.2-0.6-1-0.6H624c-2.8,0-4.6,0.3-5.9,1.6c0.2-0.4,0.3-0.8,0.3-1c0-0.4-0.4-0.6-1.3-0.6  h-4.3c-1.1,0-1.6,0.2-1.9,1.1c-2.6,7.7-4.8,14-6.7,19.4H604c-0.1-5.9-0.2-12.4-0.2-17.7c0-0.8-0.4-1.1-1.6-1.1h-3.2  c-1.1,0-1.6,0.3-1.9,1.1c-1.9,4.8-4.9,12.1-7.4,17.7h-0.2c0.2-5.6,0.4-11.7,0.8-19.4c0-1-0.4-1.1-1.5-1.1h-4.3  c-1.2,0-1.5,0.4-1.6,1.1c-0.2,8.6-0.1,17.9,0.4,26c0,1,0.5,1.4,2.1,1.4h4c1.7,0,2.3-0.5,2.8-1.5c1.8-4,4.1-9.4,6.2-14.5h0.3  c0,5.2,0.1,10.5,0.4,14.5c0.1,1,0.6,1.5,2.2,1.5h3.7c1.6,0,2.2-0.4,2.6-1.4c2.5-5.6,5.1-12,7.5-18c-0.3,1.3-0.6,2.9-0.9,4.7  c-1,5.8-1.5,9.6-1.5,11.6c0,2.4,1.1,3.2,4.4,3.2h25.3c1.3,0,2.6,0,4-0.2v-6.1c-0.6,0.3-1.4,0.4-2.5,0.4h-0.2c-0.6,0-1.2,0-1.6-0.1  c-0.4,0-0.6-0.1-0.6-0.4c0-0.1,0-0.4,0.2-1.1l0.9-4.7h2.9c0.3,0,0.7,0,0.9,0V150.5z"></path>
<path fill-rule="evenodd" clip-rule="evenodd" fill="#FFFFFF" d="M136.2,30.6l0.2,0.2c10,9.8,16.1,23.5,16.1,38.6  c0,18.3-9.2,35.3-24.4,45.3v22.6H93.6l32.3,9.4v5.4h-36l26.3,9.6v5H84.5v-5.1h16.6l-28-10.1v-5h35.4L73.1,137v-5.1l49.7-0.1v-20.9  l0.4-0.2c14.5-8.8,23.4-24.4,23.4-41.4c0-13.5-5.6-25.7-14.5-34.5l-0.2-0.2c-1.1-1.2-1.1-3.1,0.1-4.2  C133.2,29.3,135.1,29.4,136.2,30.6L136.2,30.6z M116.9,24.8c1.5,0.6,3.2-0.2,3.8-1.8c0.6-1.5-0.2-3.2-1.8-3.8l-0.1,0  c-6.6-2.7-13.1-4.1-20.6-4.1c-30,0-54.2,24.3-54.2,54.2c0,18.4,8.7,34.2,23.4,44.5c6.6,4.7,7.5,4,14.5-0.2  c12.5-7.6,23.2-23.5,29.4-37.5c-4.1,1.7-8.4,3.2-12.3,5.2c-0.9,2.2-1.7,4.3-2.6,6.5l-0.2,0.4l-0.4,0l-0.7,0.1  c-4.3,8.4-9.8,16.3-16.9,21.1c-4.3,2.9-4.7,1.7-9-1.5c-12-9-19.2-23.5-19.2-38.6C50,42.7,71.6,21,98.3,21c6.1,0,11.9,1.1,17.3,3.2  L116.9,24.8L116.9,24.8z M100.6,75.7c2.2-1.4,4.3-2.8,6.5-4.2c0-1.1,0.1-2.1,0.1-3.2c-1.9,1.5-3.7,2.9-5.6,4.4  C101.4,73.6,101,74.6,100.6,75.7z"></path>
<linearGradient id="SVGID_1_" gradientUnits="userSpaceOnUse" x1="29.4814" y1="25.3545" x2="46.4013" y2="37.6382">
	<stop offset="0" style="stop-color:#109244"></stop>
	<stop offset="0.2118" style="stop-color:#0A7C3B"></stop>
	<stop offset="0.4877" style="stop-color:#056632"></stop>
	<stop offset="0.7546" style="stop-color:#01592D"></stop>
	<stop offset="1" style="stop-color:#00552B"></stop>
</linearGradient>
<path fill-rule="evenodd" clip-rule="evenodd" fill="url(#SVGID_1_)" d="M58.2,30.8c-14.7-3.5-29.2-4.3-42.7-1  c-1.1,0.3-1,0.1-0.1,0.7C24.9,37,34.9,43,46.3,48.7c2.1,1,2.8-0.7,2.2-2c-0.5-1.1-1.8-1.6-1.5-2.4C50.5,38.4,54.1,34.6,58.2,30.8z"></path>
<linearGradient id="SVGID_2_" gradientUnits="userSpaceOnUse" x1="47.9956" y1="47.6592" x2="46.5748" y2="46.4947">
	<stop offset="0" style="stop-color:#109244"></stop>
	<stop offset="0.2118" style="stop-color:#0A7C3B"></stop>
	<stop offset="0.4877" style="stop-color:#056632"></stop>
	<stop offset="0.7546" style="stop-color:#01592D"></stop>
	<stop offset="1" style="stop-color:#00552B"></stop>
</linearGradient>
<path fill-rule="evenodd" clip-rule="evenodd" fill="url(#SVGID_2_)" d="M48.4,49.1c-0.5,0.5-1.4,0-1.9-0.3c0.9,0.4,1.6-1.3,0.9-2  c-0.7-0.7-0.7-1.7-0.5-2c0.2-0.3,2.3,1.2,2.1,1.9C48.9,47.2,48.6,48.8,48.4,49.1z"></path>
<linearGradient id="SVGID_3_" gradientUnits="userSpaceOnUse" x1="79.585" y1="57.6133" x2="77.1088" y2="53.832">
	<stop offset="0" style="stop-color:#109244"></stop>
	<stop offset="0.2118" style="stop-color:#0A7C3B"></stop>
	<stop offset="0.4877" style="stop-color:#056632"></stop>
	<stop offset="0.7546" style="stop-color:#01592D"></stop>
	<stop offset="1" style="stop-color:#00552B"></stop>
</linearGradient>
<path fill-rule="evenodd" clip-rule="evenodd" fill="url(#SVGID_3_)" d="M79.9,61c-1.6,1.8-4.7,0.2-6.7-0.9c5.7,2.4,1.6-6.6,3.8-8.7  c1-1.2,8.5-0.3,7.3,1.9L79.9,61z"></path>
<linearGradient id="SVGID_4_" gradientUnits="userSpaceOnUse" x1="58.6816" y1="37.5664" x2="75.4732" y2="44.7469">
	<stop offset="0" style="stop-color:#109244"></stop>
	<stop offset="0.2118" style="stop-color:#0A7C3B"></stop>
	<stop offset="0.4877" style="stop-color:#056632"></stop>
	<stop offset="0.7546" style="stop-color:#01592D"></stop>
	<stop offset="1" style="stop-color:#00552B"></stop>
</linearGradient>
<path fill-rule="evenodd" clip-rule="evenodd" fill="url(#SVGID_4_)" d="M47.1,44.2c-0.3,0.5-0.5,1.2,0.4,1.7l20.3,11.4  c1.6,0.8,3.3,1.8,4.9,2.6c4.1,2,5.1-0.7,3.9-3.6c-0.4-1-0.2-3.8,0.4-4.7l10.1-18.2c-10.1-3.6-19.9-7.1-24.7-6.3  C57.8,28.9,49,40,47.1,44.2z"></path>
<linearGradient id="SVGID_5_" gradientUnits="userSpaceOnUse" x1="61.8682" y1="38.0137" x2="74.8934" y2="44.6217">
	<stop offset="0" style="stop-color:#FEEE00"></stop>
	<stop offset="0.2647" style="stop-color:#F8E000"></stop>
	<stop offset="0.6474" style="stop-color:#F3D300"></stop>
	<stop offset="1" style="stop-color:#F1CF00"></stop>
</linearGradient>
<path fill-rule="evenodd" clip-rule="evenodd" fill="url(#SVGID_5_)" d="M52.8,41.7c0,0,13.2-7.1,25.9-7.9l5.4,4.9L78,51v0  c-0.4,0.1-0.7,0.2-1,0.5c-0.2,0.3-0.4,0.9-0.4,1.5l0,0l-4.9,2.7C65.8,50.3,60.1,45.9,52.8,41.7z"></path>
<linearGradient id="SVGID_6_" gradientUnits="userSpaceOnUse" x1="75.4604" y1="37.5684" x2="72.7825" y2="51.2421">
	<stop offset="0" style="stop-color:#001D7E"></stop>
	<stop offset="0.2771" style="stop-color:#00236F"></stop>
	<stop offset="0.6533" style="stop-color:#002862"></stop>
	<stop offset="1" style="stop-color:#002A5E"></stop>
</linearGradient>
<path fill-rule="evenodd" clip-rule="evenodd" fill="url(#SVGID_6_)" d="M74.8,35.9c3.6,0,6.7,2.3,7.9,5.4L77,51.6  c-0.2,0.2-0.3,0.6-0.4,1c-0.6,0.1-1.2,0.2-1.8,0.2c-4.7,0-8.4-3.8-8.4-8.4S70.1,35.9,74.8,35.9L74.8,35.9z M77,51.6  c0.3-0.3,0.6-0.5,1-0.5C77.5,51,77.2,51.2,77,51.6L77,51.6z M78,51c0.4-0.1,1,0,1.5,0.2C78.8,51,78.3,50.8,78,51L78,51z M79.6,51.3  L79.6,51.3L79.6,51.3L79.6,51.3z"></path>
<path fill-rule="evenodd" clip-rule="evenodd" fill="#FDFDFD" d="M81.4,43.7l-1.4,2.6c-4-1.8-8.5-2.7-13.5-2.6  c0.1-1.1,0.4-2.1,0.9-3.1C72.2,40.2,77,41.2,81.4,43.7z"></path>
<path fill-rule="evenodd" clip-rule="evenodd" fill="#07613F" d="M67.2,42.3c0-0.1,0-0.2,0-0.3c0-0.1,0-0.1,0.1-0.1s0.1-0.1,0.1-0.1  c0.1,0,0.1,0,0.2,0c0.1,0,0.3,0,0.3,0.1s0.1,0.2,0.1,0.4c0,0.2,0,0.3-0.1,0.4c-0.1,0.1-0.2,0.1-0.3,0.2c-0.1,0-0.3,0-0.4-0.1  C67.3,42.6,67.2,42.5,67.2,42.3L67.2,42.3z M67.4,42.3c0,0.1,0,0.2,0.1,0.3c0.1,0.1,0.1,0.1,0.2,0.1c0.1,0,0.1,0,0.2-0.1  c0-0.1,0.1-0.2,0.1-0.3c0-0.1,0-0.2-0.1-0.3c-0.1-0.1-0.1-0.1-0.2-0.1c-0.1,0-0.1,0-0.2,0.1C67.4,42.1,67.4,42.2,67.4,42.3  L67.4,42.3z M68.3,42.8l0-1l0.4,0c0.1,0,0.2,0,0.2,0c0,0,0.1,0,0.1,0.1c0,0,0,0.1,0,0.2c0,0.1,0,0.1-0.1,0.2c0,0-0.1,0.1-0.2,0.1  c0,0,0.1,0.1,0.1,0.1c0,0,0.1,0.1,0.1,0.2l0.1,0.2l-0.2,0l-0.1-0.2c-0.1-0.1-0.1-0.1-0.1-0.1c0,0,0,0-0.1,0s-0.1,0-0.1,0l0,0l0,0.4  L68.3,42.8L68.3,42.8z M68.5,42.2l0.1,0c0.1,0,0.2,0,0.2,0c0,0,0,0,0.1,0c0,0,0,0,0-0.1c0,0,0-0.1,0-0.1c0,0,0,0-0.1,0  c0,0-0.1,0-0.1,0l-0.2,0L68.5,42.2L68.5,42.2z M69.4,41.7l0.4,0c0.1,0,0.1,0,0.2,0c0.1,0,0.1,0.1,0.1,0.1c0,0,0.1,0.1,0.1,0.2  c0,0.1,0,0.1,0,0.2c0,0.1,0,0.2,0,0.2c0,0.1-0.1,0.1-0.1,0.2c0,0-0.1,0.1-0.1,0.1c0,0-0.1,0-0.2,0l-0.4,0L69.4,41.7L69.4,41.7z   M69.5,41.9l0,0.7l0.1,0c0.1,0,0.1,0,0.1,0c0,0,0.1,0,0.1,0s0-0.1,0.1-0.1c0,0,0-0.1,0-0.2s0-0.1,0-0.2c0,0,0-0.1-0.1-0.1  c0,0-0.1,0-0.1-0.1C69.8,41.9,69.7,41.9,69.5,41.9L69.5,41.9L69.5,41.9z M70.3,42.8l0.1-1l0.7,0l0,0.2l-0.5,0l0,0.2l0.5,0l0,0.2  l-0.5,0l0,0.3l0.5,0l0,0.2L70.3,42.8L70.3,42.8z M71.2,42.8l0.1-1l0.3,0l0.1,0.7l0.2-0.7l0.3,0l-0.1,1l-0.2,0l0.1-0.8l-0.3,0.8  l-0.2,0l-0.1-0.8l-0.1,0.8L71.2,42.8L71.2,42.8z M72.7,43l0.1-1l0.7,0.1l0,0.2L73,42.2l0,0.2l0.5,0.1l0,0.2L73,42.6l0,0.3l0.5,0.1  l0,0.2L72.7,43L72.7,43z M74,43.2l0.2-1l0.3,0.1c0.1,0,0.2,0,0.2,0.1c0.1,0,0.1,0.1,0.1,0.1c0,0.1,0,0.1,0,0.2c0,0.1,0,0.1-0.1,0.1  s-0.1,0.1-0.1,0.1c0,0-0.1,0-0.1,0c0,0-0.1,0-0.2,0l-0.1,0l-0.1,0.4L74,43.2L74,43.2z M74.3,42.4l-0.1,0.3l0.1,0c0.1,0,0.1,0,0.2,0  c0,0,0.1,0,0.1,0c0,0,0,0,0-0.1c0,0,0-0.1,0-0.1c0,0,0,0-0.1-0.1C74.5,42.5,74.5,42.5,74.3,42.4L74.3,42.4L74.3,42.4z M74.9,43.4  l0.2-1l0.4,0.1c0.1,0,0.2,0.1,0.2,0.1c0,0,0.1,0.1,0.1,0.1c0,0.1,0,0.1,0,0.2c0,0.1-0.1,0.1-0.1,0.2c-0.1,0-0.1,0.1-0.2,0  c0,0,0.1,0.1,0.1,0.1c0,0,0,0.1,0.1,0.2l0.1,0.2l-0.2-0.1l-0.1-0.3c0-0.1-0.1-0.1-0.1-0.2c0,0,0,0,0-0.1s0,0-0.1,0l0,0l-0.1,0.4  L74.9,43.4L74.9,43.4z M75.2,42.9l0.1,0c0.1,0,0.1,0,0.2,0c0,0,0,0,0.1,0c0,0,0,0,0-0.1c0,0,0-0.1,0-0.1c0,0,0,0-0.1-0.1  c0,0-0.1,0-0.1,0l-0.1,0L75.2,42.9L75.2,42.9z M75.9,43.2c0-0.1,0.1-0.2,0.1-0.2c0,0,0.1-0.1,0.1-0.1c0,0,0.1,0,0.1-0.1  c0.1,0,0.1,0,0.2,0c0.1,0,0.2,0.1,0.3,0.2c0.1,0.1,0.1,0.3,0,0.4c0,0.2-0.1,0.3-0.2,0.3c-0.1,0.1-0.2,0.1-0.4,0  c-0.1,0-0.2-0.1-0.3-0.2C75.9,43.5,75.9,43.3,75.9,43.2L75.9,43.2z M76.1,43.2c0,0.1,0,0.2,0,0.3c0,0.1,0.1,0.1,0.2,0.1  c0.1,0,0.1,0,0.2,0c0.1,0,0.1-0.1,0.1-0.2c0-0.1,0-0.2,0-0.3c0-0.1-0.1-0.1-0.2-0.1c-0.1,0-0.1,0-0.2,0S76.1,43.1,76.1,43.2  L76.1,43.2z M77.4,43.8l0.1-0.2l0.4,0.1l-0.1,0.4c-0.1,0-0.1,0-0.2,0c-0.1,0-0.2,0-0.2,0c-0.1,0-0.2-0.1-0.2-0.2  c-0.1-0.1-0.1-0.1-0.1-0.2c0-0.1,0-0.2,0-0.3c0-0.1,0.1-0.2,0.1-0.3c0.1-0.1,0.1-0.1,0.2-0.1c0.1,0,0.1,0,0.2,0  c0.1,0,0.2,0.1,0.2,0.2c0,0.1,0.1,0.2,0.1,0.3l-0.2,0c0-0.1,0-0.1,0-0.1c0,0-0.1-0.1-0.1-0.1c-0.1,0-0.2,0-0.2,0s-0.1,0.1-0.1,0.2  c0,0.1,0,0.2,0,0.3c0,0.1,0.1,0.1,0.2,0.2c0,0,0.1,0,0.1,0c0,0,0.1,0,0.1,0l0-0.1L77.4,43.8L77.4,43.8z M77.8,44.4l0.2,0.1l0.1-0.4  l0,0c0,0,0.1,0,0.1,0c0,0,0,0,0,0.1c0,0,0,0.1,0,0.2l0.1,0.3l0.2,0.1l0-0.2c0-0.1,0-0.2,0-0.2c0,0,0-0.1-0.1-0.1c0.1,0,0.2,0,0.2,0  c0.1,0,0.1-0.1,0.1-0.2c0-0.1,0-0.1,0-0.2c0-0.1,0-0.1-0.1-0.1c0,0-0.1-0.1-0.2-0.1l-0.4-0.2L77.8,44.4L77.8,44.4z M78.2,43.9  l0.1-0.2l0.1,0.1c0.1,0,0.1,0,0.1,0.1c0,0,0,0,0.1,0.1c0,0,0,0.1,0,0.1c0,0,0,0.1,0,0.1c0,0,0,0-0.1,0c0,0-0.1,0-0.2-0.1L78.2,43.9  L78.2,43.9z M78.7,44.7l0.4-0.9l0.7,0.3l-0.1,0.2L79.2,44l-0.1,0.2l0.4,0.2l-0.1,0.2l-0.4-0.2L79,44.6l0.5,0.2L79.4,45L78.7,44.7  L78.7,44.7z M79.7,44.8c0,0.1,0,0.2,0,0.3c0,0.1,0.1,0.2,0.2,0.2c0.1,0,0.1,0.1,0.2,0.1c0.1,0,0.1,0,0.2,0c0,0,0.1-0.1,0.1-0.1  c0-0.1,0-0.1,0-0.2c0-0.1,0-0.1-0.1-0.1c0,0-0.1-0.1-0.2-0.2c-0.1-0.1-0.1-0.1-0.1-0.1c0,0,0,0,0-0.1c0,0,0,0,0.1,0c0,0,0.1,0,0.1,0  c0,0,0.1,0.1,0.1,0.1c0,0,0,0.1,0,0.1l0.2,0.1c0-0.1,0-0.2,0-0.3c0-0.1-0.1-0.1-0.2-0.2c-0.1,0-0.1,0-0.2-0.1s-0.1,0-0.2,0  c0,0-0.1,0.1-0.1,0.1c0,0.1,0,0.1,0,0.2c0,0.1,0.1,0.1,0.2,0.2c0.1,0.1,0.1,0.1,0.1,0.1c0,0,0,0,0,0.1s0,0,0,0.1c0,0,0,0.1-0.1,0.1  c0,0-0.1,0-0.1,0c-0.1,0-0.1-0.1-0.1-0.1c0,0,0-0.1,0-0.2L79.7,44.8L79.7,44.8z M80.5,45.2l0.2,0.1c0,0.1,0,0.1,0,0.2  c0,0,0.1,0.1,0.1,0.1c0.1,0,0.1,0,0.1,0c0,0,0.1,0,0.1-0.1c0,0,0,0,0-0.1c0,0,0,0,0-0.1c0,0-0.1-0.1-0.1-0.1  c-0.1-0.1-0.1-0.1-0.2-0.2c0-0.1,0-0.2,0-0.2c0,0,0.1-0.1,0.1-0.1c0,0,0.1,0,0.2,0c0.1,0,0.1,0,0.2,0.1c0.1,0.1,0.2,0.1,0.2,0.2  c0,0.1,0,0.2,0,0.3l-0.2-0.1c0-0.1,0-0.1,0-0.1c0,0,0-0.1-0.1-0.1c-0.1,0-0.1,0-0.1,0c0,0,0,0-0.1,0c0,0,0,0,0,0.1  c0,0,0.1,0.1,0.1,0.1c0.1,0.1,0.1,0.1,0.2,0.2c0,0,0,0.1,0.1,0.1c0,0.1,0,0.1,0,0.2c0,0.1-0.1,0.1-0.1,0.1c0,0-0.1,0-0.2,0  c-0.1,0-0.1,0-0.2-0.1c-0.1-0.1-0.2-0.1-0.2-0.2C80.4,45.4,80.5,45.3,80.5,45.2L80.5,45.2z M81.4,45.5c-0.1,0.1-0.1,0.3-0.1,0.4  c0,0.1,0.1,0.2,0.2,0.3c0.1,0.1,0.2,0.1,0.4,0s0.2-0.1,0.3-0.3c0.1-0.1,0.1-0.3,0.1-0.4c0-0.1-0.1-0.2-0.2-0.3  c-0.1,0-0.1-0.1-0.2-0.1c0,0-0.1,0-0.2,0c-0.1,0-0.1,0-0.1,0.1C81.5,45.3,81.4,45.4,81.4,45.5L81.4,45.5z M81.6,45.6  c0.1-0.1,0.1-0.2,0.2-0.2c0.1,0,0.1,0,0.2,0c0.1,0,0.1,0.1,0.1,0.2s0,0.2-0.1,0.3C82,45.9,81.9,46,81.9,46c-0.1,0-0.1,0-0.2,0  c-0.1,0-0.1-0.1-0.1-0.2C81.5,45.8,81.5,45.7,81.6,45.6z"></path>
<polygon fill-rule="evenodd" clip-rule="evenodd" fill="#FDFDFD" points="67.7,44.1 67.7,44.4 68,44.5 67.7,44.6 67.8,44.9   67.6,44.7 67.3,44.9 67.4,44.6 67.2,44.3 67.5,44.4 "></polygon>
<polygon fill-rule="evenodd" clip-rule="evenodd" fill="#FDFDFD" points="71.6,44.4 71.7,44.7 72,44.8 71.7,44.9 71.8,45.2 71.6,45   71.3,45.2 71.4,44.9 71.2,44.6 71.5,44.7 "></polygon>
<polygon fill-rule="evenodd" clip-rule="evenodd" fill="#FDFDFD" points="77.5,41.1 77.5,41.5 77.9,41.5 77.6,41.7 77.6,42   77.4,41.8 77.1,41.9 77.3,41.6 77.1,41.4 77.4,41.4 "></polygon>
<polygon fill-rule="evenodd" clip-rule="evenodd" fill="#FDFDFD" points="68.8,46.2 68.9,46.6 69.2,46.6 68.9,46.8 68.9,47.1   68.7,46.9 68.5,47 68.6,46.7 68.4,46.5 68.7,46.5 "></polygon>
<polygon fill-rule="evenodd" clip-rule="evenodd" fill="#FDFDFD" points="71.5,48.9 71.5,49.2 71.8,49.3 71.6,49.4 71.6,49.8   71.4,49.5 71.1,49.7 71.3,49.4 71,49.2 71.3,49.2 "></polygon>
<polygon fill-rule="evenodd" clip-rule="evenodd" fill="#FDFDFD" points="74.9,48.2 74.9,48.5 75.2,48.6 75,48.7 75,49 74.8,48.8   74.5,49 74.7,48.7 74.4,48.5 74.7,48.5 "></polygon>
<polygon fill-rule="evenodd" clip-rule="evenodd" fill="#FDFDFD" points="75.9,46.3 75.9,46.7 76.2,46.7 75.9,46.9 76,47.2   75.8,46.9 75.5,47.1 75.6,46.8 75.4,46.6 75.7,46.6 "></polygon>
<polygon fill-rule="evenodd" clip-rule="evenodd" fill="#FDFDFD" points="80.8,47.3 80.9,47.6 81.2,47.6 80.9,47.8 80.9,48.1   80.7,47.9 80.5,48 80.6,47.7 80.4,47.5 80.7,47.6 "></polygon>
<polygon fill-rule="evenodd" clip-rule="evenodd" fill="#FDFDFD" points="82,47.5 82.1,47.7 82.2,47.7 82.1,47.8 82.2,48 82,47.9   81.9,48 81.9,47.8 81.7,47.7 81.9,47.7 "></polygon>
<polygon fill-rule="evenodd" clip-rule="evenodd" fill="#FDFDFD" points="81.1,48.2 81.2,48.4 81.4,48.3 81.3,48.5 81.3,48.7   81.2,48.6 81,48.7 81.1,48.5 80.9,48.4 81.1,48.4 "></polygon>
<polygon fill-rule="evenodd" clip-rule="evenodd" fill="#FDFDFD" points="80.6,48.9 80.7,49.1 80.9,49.1 80.7,49.2 80.8,49.4   80.6,49.3 80.5,49.5 80.5,49.3 80.4,49.1 80.6,49.1 "></polygon>
<polygon fill-rule="evenodd" clip-rule="evenodd" fill="#FDFDFD" points="79.9,49.4 80,49.6 80.2,49.6 80,49.7 80.1,49.9 79.9,49.8   79.8,49.9 79.8,49.7 79.7,49.6 79.9,49.6 "></polygon>
<polygon fill-rule="evenodd" clip-rule="evenodd" fill="#FDFDFD" points="79,49.2 79.1,49.4 79.3,49.4 79.2,49.5 79.2,49.7   79.1,49.6 78.9,49.8 79,49.5 78.8,49.4 79,49.4 "></polygon>
<polygon fill-rule="evenodd" clip-rule="evenodd" fill="#FDFDFD" points="78.1,49.5 78.2,49.7 78.4,49.7 78.2,49.8 78.3,50   78.1,49.9 78,50 78,49.8 77.9,49.7 78,49.7 "></polygon>
<polygon fill-rule="evenodd" clip-rule="evenodd" fill="#FDFDFD" points="76.7,49.3 76.8,49.5 77,49.5 76.8,49.6 76.9,49.8   76.7,49.7 76.6,49.8 76.6,49.6 76.5,49.5 76.6,49.5 "></polygon>
<polygon fill-rule="evenodd" clip-rule="evenodd" fill="#FDFDFD" points="74.9,51.5 74.9,51.6 75,51.6 74.9,51.7 75,51.8 74.9,51.7   74.8,51.8 74.8,51.7 74.7,51.6 74.8,51.6 "></polygon>
<polygon fill-rule="evenodd" clip-rule="evenodd" fill="#FDFDFD" points="69.5,45.9 69.6,46.1 69.7,46.1 69.6,46.1 69.6,46.2   69.5,46.2 69.4,46.3 69.5,46.1 69.4,46.1 69.5,46.1 "></polygon>
<polygon fill-rule="evenodd" clip-rule="evenodd" fill="#FDFDFD" points="70.2,48.2 70.3,48.4 70.5,48.4 70.3,48.5 70.4,48.7   70.2,48.6 70.1,48.7 70.1,48.5 70,48.4 70.1,48.4 "></polygon>
<polygon fill-rule="evenodd" clip-rule="evenodd" fill="#FDFDFD" points="70.4,47.3 70.5,47.5 70.7,47.5 70.5,47.6 70.6,47.8   70.4,47.7 70.3,47.8 70.3,47.6 70.2,47.5 70.4,47.5 "></polygon>
<polygon fill-rule="evenodd" clip-rule="evenodd" fill="#FDFDFD" points="67.6,47.2 67.7,47.4 67.9,47.4 67.7,47.5 67.8,47.7   67.6,47.6 67.5,47.7 67.5,47.5 67.4,47.4 67.6,47.4 "></polygon>
<polygon fill-rule="evenodd" clip-rule="evenodd" fill="#FDFDFD" points="74.4,47.2 74.4,47.3 74.5,47.3 74.5,47.4 74.5,47.5   74.4,47.4 74.3,47.5 74.3,47.4 74.2,47.3 74.4,47.3 "></polygon>
<polygon fill-rule="evenodd" clip-rule="evenodd" fill="#FDFDFD" points="74,46.5 74,46.7 74.2,46.6 74.1,46.8 74.1,47 74,46.9   73.8,47 73.9,46.8 73.7,46.7 73.9,46.7 "></polygon>
<polygon fill-rule="evenodd" clip-rule="evenodd" fill="#FDFDFD" points="74.8,45.6 74.9,45.8 75.1,45.8 74.9,45.9 75,46.1 74.8,46   74.7,46.2 74.7,46 74.6,45.8 74.8,45.8 "></polygon>
<linearGradient id="SVGID_7_" gradientUnits="userSpaceOnUse" x1="87.3423" y1="41.3486" x2="100.6512" y2="46.2282">
	<stop offset="0" style="stop-color:#109244"></stop>
	<stop offset="0.2118" style="stop-color:#0A7C3B"></stop>
	<stop offset="0.4877" style="stop-color:#056632"></stop>
	<stop offset="0.7546" style="stop-color:#01592D"></stop>
	<stop offset="1" style="stop-color:#00552B"></stop>
</linearGradient>
<path fill-rule="evenodd" clip-rule="evenodd" fill="url(#SVGID_7_)" d="M102.4,56.6c0.6-6.7,1.7-14.3,4.8-20.4  c1.3-2.6-1.1-2.8-1.1-2.8c-5.8-0.3-9.5-1.4-14.7-3.2c-2.3-0.8-3.6,1-4.2,1.9c-1.2,2.3-8.3,14.5-10.3,19.5h0  c1.3-1.9,6.4,1.2,11.8,4.2l0.6-2.8l14.8-12l-3.8,17l-4.2,1.4C99.5,60.6,102.1,60.3,102.4,56.6z"></path>
<path fill-rule="evenodd" clip-rule="evenodd" fill="#FFCB29" d="M79.6,46.2C82,45.4,95,45,95.1,44.9C95.6,44,88.6,33,87.4,32  C84.7,36.6,82.1,41.4,79.6,46.2z"></path>
<path fill-rule="evenodd" clip-rule="evenodd" fill="#00A759" d="M49.7,53.3c0.2,0,0.5,0.2,0.7,0.2c0,0,0,0,0,0c0,0,0,0,0,0  c0,0,0,0,0,0c0,0,0,0,0,0c0.1,0,0-0.3,0-0.4c-1.6-0.6-5.1-2.6-7.6-3.5c-1.3-0.5-2.7-1-4.1-1.5c-1.6-0.7-2.6-2.3-4.2-2.9  c-1-0.5-2.1-1.1-3.1-1.6c0,0,0,0,0,0c0,0,0,0,0,0c0,0,0,0,0,0c0,0-0.1,0-0.1,0c0,0,0.1,0,0.1,0c0,0,0,0,0,0.1c0.4,0,0.3,0,0,0  c-0.4,0.5,3.5,2.3,4,2.6c0,0,0,0,0,0c-3.8-2-4.8-2.6-8.9-4.1l0,0c0,0,0.1-0.3,0.1-0.3c0,0-0.2,0.2-0.2,0.2c0.2,0,0.2,0,0,0  c0.8,0.3,1.9,0.3,2.7,0.6c0,0,0,0,0,0c0.1,0,0.1,0,0.2,0c-0.6,0,0,0,0.2,0c0,0,0,0,0,0c0.1,0-0.3-0.1-0.3-0.1c0,0,0.1,0,0.1,0  c0,0-0.1,0-0.1,0c0,0,0,0,0,0c-0.1,0-0.3-0.1-0.4-0.1c0,0,0.1,0,0.1,0c0.1,0,0.8,0.2,0.8,0.2c0,0-1.7-0.7-1.8-0.8c0,0,0,0-0.1,0  c-0.1,0-0.1,0-0.2-0.1c0,0,0.1,0,0.1,0c0,0,0,0,0,0c0,0-0.1,0-0.1,0c-0.1,0-0.1-0.1-0.2-0.1c0,0,0,0,0,0c0,0,0,0,0,0  c0,0,0.1,0,0.1,0c-2.1-0.9-4.3-1.5-6.4-2.4c-0.1-0.1-0.3-0.2-0.4-0.3c-0.1-0.1-0.3-0.3-0.5-0.4c-2.6-1.4-5.4-3-8.1-4.2  c2.9,1.4,5.7,3.2,8.5,4.7c0.1,0,0.2,0.1,0.2,0.1c-0.1,0-0.2-0.1-0.2-0.1c-0.8-0.4-1.6-0.7-2.4-1.1c0.1,0,0.1,0.1,0.2,0.1  c-0.1,0-0.2-0.1-0.3-0.1c0.6,0.3,1.3,0.7,1.9,1c-0.7-0.3-1.4-0.8-2.1-1.1c0.6,0.3,1.1,0.6,1.7,0.9c-0.2-0.1-0.3-0.1-0.5-0.2  c0.1,0,0.2,0.1,0.2,0.1c-0.1-0.1-0.2-0.1-0.3-0.2c-0.1,0-0.2-0.3-0.3-0.3c-0.1-0.1-0.1,0.1-0.2,0c-0.2-0.1-0.4-0.2-0.5-0.3  c0.2,0.1,0.5,0.3,0.7,0.4c-0.2-0.1-0.5-0.3-0.8-0.4c-0.6-0.3-0.9-1.1-1.6-1.4c-0.6-0.3-1.5,0-2-0.3c0.7,0.4,1.7,0.2,2.3,0.6  c-0.1,0-0.6,0.2-0.6,0.2c-0.7-0.4-1.4-0.7-2.1-1.1c-1.4-0.6,0.2-0.3,0.7,0c-1.2-0.6-0.7,0.3-1.8-0.3c-0.2-0.1-0.2-0.4-0.4-0.5  c-0.4-0.2-1-0.3-1.4-0.5c0.2,0.1,0.7-0.3,0.9-0.2c0.4,0.3,0.6,1,1,1.2c0,0,0.7,0.3,0.4,0.2c0.3,0.1,0.9-0.2,1.2,0  c0,0-0.4,0.4-0.5,0.4c0.5,0.2,1.1,0.5,1.6,0.7c0.3,0.2,1-0.2,1.3,0c0.4,0.2,0.5,0.9,0.9,1.1c-0.4-0.2-0.5-0.9-0.9-1.1  c0.1,0,0.1,0.1,0.2,0.1c0.5,0.3,0.7,1,1.2,1.3c0.2,0.1,0.4,0.2,0.6,0.3c-0.6-0.3-1-1.2-1.6-1.5c0.3,0.1,0.2,0.7,0.4,0.8  c-0.1,0-0.1-0.1-0.2-0.1c0.1,0,0.2,0.1,0.3,0.1c-0.1,0-0.1-0.1-0.2-0.1c0.1,0,0.2,0.1,0.3,0.1c-0.6-0.3-1-1.3-1.6-1.6  c-1.8-0.9-3.7-1.2-5.5-2.1c0,0,0,0,0,0c0,0-0.2-0.1-0.2-0.2c-0.3-0.2-0.5-0.4-0.8-0.6c0.2,0.2,0.7,0.1,0.9,0.3c0,0-0.6-0.1-0.8-0.2  c-1.4-1-2.7-0.7-4.4-1.5c-1-0.5-2.3-0.9-3.4-1c-0.5-0.3-1-0.5-1.5-0.8c-1.7-0.7-1-0.4,0,0c0.5,0.2,1,0.5,1.5,0.8c-0.1,0-0.1,0-0.2,0  c-1.4-0.7-2-1.1,0,0c0,0-0.1,0-0.1,0c-1.9-0.8-1.5-0.4-0.5,0.3c1.7,0.9,3.9,1.9,5.4,2.9c1.2,0.7,2.4,1.5,3.6,2.3  c1.5,0.8,3.6,0.7,5,1.7c1.1,0.5,2.2,1,3.2,1.5c0,0,0,0,0,0c0,0,0,0,0,0c0,0,0,0,0,0c0,0,0.1,0,0.1,0c0,0-0.1,0-0.1,0c0,0,0,0,0,0.1  c-0.1-0.3-0.1-0.3,0,0c-0.3,0.5-4.1-1.4-4.6-1.7c0,0,0,0,0,0c3.9,1.8,5,2.3,8.6,4.5l0,0c0,0,0.2-0.2,0.2-0.2c0,0-0.2,0.2-0.2,0.2  c-0.1-0.2-0.1-0.2,0,0c-0.7-0.5-1.3-1.3-1.9-1.7c0,0,0,0,0,0c0,0-0.1-0.1-0.1-0.1c0.3,0.4,0,0-0.1-0.1c0,0,0,0,0,0  c0-0.1,0.2,0.1,0.2,0.1c0,0-0.1-0.1-0.1-0.1c0,0,0,0.1,0.1,0.1c0,0,0,0,0,0c0,0.1,0.2,0.2,0.3,0.2c0,0,0-0.1-0.1-0.1  c-0.1-0.1-0.6-0.4-0.6-0.5c0,0,1.6,0.9,1.7,1c0,0,0,0,0,0.1c0.1,0,0.1,0.1,0.2,0.1c0,0,0-0.1,0-0.1c0,0,0,0,0,0c0,0,0,0.1,0,0.1  c0.1,0,0.1,0.1,0.2,0.1c0,0,0,0,0,0c0,0,0,0,0,0c0,0,0-0.1,0-0.1c1.9,1.1,3.7,2.4,5.6,3.5c0.1,0,0.4,0.1,0.5,0.1  c0.1,0.1,0.4,0.1,0.6,0.2c2.3,1.1,4.8,2.1,7.1,3.3l0.1,0c0.3,0.1,0.6,0.2,0.9,0.3c0,0-0.1,0-0.1,0c0.3,0.1,0.5,0.2,0.8,0.3  c0,0,0.3,0.1,0.2,0.1c-0.1,0-0.2,0-0.3,0C41.1,50.4,45.7,51.7,49.7,53.3L49.7,53.3z M29.2,46.1L29.2,46.1c0.5,0.2,1.1,0.5,1.8,0.8  l0,0C30.4,46.6,29.8,46.4,29.2,46.1L29.2,46.1z M31.5,47.1L31.5,47.1l0.2,0.1l0,0L31.5,47.1L31.5,47.1z M31.8,47.3L31.8,47.3l0.1,0  L31.8,47.3L31.8,47.3L31.8,47.3z M31.9,47.3L31.9,47.3l0.5,0.2l0,0L31.9,47.3L31.9,47.3z M32.9,47.7L32.9,47.7L32.9,47.7L32.9,47.7  L32.9,47.7L32.9,47.7z M33.3,47.9L33.3,47.9l0.5,0.2l0,0L33.3,47.9L33.3,47.9z M29.1,46.1l-0.2-0.1c0.7,0.3,1.5,0.7,2.2,1l-0.1,0  C30.4,46.6,29.8,46.3,29.1,46.1L29.1,46.1z M31.5,47.1L31.5,47.1l0.2,0.1l0,0L31.5,47.1L31.5,47.1z M31.9,47.3L31.9,47.3l0.1,0  L31.9,47.3L31.9,47.3L31.9,47.3z M31.9,47.3L31.9,47.3l0.5,0.2l-0.1,0L31.9,47.3L31.9,47.3z M32.9,47.7L32.9,47.7L32.9,47.7  L32.9,47.7L32.9,47.7L32.9,47.7z M33.3,47.8L33.3,47.8l0.2,0.1c0.1,0,0.2,0.1,0.3,0.1l0,0l0,0l0,0l0,0L33.3,47.8L33.3,47.8z   M28.9,45.9c0.7,0.3,1.5,0.7,2.2,1c0.4,0,0.9,0.1,1.2,0.2c-0.1-0.1-0.3,0-0.6,0.1l-0.2-0.1c0.3,0,0.7,0,0.9,0.1  c0.1,0,0.1,0.1,0.2,0.1c-0.2-0.1-0.4-0.1-0.7-0.1l0.5,0.2c0.3,0,0.6,0.1,0.8,0.2c0.1,0.1,0.2,0.2,0.3,0.3l0,0  c-0.1-0.1-0.3-0.1-0.4-0.2c0,0,0.1,0,0.1,0.1l-0.2-0.1c-0.1-0.1-0.2-0.1-0.3-0.2c0,0,0,0,0,0.1l0,0c-0.1-0.1-0.1-0.3-0.2-0.3  c-0.2-0.1-0.4-0.1-0.7-0.1l-0.1,0c0.5,0,1.1,0,1.5,0.2c0.8,0.4,1.6,0.9,2.3,1.4c0.2,0.1,0.5,0.2,0.5,0.3l0.1,0  c-0.3-0.1-0.5-0.2-0.8-0.4l0,0l0,0c-0.3-0.1-0.6-0.3-0.9-0.4l0,0l0,0l0,0l0,0l0,0l0,0l0,0l0,0l0,0c-2-0.9-4-1.7-5.9-2.5  c-0.1,0-0.2-0.1-0.2-0.1c0.1,0,0.2,0.1,0.2,0.1L28.9,45.9z"></path>
<path fill-rule="evenodd" clip-rule="evenodd" fill="#FFCB29" d="M80.4,71.3c0.1,0.1,0.3,0.2,0.4,0.3c0,0,0,0,0,0c0,0,0,0,0,0  c0,0,0,0,0,0c0,0,0,0,0,0c0,0.1-0.2,0.1-0.3,0.2c-1.1-0.6-4-1.6-5.7-2.5c-0.9-0.5-1.8-1-2.8-1.5c-1.2-0.5-2.8-0.3-3.9-1  c-4.7-1.8-2.1-1.3,1.1-0.1c0,0,0,0,0,0c-1.3-0.5-10.2-4.8-5.2-1.7c0,0,0,0,0,0c0,0,0,0.1,0.1,0.1c-0.2-0.3,0,0,0.1,0.1c0,0,0,0,0,0  c0,0-0.2-0.1-0.2-0.1c0,0,0,0.1,0,0.1c0,0,0,0-0.1-0.1c0,0,0,0,0,0c0,0-0.2-0.1-0.2-0.2c0,0,0,0,0,0.1c0.1,0,0.5,0.3,0.5,0.3  c0,0-1.2-0.6-1.3-0.7c0,0,0,0,0-0.1c0,0-0.1,0-0.1-0.1c0,0,0,0,0,0.1c0,0,0,0,0,0c0,0,0,0,0-0.1c-0.1,0-0.1,0-0.1-0.1c0,0,0,0,0,0  c0,0,0,0,0,0c0,0,0,0,0,0.1c-1.5-0.7-2.8-1.7-4.3-2.4c-0.1,0-0.3,0-0.4-0.1c-0.1,0-0.3-0.1-0.5-0.1c-2.1-0.8-4.4-1.6-6.5-2.5  c2.2,0.9,4.7,1.6,7,2.5c0.1,0,0.1,0,0.2,0.1c-0.1,0-0.1-0.1-0.2-0.1c-0.6-0.3-1.2-0.6-1.8-0.8c0,0,0.1,0,0.1,0.1  c-0.1,0-0.1-0.1-0.2-0.1c0.5,0.2,1,0.4,1.5,0.6c-0.5-0.2-1.1-0.4-1.6-0.6c0.4,0.2,0.9,0.3,1.3,0.5c-0.1-0.1-0.2-0.1-0.3-0.2  c0.1,0,0.1,0,0.2,0.1c-0.1,0-0.2-0.1-0.3-0.1c0,0-0.3,0-0.3,0c-0.1,0,0-0.1-0.1-0.1c-0.1-0.1-0.3-0.1-0.4-0.2  c0.2,0.1,0.4,0.2,0.6,0.2c-0.2-0.1-0.4-0.1-0.6-0.2c-0.5-0.2-1.3,0-1.7-0.2c-0.4-0.2-0.6-0.8-1-1c0.5,0.2,0.8,0.8,1.3,1  c0,0,0-0.4-0.1-0.4c-0.6-0.2-1.1-0.4-1.7-0.6c-1.1-0.5-0.2,0.3,0.3,0.4c-0.9-0.4,0-0.5-0.9-0.9c-0.2-0.1-0.4,0.1-0.6,0  c-0.4-0.1-0.6-0.4-1-0.5c0.2,0.1,0,0.5,0.2,0.6c0.4,0.1,1-0.2,1.4,0c0,0,0.5,0.2,0.3,0.1c0.2,0.1,0.2,0.6,0.4,0.7  c0,0,0.2-0.4,0.2-0.5c0.4,0.2,0.8,0.4,1.2,0.5c0.2,0.1,0.2,0.6,0.4,0.7c0.3,0.1,0.9-0.2,1.3-0.1c-0.3-0.1-0.9,0.2-1.3,0.1  c0,0,0.1,0,0.1,0.1c0.4,0.2,1.1-0.1,1.5,0c0.2,0.1,0.3,0.1,0.5,0.2c-0.5-0.2-1.3,0-1.8-0.2c0.2,0.1,0.7-0.2,0.8-0.2c0,0-0.1,0-0.1,0  c0.1,0,0.2,0.1,0.2,0.1c0,0-0.1,0-0.1-0.1c0.1,0,0.1,0.1,0.2,0.1c-0.5-0.2-1.4,0.1-1.9-0.1c-1.4-0.5-2.3-1.5-3.8-2c0,0,0,0,0,0  c0,0-0.2-0.1-0.2,0c-0.3,0-0.5-0.1-0.8-0.1c0.2,0,0.3,0.3,0.6,0.4c0,0-0.3-0.3-0.5-0.3c-1.4-0.3-1.7-0.9-2.9-1.7  c-1.9-1.2-2.7-1.5-2.9-1.6c0,0,1.4,0.3,3.4,0.8c0.6,0.1,1.2,0.3,1.8,0.5c1,0.3,2.1,0.6,3.2,0.9c1.2,0.4,2,1.6,3.2,2  c0.8,0.3,1.6,0.7,2.4,1.1c1.8-1-2.2,0.6,3.9,0.7l0,0c0,0-0.1,0.2-0.1,0.2c0,0,0.1-0.2,0.1-0.2c-0.2,0-0.2,0,0,0  c-0.6-0.2-1.5-0.1-2.1-0.2c0,0,0,0,0,0c0,0-0.1,0-0.1,0c0.4,0,0,0-0.1,0c0,0,0,0,0,0c-0.1,0,0.2,0.1,0.2,0.1c0,0-0.1,0-0.1,0  c0,0,0.1,0,0.1,0c0,0,0,0,0,0c0.1,0,0.2,0,0.3,0.1c0,0-0.1,0-0.1,0c-0.1,0-0.6-0.1-0.6-0.1c0,0,1.3,0.4,1.4,0.5c0,0,0,0,0.1,0  c0,0,0.1,0,0.1,0c0,0,0,0-0.1,0c0,0,0,0,0,0c0,0,0,0,0.1,0c0.1,0,0.1,0,0.2,0.1c0,0,0,0,0,0c0,0,0,0,0,0c0,0-0.1,0-0.1,0  c1.6,0.5,3.4,0.9,5,1.4c0.1,0.1,0.2,0.2,0.3,0.2c0.1,0,0.3,0.2,0.4,0.2c1.7,0.7,3.5,1.6,5.3,2.4l0.1,0.1c0.2,0.1,0.4,0.2,0.6,0.3  c0,0,0,0-0.1,0c0.2,0.1,0.3,0.2,0.5,0.3c0,0,0.2,0.1,0.1,0.1c0,0-0.1-0.1-0.1-0.1C74.7,67.9,77.6,69.9,80.4,71.3L80.4,71.3z   M66.9,63.4L66.9,63.4c0.4,0.2,0.8,0.4,1.3,0.6l0,0C67.7,63.8,67.3,63.6,66.9,63.4L66.9,63.4z M68.5,64.2L68.5,64.2l0.1,0.1l0,0  L68.5,64.2L68.5,64.2z M68.8,64.3L68.8,64.3L68.8,64.3L68.8,64.3L68.8,64.3L68.8,64.3z M68.8,64.3L68.8,64.3l0.3,0.2l0,0L68.8,64.3  L68.8,64.3z M69.5,64.7L69.5,64.7L69.5,64.7L69.5,64.7L69.5,64.7L69.5,64.7z M69.8,64.8L69.8,64.8l0.3,0.2h0L69.8,64.8L69.8,64.8z   M66.8,63.4l-0.2-0.1c0.5,0.2,1.1,0.5,1.6,0.7l0,0C67.7,63.8,67.2,63.6,66.8,63.4L66.8,63.4z M68.5,64.2L68.5,64.2l0.1,0.1l0,0  L68.5,64.2L68.5,64.2z M68.8,64.3L68.8,64.3L68.8,64.3L68.8,64.3L68.8,64.3L68.8,64.3z M68.8,64.3L68.8,64.3l0.4,0.2l0,0L68.8,64.3  L68.8,64.3z M69.5,64.7L69.5,64.7L69.5,64.7L69.5,64.7L69.5,64.7L69.5,64.7z M69.8,64.8L69.8,64.8l0.1,0.1c0.1,0,0.1,0.1,0.2,0.1  l0,0l0,0l0,0l0,0L69.8,64.8L69.8,64.8z M66.6,63.3c0.6,0.2,1.1,0.5,1.6,0.8c0.2,0.2,0.4,0.4,0.6,0.6c-0.1,0-0.1-0.2-0.2-0.3  l-0.1-0.1c0.1,0.2,0.3,0.4,0.4,0.4c0,0,0.1,0,0.2,0.1c-0.1-0.1-0.2-0.2-0.3-0.4l0.4,0.2c0.1,0.2,0.3,0.3,0.5,0.4  c0.1,0,0.2,0.1,0.4,0.1l0,0c-0.1,0-0.2-0.1-0.3-0.1c0,0,0.1,0,0.1,0l-0.2-0.1c-0.1,0-0.2,0-0.2-0.1c0,0,0,0,0.1,0l0,0  c-0.1,0-0.3,0.1-0.4,0c-0.1-0.1-0.2-0.2-0.3-0.4l0,0c0.2,0.3,0.4,0.6,0.7,0.8c0.6,0.3,1.3,0.4,2,0.6c0.1,0.1,0.4,0.1,0.4,0.2l0.1,0  c-0.2-0.1-0.4-0.2-0.6-0.3l0,0l0,0c-0.2-0.1-0.4-0.2-0.7-0.3l0,0l0,0l0,0l0,0l0,0l0,0l0,0l0,0l0,0c-1.4-0.7-2.8-1.4-4.3-2  c-0.1,0-0.1-0.1-0.2-0.1c0.1,0,0.1,0,0.2,0.1L66.6,63.3z"></path>
<path fill-rule="evenodd" clip-rule="evenodd" fill="#00A759" d="M64.8,26.3c0.2,0,0.5,0.1,0.6,0.2c0,0,0,0,0,0c0,0,0,0,0,0  c0,0,0,0,0,0c0,0,0,0,0,0c0,0-0.1-0.3-0.1-0.3c-1.5-0.4-5-2-7.3-2.7c-1.3-0.4-2.6-0.7-3.8-1.1c-1.5-0.6-2.8-2-4.4-2.4  c-1-0.4-2.1-0.9-3.1-1.3c0,0,0,0,0,0c0,0,0,0,0,0c0,0,0,0,0,0c0,0-0.1,0-0.1,0c0,0,0.1,0,0.1,0c0,0,0,0,0,0.1c0.3-0.1,0.3-0.1,0,0  c-0.1,0.5,3.6,1.9,4.1,2.1c0,0,0,0,0,0c-3.7-1.6-4.7-2.1-8.5-3.2l0,0c0,0,0-0.2,0-0.2c0,0-0.1,0.2-0.1,0.2c0.2,0,0.2,0,0,0  c0.8,0.2,1.6,0.1,2.4,0.3c0,0,0,0,0,0c0,0,0.1,0,0.1,0c-0.5,0,0,0,0.2,0c0,0,0,0,0,0c0.1,0-0.2-0.1-0.2-0.1c0,0,0.1,0,0.1,0  c0,0-0.1,0-0.1,0c0,0,0,0,0,0c-0.1,0-0.3-0.1-0.4-0.1c0,0,0.1,0,0.1,0c0.1,0,0.7,0.2,0.7,0.2c0,0-1.6-0.5-1.7-0.6c0,0,0,0,0,0  c-0.1,0-0.1,0-0.2-0.1c0,0,0,0,0.1,0c0,0,0,0,0,0c0,0,0,0-0.1,0c-0.1,0-0.1,0-0.2-0.1c0,0,0,0,0,0c0,0,0,0,0,0c0,0,0,0,0.1,0  c-2-0.7-4-1.1-6-1.8c-0.1-0.1-0.3-0.2-0.4-0.3c-0.1-0.1-0.4-0.2-0.5-0.3c-2.6-1.1-5.4-2.4-8-3.4c2.8,1.1,5.7,2.6,8.5,3.8  c0.1,0,0.1,0.1,0.2,0.1c-0.1,0-0.2-0.1-0.2-0.1c-0.8-0.3-1.6-0.6-2.3-0.8c0.1,0,0.1,0,0.2,0.1c-0.1,0-0.2-0.1-0.3-0.1  c0.6,0.3,1.3,0.5,1.9,0.8c-0.7-0.2-1.4-0.6-2-0.9c0.5,0.2,1.1,0.5,1.6,0.7c-0.1-0.1-0.3-0.1-0.4-0.2c0.1,0,0.2,0.1,0.2,0.1  c-0.1,0-0.2-0.1-0.3-0.1c0,0-0.3-0.2-0.3-0.2c-0.1-0.1-0.1,0.1-0.2,0c-0.2-0.1-0.3-0.1-0.5-0.2c0.2,0.1,0.5,0.2,0.7,0.3  c-0.2-0.1-0.5-0.2-0.7-0.3c-0.6-0.3-1.1-1-1.7-1.2c-0.5-0.2-1.2,0.1-1.7-0.1c0.7,0.3,1.4,0.1,2.1,0.4c-0.1,0-0.4,0.2-0.5,0.2  c-0.7-0.3-1.4-0.6-2-0.9c-1.4-0.5,0-0.3,0.6-0.1c-1.2-0.5-0.5,0.3-1.6-0.2c-0.2-0.1-0.3-0.4-0.5-0.5c-0.4-0.2-0.9-0.2-1.3-0.4  c0.2,0.1,0.5-0.3,0.7-0.2c0.4,0.2,0.8,0.9,1.2,1.1c0,0,0.7,0.3,0.4,0.2c0.3,0.1,0.7-0.2,1-0.1c0,0-0.2,0.4-0.2,0.4  c0.5,0.2,1,0.4,1.5,0.6c0.3,0.1,0.7-0.2,1-0.1c0.4,0.2,0.7,0.8,1.1,1c-0.4-0.2-0.7-0.8-1.1-1c0.1,0,0.1,0,0.2,0.1  c0.5,0.2,0.9,0.9,1.4,1.1c0.2,0.1,0.4,0.2,0.6,0.2c-0.6-0.3-1.2-1-1.8-1.3c0.2,0.1,0.4,0.7,0.6,0.7c-0.1,0-0.1,0-0.1-0.1  c0.1,0,0.2,0.1,0.3,0.1c-0.1,0-0.1,0-0.2-0.1c0.1,0,0.2,0.1,0.2,0.1c-0.6-0.2-1.2-1.2-1.8-1.4c-1.7-0.7-3.4-0.8-5.1-1.6c0,0,0,0,0,0  c0,0-0.2-0.1-0.2-0.1c-0.3-0.2-0.6-0.3-0.9-0.5c0.3,0.2,0.6,0.1,0.8,0.2c0,0-0.5,0-0.7-0.2c-1.5-0.9-2.4-0.5-4.1-1.1  c-1-0.4-2.1-0.6-3.1-0.7c-0.5-0.2-1-0.4-1.5-0.6c-1.7-0.6-1-0.3,0,0c0.5,0.2,1,0.4,1.5,0.6c0,0-0.1,0-0.1,0c-1.4-0.6-2-0.8,0,0  c0,0-0.1,0-0.1,0c-1.8-0.6-1.3-0.3-0.3,0.4c1.7,0.7,3.8,1.5,5.3,2.3c1.2,0.6,2.4,1.3,3.7,1.9c1.5,0.7,3.2,0.4,4.6,1.2  c1,0.4,2.1,0.8,3.1,1.2c0,0,0,0,0,0c0,0,0,0,0,0c0,0,0,0,0,0c0,0,0.1,0,0.1,0c0,0-0.1,0-0.1,0c0,0,0,0,0,0.1c-0.2-0.3-0.2-0.2,0,0  c-0.1,0.5-3.8-1.1-4.3-1.2c0,0,0,0,0,0c3.8,1.4,4.8,1.8,8.5,3.6l0,0c0,0,0.1-0.2,0.1-0.2c0,0,0,0.2,0,0.2c-0.1-0.1-0.1-0.1,0,0  c-0.7-0.4-1.4-1.1-2.2-1.5c0,0,0,0,0,0c0,0-0.1-0.1-0.1-0.1c0.4,0.4,0,0-0.1-0.1c0,0,0,0,0,0c-0.1,0,0.2,0.1,0.2,0.1  c0,0-0.1-0.1-0.1-0.1c0,0,0.1,0.1,0.1,0.1c0,0,0,0,0,0c0.1,0.1,0.3,0.2,0.3,0.2c0,0-0.1,0-0.1-0.1c-0.1-0.1-0.7-0.4-0.7-0.4  c0,0,1.6,0.8,1.7,0.8c0,0,0,0,0,0.1c0.1,0,0.1,0,0.2,0.1c0,0,0,0,0-0.1c0,0,0,0,0,0c0,0,0,0,0,0.1c0.1,0,0.1,0.1,0.2,0.1  c0,0,0,0,0,0c0,0,0,0,0,0c0,0,0,0-0.1-0.1c1.9,0.9,3.8,2,5.7,2.9c0.1,0,0.4,0.1,0.4,0.1c0.1,0,0.4,0.1,0.5,0.1  c2.2,0.8,4.6,1.7,6.9,2.6l0.1,0c0.3,0.1,0.5,0.2,0.8,0.2c0,0-0.1,0-0.1,0c0.3,0.1,0.5,0.1,0.7,0.2c0,0,0.3,0,0.2,0.1  c-0.1,0-0.2,0-0.2,0C56.9,24.2,61.1,25.1,64.8,26.3L64.8,26.3z M45.9,21L45.9,21c0.5,0.2,1.1,0.4,1.7,0.6l0,0  C47,21.4,46.4,21.2,45.9,21L45.9,21z M48,21.8L48,21.8l0.2,0.1l0,0L48,21.8L48,21.8z M48.3,21.9L48.3,21.9L48.3,21.9L48.3,21.9  L48.3,21.9L48.3,21.9z M48.4,21.9L48.4,21.9l0.4,0.1h0L48.4,21.9L48.4,21.9z M49.4,22.3L49.4,22.3L49.4,22.3L49.4,22.3L49.4,22.3  L49.4,22.3z M49.7,22.4L49.7,22.4l0.4,0.1l0,0L49.7,22.4L49.7,22.4z M45.8,21l-0.2-0.1c0.7,0.3,1.4,0.5,2.1,0.8h-0.1  C47,21.4,46.4,21.2,45.8,21L45.8,21z M48,21.8L48,21.8l0.2,0.1l0,0L48,21.8L48,21.8z M48.3,21.9L48.3,21.9l0.1,0L48.3,21.9  L48.3,21.9L48.3,21.9z M48.4,21.9L48.4,21.9l0.5,0.2l-0.1,0L48.4,21.9L48.4,21.9z M49.4,22.3L49.4,22.3L49.4,22.3L49.4,22.3  L49.4,22.3L49.4,22.3z M49.7,22.4L49.7,22.4l0.2,0c0.1,0,0.2,0.1,0.3,0.1l0,0l0,0l0,0l0,0L49.7,22.4L49.7,22.4z M45.5,20.9  c0.7,0.3,1.4,0.5,2.1,0.8c0.4,0,0.7,0,1,0.1c-0.1-0.1-0.3,0-0.4,0.1l-0.2-0.1c0.3,0,0.5,0,0.8,0.1c0.1,0,0.1,0.1,0.2,0.1  c-0.2-0.1-0.4,0-0.6,0l0.5,0.2c0.3,0,0.5,0,0.8,0.1c0.1,0.1,0.2,0.1,0.4,0.2l0,0c-0.1,0-0.2-0.1-0.4-0.1c0,0,0.1,0,0.1,0l-0.2-0.1  c-0.1,0-0.2-0.1-0.3-0.1c0,0,0,0,0,0.1l0,0c-0.1-0.1-0.2-0.2-0.3-0.3c-0.2-0.1-0.4,0-0.6,0l-0.1,0c0.5,0,0.9-0.1,1.3,0.1  c0.8,0.3,1.6,0.7,2.3,1.1c0.2,0.1,0.5,0.2,0.5,0.2l0.1,0c-0.3-0.1-0.5-0.2-0.8-0.3l0,0l0,0c-0.3-0.1-0.6-0.2-0.9-0.3l0,0l0,0l0,0  l0,0l0,0l0,0l0,0l0,0l0,0c-1.9-0.7-3.8-1.3-5.6-2c-0.1,0-0.2-0.1-0.2-0.1c0.1,0,0.2,0.1,0.2,0.1L45.5,20.9z"></path>
<path fill-rule="evenodd" clip-rule="evenodd" fill="#FFCB29" d="M66.7,23.3c0.1,0,0.3,0.1,0.4,0.1c0,0,0,0,0,0c0,0,0,0,0,0  c0,0,0,0,0,0c0,0,0,0,0,0c0,0,0-0.2-0.1-0.3c-0.8-0.3-2.9-1.4-4.2-1.8c-0.7-0.3-1.5-0.5-2.2-0.7c-0.9-0.4-1.6-1.4-2.5-1.6  c-0.6-0.3-1.2-0.6-1.8-0.9c0,0,0,0,0,0v0c0,0,0,0,0,0c0,0,0,0,0,0c0,0,0,0,0,0c0,0,0,0,0,0c0.2,0,0.2,0,0,0c-0.1,0.4,2,1.3,2.3,1.5  c0,0,0,0,0,0c-2.1-1.1-2.7-1.4-4.9-2.1l0,0c0,0,0-0.2,0-0.2c0,0,0,0.2-0.1,0.2c0.1,0,0.1,0,0,0c0.4,0.1,1,0.1,1.4,0.2c0,0,0,0,0,0  c0,0,0.1,0,0.1,0c-0.3,0,0,0,0.1,0c0,0,0,0,0,0c0,0-0.1,0-0.1,0c0,0,0.1,0,0.1,0c0,0,0,0-0.1,0c0,0,0,0,0,0c0,0-0.2,0-0.2,0  c0,0,0,0,0.1,0c0.1,0,0.4,0.1,0.4,0.1c0,0-0.9-0.4-1-0.4c0,0,0,0,0,0c0,0-0.1,0-0.1,0c0,0,0,0,0,0c0,0,0,0,0,0c0,0,0,0,0,0  c0,0-0.1,0-0.1,0c0,0,0,0,0,0c0,0,0,0,0,0c0,0,0,0,0,0c-1.1-0.4-2.3-0.7-3.4-1.2c-0.1,0-0.2-0.1-0.2-0.2c-0.1,0-0.2-0.2-0.3-0.2  c-1.5-0.7-3.1-1.6-4.6-2.3c1.6,0.8,3.2,1.7,4.8,2.6c0,0,0.1,0,0.1,0.1c0,0-0.1,0-0.1-0.1c-0.4-0.2-0.9-0.4-1.3-0.6c0,0,0.1,0,0.1,0  c-0.1,0-0.1,0-0.2-0.1c0.4,0.2,0.7,0.4,1.1,0.5c-0.4-0.2-0.8-0.4-1.2-0.6c0.3,0.2,0.6,0.3,0.9,0.5c-0.1,0-0.2-0.1-0.3-0.1  c0,0,0.1,0,0.1,0.1c-0.1,0-0.1-0.1-0.2-0.1c0,0-0.1-0.2-0.2-0.2c-0.1,0,0,0.1-0.1,0c-0.1,0-0.2-0.1-0.3-0.1c0.1,0.1,0.3,0.1,0.4,0.2  c-0.1-0.1-0.3-0.1-0.4-0.2c-0.4-0.2-0.6-0.7-1-0.9c-0.3-0.1-0.7,0.1-1,0c0.4,0.2,0.8,0,1.2,0.2c0,0-0.2,0.2-0.3,0.2  c-0.4-0.2-0.8-0.4-1.2-0.6c-0.8-0.3,0-0.2,0.4-0.1c-0.7-0.3-0.3,0.2-0.9-0.1c-0.1,0-0.2-0.3-0.3-0.3c-0.2-0.1-0.5-0.1-0.8-0.3  c0.1,0.1,0.3-0.2,0.4-0.2c0.3,0.1,0.4,0.6,0.7,0.8c0,0,0.4,0.2,0.2,0.1c0.2,0.1,0.4-0.2,0.6-0.1c0,0-0.1,0.3-0.2,0.3  c0.3,0.1,0.6,0.3,0.9,0.4c0.2,0.1,0.4-0.2,0.6-0.1c0.2,0.1,0.4,0.6,0.6,0.7c-0.2-0.1-0.4-0.6-0.6-0.7c0,0,0.1,0,0.1,0  c0.3,0.1,0.5,0.7,0.8,0.8c0.1,0.1,0.2,0.1,0.3,0.2c-0.4-0.2-0.6-0.7-1-0.9c0.1,0.1,0.2,0.5,0.3,0.5c0,0-0.1,0-0.1,0  c0.1,0,0.1,0.1,0.2,0.1c0,0-0.1,0-0.1,0c0,0,0.1,0,0.1,0.1c-0.3-0.2-0.7-0.8-1-1c-1-0.5-2-0.5-3-1c0,0,0,0,0,0c0,0-0.1-0.1-0.1-0.1  c-0.2-0.1-0.3-0.2-0.5-0.4c0.1,0.1,0.3,0,0.5,0.1c0,0-0.3,0-0.4-0.1c-0.8-0.6-1.4-0.3-2.4-0.7c-0.6-0.2-1.2-0.4-1.8-0.5  c-0.3-0.1-0.6-0.3-0.9-0.4c-1-0.4-0.5-0.2,0,0c0.3,0.1,0.6,0.3,0.9,0.4c0,0-0.1,0-0.1,0c-0.8-0.4-1.1-0.6,0,0c0,0,0,0,0,0  c-1-0.4-0.8-0.2-0.2,0.3c1,0.5,2.2,1,3,1.6c0.7,0.4,1.4,0.9,2.1,1.3c0.9,0.4,1.9,0.2,2.7,0.8c0.6,0.3,1.2,0.5,1.8,0.8c0,0,0,0,0,0  c0,0,0,0,0,0c0,0,0,0,0,0c0,0,0,0,0,0c0,0,0,0,0,0c0,0,0,0,0,0c-0.1-0.2-0.1-0.2,0,0c-0.1,0.4-2.2-0.7-2.5-0.8c0,0,0,0,0,0  c2.2,0.9,2.7,1.2,4.8,2.5l0,0c0,0,0.1-0.2,0.1-0.2c0,0,0,0.2,0,0.2c-0.1-0.1-0.1-0.1,0,0c-0.4-0.3-0.8-0.8-1.2-1c0,0,0,0,0,0  c0,0,0-0.1-0.1-0.1c0.2,0.3,0,0-0.1-0.1c0,0,0,0,0,0c0,0,0.1,0.1,0.1,0.1c0,0,0,0,0,0c0,0,0,0,0.1,0.1c0,0,0,0,0,0  c0,0,0.1,0.1,0.2,0.1c0,0,0,0,0-0.1c0,0-0.4-0.3-0.4-0.3c0,0,0.9,0.5,1,0.5c0,0,0,0,0,0c0,0,0.1,0,0.1,0c0,0,0,0,0-0.1c0,0,0,0,0,0  c0,0,0,0,0,0.1c0,0,0.1,0,0.1,0.1c0,0,0,0,0,0c0,0,0,0,0,0c0,0,0,0,0-0.1c1.1,0.6,2.1,1.4,3.2,2c0.1,0,0.2,0,0.3,0.1  c0.1,0,0.2,0.1,0.3,0.1c1.3,0.6,2.7,1.1,3.9,1.7l0.1,0c0.2,0.1,0.3,0.1,0.5,0.2c0,0,0,0-0.1,0c0.1,0.1,0.3,0.1,0.4,0.1  c0,0,0.2,0,0.1,0c0,0-0.1,0-0.1,0C62.1,21.9,64.6,22.5,66.7,23.3L66.7,23.3z M55.7,19.9L55.7,19.9c0.3,0.1,0.6,0.3,1,0.4h0  C56.4,20.2,56.1,20,55.7,19.9L55.7,19.9z M57,20.4L57,20.4l0.1,0l0,0L57,20.4L57,20.4z M57.1,20.5L57.1,20.5L57.1,20.5L57.1,20.5  L57.1,20.5L57.1,20.5z M57.2,20.5L57.2,20.5l0.3,0.1h0L57.2,20.5L57.2,20.5z M57.8,20.7L57.8,20.7L57.8,20.7L57.8,20.7L57.8,20.7  L57.8,20.7z M58,20.8L58,20.8l0.3,0.1l0,0L58,20.8L58,20.8z M55.7,19.9l-0.1-0.1c0.4,0.2,0.8,0.3,1.2,0.5l0,0  C56.4,20.2,56,20,55.7,19.9L55.7,19.9z M57,20.4L57,20.4l0.1,0l0,0L57,20.4L57,20.4z M57.2,20.5L57.2,20.5L57.2,20.5L57.2,20.5  L57.2,20.5L57.2,20.5z M57.2,20.5L57.2,20.5l0.3,0.1l0,0L57.2,20.5L57.2,20.5z M57.8,20.7L57.8,20.7L57.8,20.7L57.8,20.7L57.8,20.7  L57.8,20.7z M57.9,20.8L57.9,20.8l0.1,0c0.1,0,0.1,0,0.2,0.1l0,0l0,0l0,0l0,0L57.9,20.8L57.9,20.8z M55.5,19.8  c0.4,0.2,0.8,0.4,1.2,0.5c0.2,0,0.4,0,0.6,0.1c-0.1,0-0.2,0-0.3,0.1l-0.1,0c0.2,0,0.3,0,0.5,0c0,0,0.1,0,0.1,0.1c-0.1,0-0.2,0-0.3,0  l0.3,0.1c0.2,0,0.3,0,0.4,0.1c0.1,0,0.1,0.1,0.2,0.2l0,0c-0.1,0-0.1-0.1-0.2-0.1c0,0,0,0,0.1,0l-0.1,0c0,0-0.1-0.1-0.2-0.1  c0,0,0,0,0,0l0,0c0-0.1-0.1-0.2-0.2-0.2c-0.1,0-0.2,0-0.4,0l0,0c0.3,0,0.6-0.1,0.8,0c0.5,0.2,0.9,0.5,1.3,0.8  c0.1,0.1,0.3,0.1,0.3,0.1l0.1,0c-0.1-0.1-0.3-0.1-0.4-0.2l0,0l0,0c-0.2-0.1-0.3-0.1-0.5-0.2l0,0l0,0h0l0,0h0l0,0h0l0,0l0,0  C57.6,20.6,56.5,20.2,55.5,19.8c-0.1-0.1-0.2-0.1-0.2-0.1C55.3,19.7,55.4,19.7,55.5,19.8L55.5,19.8z"></path>
<path fill-rule="evenodd" clip-rule="evenodd" fill="#00A759" d="M106.2,34.4c-0.9-0.4-1.8-0.8-2.7-1.2c0,0,0,0,0,0c0,0,0,0,0,0  c0,0,0,0,0,0c0,0-0.1,0-0.1,0c0,0,0.1,0,0.1,0c0,0,0,0,0,0.1c0.3-0.1,0.3-0.1,0,0c-0.1,0.3,1.3,1,2.5,1.5c0,0.1-0.1,0.2-0.1,0.3  l-0.3,1.4c-0.2-0.1-0.5-0.1-0.8,0l0.2,0.1c0.2-0.1,0.3-0.1,0.4-0.1c-0.3-0.1-0.7-0.1-1-0.1c-0.7-0.3-1.4-0.5-2.1-0.8l-0.1-0.1  c-0.1,0-0.2-0.1-0.2-0.1c0.1,0,0.2,0.1,0.2,0.1c1.1,0.4,2.3,0.8,3.5,1.2l0,0l-0.3-0.1c0.1,0,0.2,0,0.4,0l0,0c-0.1,0-0.2,0-0.4,0  l-0.1,0c0.1,0,0.3,0,0.4,0l0,0c-1-0.4-2-0.7-3-1.1c-0.1,0-0.4-0.1-0.5-0.1c-0.1,0-0.3-0.1-0.4-0.1c-1.9-0.9-3.8-2-5.7-2.9  c0,0,0,0,0.1,0.1c0,0,0,0,0,0c0,0,0,0,0,0c-0.1,0-0.1-0.1-0.2-0.1c0,0,0,0,0-0.1c0,0,0,0,0,0c0,0,0,0,0,0.1c-0.1,0-0.1,0-0.2-0.1  c0,0,0,0,0-0.1c-0.1,0-1.7-0.8-1.7-0.8c0,0,0.6,0.3,0.7,0.4c0,0,0.1,0,0.1,0.1c-0.1,0-0.3-0.1-0.3-0.2c0,0,0,0,0,0  c0,0-0.1-0.1-0.1-0.1c0,0,0,0,0.1,0.1c0,0-0.3-0.2-0.2-0.1c0,0,0,0,0,0c0.1,0.1,0.5,0.5,0.1,0.1c0,0,0.1,0.1,0.1,0.1c0,0,0,0,0,0  c0.7,0.4,1.4,1.1,2.2,1.5c-0.1-0.1-0.1-0.1,0,0c0,0,0-0.2,0-0.2c0,0-0.1,0.2-0.1,0.2l0,0c-3.7-1.9-4.7-2.2-8.5-3.6c0,0,0,0,0,0  c0.5,0.2,4.2,1.7,4.3,1.2c-0.2-0.2-0.2-0.3,0,0c0,0,0,0,0-0.1c0,0,0.1,0,0.1,0c0,0-0.1,0-0.1,0c0,0,0,0,0,0c0,0,0,0,0,0c0,0,0,0,0,0  c-1-0.4-2.1-0.8-3.1-1.2c-1.4-0.8-3.1-0.6-4.6-1.2c-1.2-0.6-2.4-1.3-3.7-1.9c-1.5-0.8-3.7-1.6-5.3-2.3c-1-0.6-1.5-1,0.3-0.4  c0,0,0,0,0.1,0c-2-0.8-1.4-0.6,0,0c0,0,0.1,0,0.1,0c-0.5-0.2-1-0.4-1.5-0.6c-1-0.3-1.7-0.6,0,0c0.5,0.2,1,0.4,1.5,0.6  c0.9,0.1,2.1,0.4,3.1,0.7c1.7,0.6,2.6,0.2,4.1,1.1c0.2,0.1,0.7,0.2,0.7,0.2c-0.2-0.2-0.6-0.1-0.8-0.2c0.3,0.2,0.6,0.3,0.9,0.5  c0,0,0.2,0.1,0.2,0.1c0,0,0,0,0,0c1.7,0.8,3.4,0.8,5.1,1.6c0.6,0.2,1.2,1.2,1.8,1.4c-0.1,0-0.2-0.1-0.2-0.1c0.1,0,0.1,0,0.2,0.1  c-0.1,0-0.2-0.1-0.3-0.1c0,0,0.1,0,0.1,0.1c-0.2-0.1-0.4-0.7-0.6-0.7c0.6,0.3,1.2,1,1.8,1.3c-0.2-0.1-0.4-0.2-0.6-0.2  c-0.5-0.2-0.9-0.9-1.4-1.1c-0.1,0-0.1,0-0.2-0.1c0.4,0.2,0.7,0.8,1.1,1c-0.4-0.2-0.7-0.8-1.1-1c-0.3-0.1-0.7,0.3-1,0.1  c-0.5-0.2-1-0.4-1.5-0.6c0,0,0.2-0.4,0.2-0.4c-0.3-0.1-0.7,0.2-1,0.1c0.3,0.1-0.4-0.1-0.4-0.2c-0.4-0.2-0.8-0.9-1.2-1.1  c-0.2-0.1-0.5,0.3-0.7,0.2c0.4,0.2,0.9,0.2,1.3,0.4c0.2,0.1,0.3,0.4,0.5,0.5c1.1,0.5,0.4-0.3,1.6,0.2c-0.5-0.3-2-0.4-0.6,0.1  c0.7,0.3,1.4,0.6,2,0.9c0.1,0,0.4-0.3,0.5-0.2c-0.7-0.3-1.4-0.1-2.1-0.4c0.5,0.2,1.2-0.1,1.7,0.1c0.6,0.3,1.1,1,1.7,1.2  c0.2,0.1,0.5,0.2,0.7,0.3c-0.2-0.1-0.5-0.2-0.7-0.3c0.2,0.1,0.3,0.1,0.5,0.2c0.1,0.1,0.1-0.1,0.2,0c0,0,0.3,0.2,0.3,0.2  c0.1,0,0.2,0.1,0.3,0.1c-0.1,0-0.2-0.1-0.2-0.1c0.1,0.1,0.3,0.1,0.4,0.2c-0.5-0.2-1.1-0.5-1.6-0.7c0.7,0.2,1.4,0.6,2,0.9  c-0.6-0.3-1.3-0.5-1.9-0.8c0.1,0,0.2,0.1,0.3,0.1c-0.1,0-0.1,0-0.2-0.1c0.8,0.3,1.6,0.6,2.3,0.8c0.1,0,0.2,0.1,0.2,0.1  c-0.1,0-0.1-0.1-0.2-0.1c-2.8-1.2-5.6-2.6-8.5-3.8c2.6,1,5.4,2.3,8,3.4c0.1,0.1,0.4,0.2,0.5,0.3c0.1,0,0.3,0.2,0.4,0.3  c2,0.7,4,1.1,6,1.8c0,0,0,0-0.1,0c0,0,0,0,0,0c0,0,0,0,0,0c0.1,0,0.1,0,0.2,0.1c0,0,0,0,0.1,0c0,0,0,0,0,0c0,0,0,0-0.1,0  c0.1,0,0.1,0,0.2,0.1c0,0,0,0,0,0c0.1,0,1.7,0.6,1.7,0.6c0,0-0.6-0.2-0.7-0.2c0,0-0.1,0-0.1,0c0.1,0,0.3,0.1,0.4,0.1c0,0,0,0,0,0  c0,0,0.1,0,0.1,0c0,0-0.1,0-0.1,0c0,0,0.3,0.1,0.2,0.1l0,0c-0.2,0-0.6,0-0.2,0c0,0-0.1,0-0.1,0c0,0,0,0,0,0  c-0.8-0.2-1.7-0.1-2.4-0.3c0.2,0,0.2,0,0,0c0,0,0.1-0.2,0.1-0.2c0,0,0,0.2,0,0.2l0,0c3.2,1,4.4,1.4,7,2.5  C106.1,34.7,106.2,34.6,106.2,34.4L106.2,34.4z M102.6,35.7c0.6,0.2,1.1,0.4,1.7,0.6h0C103.7,36.1,103.1,35.9,102.6,35.7L102.6,35.7  L102.6,35.7z M104.7,36.5l0.2,0.1l0,0L104.7,36.5L104.7,36.5L104.7,36.5z M105,36.6L105,36.6L105,36.6L105,36.6L105,36.6L105,36.6z   M105.1,36.7l0.4,0.1l0,0L105.1,36.7L105.1,36.7L105.1,36.7z M102.5,35.7c0.6,0.2,1.2,0.4,1.8,0.7l0.1,0c-0.7-0.2-1.4-0.5-2.1-0.8  L102.5,35.7L102.5,35.7z M104.8,36.5l0.2,0.1l0,0L104.8,36.5L104.8,36.5L104.8,36.5z M105.1,36.6L105.1,36.6l0.1,0L105.1,36.6  L105.1,36.6L105.1,36.6z M105.1,36.6l0.4,0.1l0,0L105.1,36.6L105.1,36.6z"></path>
<path fill-rule="evenodd" clip-rule="evenodd" fill="#FFCB29" d="M97.3,35.4c0.1,0,0.3,0.1,0.4,0.1c0,0,0,0,0,0c0,0,0,0,0,0  c0,0,0,0,0,0c0,0,0,0,0,0c0,0-0.1-0.2-0.1-0.2c-0.9-0.2-3-1.2-4.3-1.5c-0.7-0.2-1.5-0.4-2.3-0.6c-0.9-0.3-1.7-1.3-2.6-1.5  c-0.6-0.2-1.2-0.5-1.8-0.8c0,0,0,0,0,0c0,0,0,0,0,0c0,0,0,0,0,0c0,0,0,0,0,0c0,0,0,0,0,0c0,0,0,0,0,0c0.2-0.1,0.2-0.1,0,0  c-0.1,0.4,2.1,1.2,2.4,1.3c0,0,0,0,0,0c-2.2-1-2.8-1.2-5-1.8l0,0c0,0,0-0.2,0-0.2c0,0,0,0.2,0,0.2c0.1,0,0.1,0,0,0  c0.4,0.1,1,0,1.4,0.1c0,0,0,0,0,0c0,0,0.1,0,0.1,0c-0.3,0,0,0,0.1,0c0,0,0,0,0,0c0,0-0.1,0-0.1,0c0,0,0,0,0,0c0,0,0,0-0.1,0  c0,0,0,0,0,0c0,0-0.2,0-0.2,0c0,0,0,0,0.1,0c0.1,0,0.4,0.1,0.4,0.1c0,0-1-0.3-1-0.3c0,0,0,0,0,0c0,0-0.1,0-0.1,0c0,0,0,0,0,0  c0,0,0,0,0,0c0,0,0,0,0,0c0,0-0.1,0-0.1,0c0,0,0,0,0,0c0,0,0,0,0,0c0,0,0,0,0,0c-1.2-0.4-2.4-0.5-3.5-0.9c-0.1,0-0.2-0.1-0.2-0.2  c-0.1,0-0.2-0.1-0.3-0.2c-1.5-0.6-3.2-1.4-4.7-2c1.7,0.7,3.3,1.5,5,2.2c0,0,0.1,0,0.1,0.1c0,0-0.1,0-0.1,0c-0.5-0.2-0.9-0.3-1.4-0.5  c0,0,0.1,0,0.1,0c-0.1,0-0.1,0-0.2-0.1c0.4,0.2,0.7,0.3,1.1,0.5c-0.4-0.1-0.8-0.4-1.2-0.5c0.3,0.1,0.6,0.3,1,0.4  C80,29.1,80,29,79.9,29c0,0,0.1,0,0.1,0.1c-0.1,0-0.1,0-0.2-0.1c0,0-0.2-0.1-0.2-0.2c-0.1,0,0,0.1-0.1,0c-0.1,0-0.2-0.1-0.3-0.1  c0.1,0.1,0.3,0.1,0.4,0.2c-0.1,0-0.3-0.1-0.4-0.2c-0.4-0.1-0.7-0.7-1-0.8c-0.3-0.1-0.7,0.1-1,0c0.4,0.2,0.8,0,1.2,0.1  c0,0-0.2,0.2-0.3,0.2c-0.4-0.2-0.8-0.3-1.2-0.5c-0.8-0.3,0-0.2,0.4-0.1c-0.7-0.3-0.3,0.3-0.9,0c-0.1,0-0.2-0.3-0.3-0.3  c-0.3-0.1-0.5-0.1-0.8-0.2c0.1,0.1,0.3-0.3,0.4-0.2c0.3,0.1,0.5,0.6,0.7,0.7c0,0,0.4,0.2,0.2,0.1c0.2,0.1,0.4-0.2,0.6-0.2  c0,0-0.1,0.3-0.1,0.3c0.3,0.1,0.6,0.2,0.9,0.3c0.2,0.1,0.4-0.2,0.6-0.2c0.2,0.1,0.4,0.6,0.6,0.7c-0.2-0.1-0.4-0.6-0.6-0.7  c0,0,0.1,0,0.1,0c0.3,0.1,0.5,0.6,0.8,0.7c0.1,0,0.2,0.1,0.3,0.1c-0.4-0.2-0.7-0.7-1.1-0.8c0.1,0,0.2,0.5,0.4,0.5c0,0-0.1,0-0.1,0  c0.1,0,0.1,0,0.2,0.1c0,0-0.1,0-0.1,0c0,0,0.1,0,0.1,0c-0.3-0.1-0.7-0.8-1.1-0.9c-1-0.4-2-0.4-3-0.8c0,0,0,0,0,0  c0,0-0.1-0.1-0.1-0.1c-0.2-0.1-0.3-0.2-0.5-0.3c0.1,0.1,0.3,0,0.5,0.1c0,0-0.3,0-0.4-0.1c-0.9-0.5-1.4-0.2-2.4-0.6  c-0.6-0.2-1.3-0.3-1.8-0.3c-0.3-0.1-0.6-0.2-0.9-0.4c-1-0.3-0.6-0.2,0,0c0.3,0.1,0.6,0.2,0.9,0.4c0,0-0.1,0-0.1,0  c-0.8-0.3-1.2-0.5,0,0c0,0,0,0,0,0c-1-0.4-0.8-0.1-0.2,0.3c1,0.4,2.3,0.9,3.1,1.3c0.7,0.4,1.4,0.8,2.2,1.1c0.9,0.4,1.9,0.1,2.7,0.6  c0.6,0.2,1.2,0.4,1.8,0.7c0,0,0,0,0,0c0,0,0,0,0,0s0,0,0,0c0,0,0,0,0,0c0,0,0,0,0,0c0,0,0,0,0,0c-0.1-0.2-0.1-0.2,0,0  c-0.1,0.4-2.3-0.5-2.5-0.6c0,0,0,0,0,0c2.2,0.8,2.8,1,5,2.1l0,0c0,0,0-0.2,0-0.2c0,0,0,0.2,0,0.2c-0.1-0.1-0.1-0.1,0,0  c-0.4-0.2-0.8-0.7-1.3-1c0,0,0,0,0,0c0,0,0,0-0.1-0.1c0.2,0.2,0,0-0.1-0.1c0,0,0,0,0,0c0,0,0.1,0.1,0.1,0.1c0,0,0,0,0,0  c0,0,0,0,0.1,0.1c0,0,0,0,0,0c0,0,0.1,0.1,0.2,0.1c0,0,0,0,0,0c0,0-0.4-0.2-0.4-0.2c0,0,0.9,0.5,1,0.5c0,0,0,0,0,0c0,0,0.1,0,0.1,0  c0,0,0,0,0,0c0,0,0,0,0,0c0,0,0,0,0,0c0,0,0.1,0,0.1,0.1c0,0,0,0,0,0c0,0,0,0,0,0c0,0,0,0,0-0.1c1.1,0.5,2.2,1.3,3.4,1.8  c0.1,0,0.2,0,0.3,0c0.1,0,0.2,0,0.3,0c1.3,0.5,2.7,0.9,4.1,1.4l0.1,0c0.2,0,0.3,0.1,0.5,0.1c0,0,0,0-0.1,0c0.2,0.1,0.3,0.1,0.4,0.1  c0,0,0.2,0,0.1,0c0,0-0.1,0-0.1,0C92.6,34.4,95.1,34.8,97.3,35.4L97.3,35.4z M86.1,32.8L86.1,32.8c0.3,0.1,0.7,0.2,1,0.3l0,0  C86.7,33,86.4,32.9,86.1,32.8L86.1,32.8z M87.3,33.2L87.3,33.2l0.1,0l0,0L87.3,33.2L87.3,33.2z M87.5,33.3L87.5,33.3L87.5,33.3  L87.5,33.3L87.5,33.3L87.5,33.3z M87.6,33.3L87.6,33.3l0.3,0.1h0L87.6,33.3L87.6,33.3z M88.1,33.5L88.1,33.5L88.1,33.5L88.1,33.5  L88.1,33.5L88.1,33.5z M88.3,33.5L88.3,33.5l0.3,0.1l0,0L88.3,33.5L88.3,33.5z M86,32.8l-0.1-0.1c0.4,0.1,0.8,0.3,1.2,0.4l0,0  C86.7,33,86.4,32.9,86,32.8L86,32.8z M87.4,33.2L87.4,33.2l0.1,0l0,0L87.4,33.2L87.4,33.2z M87.5,33.3L87.5,33.3L87.5,33.3  L87.5,33.3L87.5,33.3L87.5,33.3z M87.6,33.3L87.6,33.3l0.3,0.1l0,0L87.6,33.3L87.6,33.3z M88.1,33.5L88.1,33.5L88.1,33.5L88.1,33.5  L88.1,33.5L88.1,33.5z M88.3,33.5L88.3,33.5l0.1,0c0.1,0,0.1,0,0.2,0.1l0,0l0,0l0,0l0,0L88.3,33.5L88.3,33.5z M85.9,32.7  c0.4,0.1,0.8,0.3,1.3,0.4c0.2,0,0.4,0,0.6,0c-0.1,0-0.2,0-0.3,0.1l-0.1,0c0.2,0,0.3-0.1,0.5,0c0,0,0.1,0,0.1,0c-0.1,0-0.2,0-0.3,0  l0.3,0.1c0.2,0,0.3,0,0.4,0c0.1,0,0.1,0.1,0.2,0.2l0,0c-0.1,0-0.1,0-0.2-0.1c0,0,0,0,0.1,0l-0.1,0c-0.1,0-0.1-0.1-0.2-0.1  c0,0,0,0,0,0l0,0c-0.1-0.1-0.1-0.2-0.2-0.2c-0.1,0-0.2,0-0.4,0l0,0c0.3,0,0.6-0.1,0.8,0c0.5,0.2,0.9,0.4,1.4,0.7  C89.8,34,90,34,90,34l0.1,0c-0.2-0.1-0.3-0.1-0.5-0.2l0,0l0,0c-0.2-0.1-0.3-0.1-0.5-0.2h0l0,0h0l0,0l0,0l0,0l0,0l0,0l0,0  C88,33.3,86.9,33,85.9,32.7c-0.1-0.1-0.2-0.1-0.2-0.1C85.7,32.6,85.7,32.6,85.9,32.7L85.9,32.7z"></path>
<path fill-rule="evenodd" clip-rule="evenodd" fill="#FFCB29" d="M68,49.1c0.1,0,0.3,0.1,0.4,0.1c0,0,0,0,0,0c0,0,0,0,0,0  c0,0,0,0,0,0c0,0,0,0,0,0c0,0-0.1-0.2-0.1-0.2c-0.9-0.2-3-1.2-4.3-1.5c-0.7-0.2-1.5-0.4-2.3-0.6c-0.9-0.3-1.7-1.3-2.6-1.5  c-0.6-0.2-1.2-0.5-1.8-0.8c0,0,0,0,0,0c0,0,0,0,0,0c0,0,0,0,0,0c0,0,0,0,0,0c0,0,0,0,0,0c0,0,0,0,0,0c0.2-0.1,0.2-0.1,0,0  c-0.1,0.4,2.1,1.2,2.4,1.3c0,0,0,0,0,0c-2.2-1-2.8-1.2-5-1.8l0,0c0,0,0-0.2,0-0.2c0,0,0,0.2,0,0.2c0.1,0,0.1,0,0,0  c0.4,0.1,1,0,1.4,0.1c0,0,0,0,0,0c0,0,0.1,0,0.1,0c-0.3,0,0,0,0.1,0v0c0,0-0.1,0-0.1,0c0,0,0,0,0,0c0,0,0,0-0.1,0c0,0,0,0,0,0  c0,0-0.2,0-0.2,0c0,0,0,0,0.1,0c0.1,0,0.4,0.1,0.4,0.1c0,0-1-0.3-1-0.3c0,0,0,0,0,0c0,0-0.1,0-0.1,0c0,0,0,0,0,0c0,0,0,0,0,0  c0,0,0,0,0,0c0,0-0.1,0-0.1,0c0,0,0,0,0,0c0,0,0,0,0,0c0,0,0,0,0,0c-1.2-0.4-2.4-0.5-3.5-0.9c-0.1,0-0.2-0.1-0.2-0.2  c-0.1,0-0.2-0.1-0.3-0.2c-1.5-0.6-3.2-1.4-4.7-2c1.7,0.7,3.3,1.5,5,2.2c0,0,0.1,0,0.1,0.1c0,0-0.1,0-0.1,0c-0.5-0.2-0.9-0.3-1.4-0.5  c0,0,0.1,0,0.1,0c-0.1,0-0.1,0-0.2-0.1c0.4,0.2,0.7,0.3,1.1,0.5c-0.4-0.1-0.8-0.4-1.2-0.5c0.3,0.1,0.6,0.3,1,0.4  c-0.1,0-0.2-0.1-0.3-0.1c0,0,0.1,0,0.1,0.1c-0.1,0-0.1-0.1-0.2-0.1c0,0-0.2-0.1-0.2-0.2c-0.1,0,0,0.1-0.1,0c-0.1,0-0.2-0.1-0.3-0.1  c0.1,0.1,0.3,0.1,0.4,0.2c-0.1,0-0.3-0.1-0.4-0.2c-0.4-0.1-0.7-0.7-1-0.8c-0.3-0.1-0.7,0.1-1,0c0.4,0.2,0.8,0,1.2,0.1  c0,0-0.2,0.2-0.3,0.2c-0.4-0.2-0.8-0.3-1.2-0.5c-0.8-0.3,0-0.2,0.4-0.1c-0.7-0.3-0.3,0.3-0.9,0c-0.1,0-0.2-0.3-0.3-0.3  c-0.3-0.1-0.5-0.1-0.8-0.2c0.1,0.1,0.3-0.3,0.4-0.2c0.3,0.1,0.5,0.6,0.7,0.7c0,0,0.4,0.2,0.2,0.1c0.2,0.1,0.4-0.2,0.6-0.2  c0,0-0.1,0.3-0.1,0.3c0.3,0.1,0.6,0.2,0.9,0.3c0.2,0.1,0.4-0.2,0.6-0.2c0.2,0.1,0.4,0.6,0.6,0.7c-0.2-0.1-0.4-0.6-0.6-0.7  c0,0,0.1,0,0.1,0c0.3,0.1,0.5,0.6,0.8,0.7c0.1,0,0.2,0.1,0.3,0.1c-0.4-0.2-0.7-0.7-1.1-0.8c0.1,0,0.2,0.5,0.4,0.5c0,0-0.1,0-0.1,0  c0.1,0,0.1,0,0.2,0.1c0,0-0.1,0-0.1,0c0,0,0.1,0,0.1,0c-0.3-0.1-0.7-0.8-1.1-0.9c-1-0.4-2-0.4-3-0.8c0,0,0,0,0,0  c0,0-0.1-0.1-0.1-0.1c-0.2-0.1-0.3-0.2-0.5-0.3c0.1,0.1,0.3,0,0.5,0.1c0,0-0.3,0-0.4-0.1c-0.9-0.5-1.4-0.2-2.4-0.6  c-0.6-0.2-1.3-0.3-1.8-0.3c-0.3-0.1-0.6-0.2-0.9-0.4c-1-0.3-0.6-0.2,0,0c0.3,0.1,0.6,0.2,0.9,0.4c0,0-0.1,0-0.1,0  c-0.8-0.3-1.2-0.5,0,0c0,0,0,0,0,0c-1-0.4-0.8-0.1-0.2,0.3c1,0.4,2.3,0.9,3.1,1.3c0.7,0.4,1.4,0.8,2.2,1.1c0.9,0.4,1.9,0.1,2.7,0.6  c0.6,0.2,1.2,0.4,1.8,0.7c0,0,0,0,0,0c0,0,0,0,0,0c0,0,0,0,0,0c0,0,0,0,0,0c0,0,0,0,0,0c0,0,0,0,0,0c-0.1-0.2-0.1-0.2,0,0  c-0.1,0.4-2.3-0.5-2.5-0.6c0,0,0,0,0,0c2.2,0.8,2.8,1,5,2.1l0,0c0,0,0-0.2,0-0.2c0,0,0,0.2,0,0.2c-0.1-0.1-0.1-0.1,0,0  c-0.4-0.2-0.8-0.7-1.3-1c0,0,0,0,0,0c0,0,0,0-0.1-0.1c0.2,0.2,0,0-0.1-0.1c0,0,0,0,0,0c0,0,0.1,0.1,0.1,0.1c0,0,0,0,0,0  c0,0,0,0,0.1,0.1c0,0,0,0,0,0c0,0,0.1,0.1,0.2,0.1c0,0,0,0,0,0c0,0-0.4-0.2-0.4-0.2c0,0,0.9,0.5,1,0.5c0,0,0,0,0,0c0,0,0.1,0,0.1,0  c0,0,0,0,0,0c0,0,0,0,0,0c0,0,0,0,0,0c0,0,0.1,0,0.1,0.1c0,0,0,0,0,0c0,0,0,0,0,0c0,0,0,0,0-0.1c1.1,0.5,2.2,1.3,3.4,1.8  c0.1,0,0.2,0,0.3,0c0.1,0,0.2,0,0.3,0c1.3,0.5,2.7,0.9,4.1,1.4l0.1,0c0.2,0,0.3,0.1,0.5,0.1c0,0,0,0-0.1,0c0.2,0.1,0.3,0.1,0.4,0.1  c0,0,0.2,0,0.1,0c0,0-0.1,0-0.1,0C63.3,48.1,65.8,48.5,68,49.1L68,49.1z M56.8,46.5L56.8,46.5c0.3,0.1,0.7,0.2,1,0.3l0,0  C57.4,46.7,57.1,46.6,56.8,46.5L56.8,46.5z M58.1,46.9L58.1,46.9l0.1,0l0,0L58.1,46.9L58.1,46.9z M58.2,47L58.2,47L58.2,47L58.2,47  L58.2,47L58.2,47z M58.3,47L58.3,47l0.3,0.1l0,0L58.3,47L58.3,47z M58.9,47.2L58.9,47.2L58.9,47.2L58.9,47.2L58.9,47.2L58.9,47.2z   M59.1,47.2L59.1,47.2l0.3,0.1l0,0L59.1,47.2L59.1,47.2z M56.7,46.5l-0.1-0.1c0.4,0.1,0.8,0.3,1.2,0.4l0,0  C57.4,46.7,57.1,46.6,56.7,46.5L56.7,46.5z M58.1,46.9L58.1,46.9l0.1,0l0,0L58.1,46.9L58.1,46.9z M58.3,47L58.3,47L58.3,47L58.3,47  L58.3,47L58.3,47z M58.3,47L58.3,47l0.3,0.1l0,0L58.3,47L58.3,47z M58.9,47.2L58.9,47.2L58.9,47.2L58.9,47.2L58.9,47.2L58.9,47.2z   M59,47.2L59,47.2l0.1,0c0.1,0,0.1,0,0.2,0.1l0,0l0,0l0,0l0,0L59,47.2L59,47.2z M56.6,46.4c0.4,0.1,0.8,0.3,1.3,0.4  c0.2,0,0.4,0,0.6,0c-0.1,0-0.2,0-0.3,0.1l-0.1,0c0.2,0,0.3-0.1,0.5,0c0,0,0.1,0,0.1,0c-0.1,0-0.2,0-0.3,0l0.3,0.1c0.2,0,0.3,0,0.4,0  c0.1,0,0.1,0.1,0.2,0.2l0,0c-0.1,0-0.1,0-0.2-0.1c0,0,0,0,0.1,0l-0.1,0c-0.1,0-0.1-0.1-0.2-0.1c0,0,0,0,0,0l0,0  c-0.1-0.1-0.1-0.2-0.2-0.2c-0.1,0-0.2,0-0.4,0l0,0c0.3,0,0.6-0.1,0.8,0c0.5,0.2,0.9,0.4,1.4,0.7c0.1,0,0.3,0.1,0.3,0.1l0.1,0  c-0.2-0.1-0.3-0.1-0.5-0.2l0,0h0c-0.2-0.1-0.3-0.1-0.5-0.2l0,0l0,0l0,0l0,0l0,0h0l0,0l0,0l0,0C58.7,47,57.6,46.7,56.6,46.4  c-0.1-0.1-0.2-0.1-0.2-0.1C56.4,46.3,56.4,46.3,56.6,46.4L56.6,46.4z"></path>
<path fill-rule="evenodd" clip-rule="evenodd" fill="#FFFFFF" d="M138.5,6.8l-6.9,3.8l-0.8-1.4l6.9-3.8L138.5,6.8L138.5,6.8z   M144.5,11.1l1.4,1.2l-1.2,1.4l-1.4-1.2L144.5,11.1L144.5,11.1z M148.6,18.9l1.7,1.6l-1.6,1.7l-1.7-1.6L148.6,18.9L148.6,18.9z   M147.6,29.4l7.5-0.3l0.1,1.9l-7.5,0.3L147.6,29.4L147.6,29.4z M141.1,20.7l1.6,6.6l-1.6,0.4l-1.6-6.6L141.1,20.7L141.1,20.7z   M121.7,10.6l1.4,1.2l-1.2,1.4l-1.4-1.2L121.7,10.6L121.7,10.6z M128.7,2.7l1.4,1.2l-1.2,1.4L127.5,4L128.7,2.7L128.7,2.7z M120.4,8  l-1.9-7.5l1.9-0.5l1.9,7.5L120.4,8z"></path>
<polygon fill-rule="evenodd" clip-rule="evenodd" fill="#001F4E" points="111.4,45.1 109.9,48.5 113.5,53 109,48.5 "></polygon>
<path fill-rule="evenodd" clip-rule="evenodd" fill="#FFFFFF" d="M87.7,85.7c1.8-2.8,3.7-5.7,5.5-8.5c6.5-3.2,11.4-8.1,17.1-12.1  c-0.8,1.1-1.6,2.1-2.4,3.2c0,1.2-0.1,2.4-0.1,3.6c-2.9,1.9-5.8,3.7-8.6,5.6c-0.9,0.6-1.7,0.9-2.5,1.1c-0.5,0.2-0.4,0-0.5,0.5  c-0.4,2.9-0.9,5.6-1.4,8.5c0.3,0,0.7-0.1,1-0.1c0.9-2.2,1.8-4.6,2.7-6.8c3.9-2,8.6-3.6,13-5.5c0.7-0.6,1.4-1.3,2.1-1.9  c1.7-6.4,3.7-12.7,5-19.1c1.3-3.8,3.5-7.2,4.8-10.9c1-3,1.1-6.3,2.1-9.3l-2.1,2.1l-0.9,2c0.5,3.7-0.5,7.1-2.3,10.3  c1-3.4,1.6-6.7,1.1-9.8l1.4-3.3l3-2.6c-0.1-0.3-0.1-0.7-0.2-1c-0.6-0.2-1.3-0.5-1.9-0.7c-1,1-1.9,2.1-3,3c-1.1,1-2.5,1.3-3.9,1.1  c-0.9-0.1-1.7-0.4-2.6-0.6c1.7-1.5,3.4-3,5.1-4.5c-4.8-1.3-12,3.1-9.3,7.4c1.9,0.3,3.8,0.7,5.8,1c0,0.5,0,0.9-0.1,1.4  c-0.3,0-0.6,0-1-0.1c2.7,4.4,2.3,7.9-0.1,11c1.4-3.8,1-7.3-0.9-10.5c-5,0.7-7.2,4.4-8.2,9.2c2.8,2,5.5,4.1,8.3,6.1  c0.4,0.7,0.8,1.4,1.2,2.1c0.9-0.1,1.7-0.3,2.6-0.4c-1,0.4-2,0.7-3,1.1c-0.4-0.8-0.8-1.6-1.2-2.4c-1.5-1-3-2.1-4.4-3.1  c-0.3,1.7-0.5,3.4-0.8,5.1c2.2,1.2,4.9,1.7,7.6,1.9c-2.6,0.5-5.5,0.1-8.2-0.6c-5,5.4-8.5,10.8-15,16.1c-1.1,0.4-2.2,0.7-3.2,1.1  c-0.8,2.2-1.7,4.4-2.5,6.6c0,0.4,0.1,0.8,0.1,1.2C87,84.8,87.4,85.3,87.7,85.7z"></path>
<path fill-rule="evenodd" clip-rule="evenodd" fill="#FFFFFF" d="M110,32c-1.9,0.2-3.3,1.3-4.1,3.2c-1.8,8.2-3.6,16.3-5.3,24.5  c1.5,0.4,3,0.7,4.5,1.1c0.6-0.6,1.2-1.2,1.8-1.8c0.4-2.2,0.8-4.3,1.2-6.5c-1.1-0.9-2.3-1.7-3.4-2.5c-0.2-0.2-0.2-0.2-0.2-0.5  c1.1-5.5,3.8-9.9,9.9-10.2c0-0.1,0-0.3-0.1-0.4c-1.7-0.3-3.3-0.7-5-1C108,36.8,108.1,33.9,110,32z"></path>
<polygon fill-rule="evenodd" clip-rule="evenodd" fill="#FFFFFF" points="101.4,61.5 104,62.1 101.9,64.4 99.6,63.8 "></polygon>
<polygon fill-rule="evenodd" clip-rule="evenodd" fill="#FFFFFF" points="121.6,49.6 125.8,55.3 125.4,63 118.5,58.6 119.4,54.5 "></polygon>
<polygon fill-rule="evenodd" clip-rule="evenodd" fill="#FFFFFF" points="129,19.3 130.6,21.3 129,23.9 126.3,31.2 122.6,30.1   125.4,24 125,21.9 125.9,19.7 "></polygon>
<polygon fill-rule="evenodd" clip-rule="evenodd" fill="#FFFFFF" points="102.7,43.3 99.6,57.4 88.5,60.9 90,53.5 "></polygon>
</svg>
